<mxfile host="app.diagrams.net" modified="2024-03-07T13:26:33.117Z" agent="Mozilla/5.0 (Windows NT 10.0; Win64; x64) AppleWebKit/537.36 (KHTML, like Gecko) Chrome/122.0.0.0 Safari/537.36" etag="XGtPQ3jGpD3B1JZFoIB5" version="24.0.2" type="github">
  <diagram name="第 1 页" id="_fWf8hWGIdjQrUUXsR6R">
    <mxGraphModel dx="6077" dy="2695" grid="1" gridSize="10" guides="1" tooltips="1" connect="1" arrows="1" fold="1" page="1" pageScale="1" pageWidth="827" pageHeight="1169" math="0" shadow="0">
      <root>
        <mxCell id="0" />
        <mxCell id="1" parent="0" />
        <mxCell id="NIIjqhKRe15nDF2A4hRN-131" value="" style="endArrow=classic;html=1;rounded=0;entryX=0.459;entryY=0.981;entryDx=0;entryDy=0;entryPerimeter=0;" edge="1" parent="1" target="NIIjqhKRe15nDF2A4hRN-99">
          <mxGeometry width="50" height="50" relative="1" as="geometry">
            <mxPoint x="1220" y="830" as="sourcePoint" />
            <mxPoint x="1219.9999999999995" y="430" as="targetPoint" />
          </mxGeometry>
        </mxCell>
        <mxCell id="0INgmSK9HUNSs3rKqE9F-7" value="" style="rounded=1;whiteSpace=wrap;html=1;strokeColor=#50514F;strokeWidth=2;" parent="1" vertex="1">
          <mxGeometry x="-360" y="240" width="330" height="350" as="geometry" />
        </mxCell>
        <mxCell id="NIIjqhKRe15nDF2A4hRN-23" value="" style="ellipse;whiteSpace=wrap;html=1;fillColor=none;" vertex="1" parent="1">
          <mxGeometry x="-285" y="400" width="160" height="90" as="geometry" />
        </mxCell>
        <mxCell id="0INgmSK9HUNSs3rKqE9F-14" value="" style="rounded=0;whiteSpace=wrap;html=1;dashed=1;dashPattern=12 12;fillColor=none;strokeWidth=2;" parent="1" vertex="1">
          <mxGeometry x="20" y="140" width="1800" height="610" as="geometry" />
        </mxCell>
        <mxCell id="0INgmSK9HUNSs3rKqE9F-6" value="动态嵌套神经网络" style="text;html=1;strokeColor=none;fillColor=none;align=center;verticalAlign=middle;whiteSpace=wrap;rounded=0;fontSize=23;fontStyle=1;fontFamily=黑体;" parent="1" vertex="1">
          <mxGeometry x="1024.17" y="175" width="240" height="60" as="geometry" />
        </mxCell>
        <mxCell id="0INgmSK9HUNSs3rKqE9F-10" value="" style="rounded=1;whiteSpace=wrap;html=1;strokeColor=#50514F;strokeWidth=2;" parent="1" vertex="1">
          <mxGeometry x="76.67" y="240" width="343.33" height="350" as="geometry" />
        </mxCell>
        <mxCell id="0INgmSK9HUNSs3rKqE9F-11" value="" style="rounded=1;whiteSpace=wrap;html=1;strokeColor=#50514F;strokeWidth=2;" parent="1" vertex="1">
          <mxGeometry x="510" y="240" width="340" height="345" as="geometry" />
        </mxCell>
        <mxCell id="0INgmSK9HUNSs3rKqE9F-12" value="" style="rounded=1;whiteSpace=wrap;html=1;strokeColor=#50514F;strokeWidth=2;" parent="1" vertex="1">
          <mxGeometry x="1340" y="245" width="430" height="350" as="geometry" />
        </mxCell>
        <mxCell id="NIIjqhKRe15nDF2A4hRN-47" value="" style="edgeStyle=orthogonalEdgeStyle;rounded=0;orthogonalLoop=1;jettySize=auto;html=1;entryX=0.5;entryY=1;entryDx=0;entryDy=0;" edge="1" parent="1" source="0INgmSK9HUNSs3rKqE9F-15" target="0INgmSK9HUNSs3rKqE9F-10">
          <mxGeometry relative="1" as="geometry">
            <Array as="points">
              <mxPoint x="248" y="620" />
            </Array>
          </mxGeometry>
        </mxCell>
        <mxCell id="NIIjqhKRe15nDF2A4hRN-54" style="edgeStyle=orthogonalEdgeStyle;rounded=0;orthogonalLoop=1;jettySize=auto;html=1;exitX=1;exitY=0.5;exitDx=0;exitDy=0;entryX=0.5;entryY=1;entryDx=0;entryDy=0;" edge="1" parent="1" source="0INgmSK9HUNSs3rKqE9F-15" target="NIIjqhKRe15nDF2A4hRN-51">
          <mxGeometry relative="1" as="geometry">
            <mxPoint x="1555" y="780" as="targetPoint" />
            <Array as="points">
              <mxPoint x="1555" y="830" />
            </Array>
          </mxGeometry>
        </mxCell>
        <mxCell id="0INgmSK9HUNSs3rKqE9F-15" value="" style="rounded=0;whiteSpace=wrap;html=1;" parent="1" vertex="1">
          <mxGeometry x="176.67000000000002" y="810" width="133.33" height="40" as="geometry" />
        </mxCell>
        <mxCell id="NIIjqhKRe15nDF2A4hRN-46" style="edgeStyle=orthogonalEdgeStyle;rounded=0;orthogonalLoop=1;jettySize=auto;html=1;exitX=0;exitY=0;exitDx=75;exitDy=40;exitPerimeter=0;entryX=0;entryY=0.5;entryDx=0;entryDy=0;" edge="1" parent="1" target="0INgmSK9HUNSs3rKqE9F-15">
          <mxGeometry relative="1" as="geometry">
            <mxPoint x="134.5300000000001" y="830" as="targetPoint" />
            <mxPoint x="-209.46999999999997" y="720" as="sourcePoint" />
            <Array as="points">
              <mxPoint x="-210" y="780" />
              <mxPoint x="-210" y="830" />
            </Array>
          </mxGeometry>
        </mxCell>
        <mxCell id="0INgmSK9HUNSs3rKqE9F-18" value="" style="verticalLabelPosition=bottom;verticalAlign=top;html=1;shape=mxgraph.basic.layered_rect;dx=12;outlineConnect=0;whiteSpace=wrap;" parent="1" vertex="1">
          <mxGeometry x="-274" y="680" width="138" height="40" as="geometry" />
        </mxCell>
        <mxCell id="0INgmSK9HUNSs3rKqE9F-22" value="k = 1" style="text;html=1;strokeColor=none;fillColor=none;align=center;verticalAlign=middle;whiteSpace=wrap;rounded=0;fontSize=22;fontStyle=1;fontFamily=Futura;" parent="1" vertex="1">
          <mxGeometry x="260" y="615" width="80" height="50" as="geometry" />
        </mxCell>
        <mxCell id="0INgmSK9HUNSs3rKqE9F-23" value="k = 2" style="text;html=1;strokeColor=none;fillColor=none;align=center;verticalAlign=middle;whiteSpace=wrap;rounded=0;fontSize=22;fontStyle=1;fontFamily=Futura;" parent="1" vertex="1">
          <mxGeometry x="740" y="615" width="80" height="50" as="geometry" />
        </mxCell>
        <mxCell id="0INgmSK9HUNSs3rKqE9F-24" value="k = 3" style="text;html=1;strokeColor=none;fillColor=none;align=center;verticalAlign=middle;whiteSpace=wrap;rounded=0;fontSize=22;fontStyle=1;fontFamily=Futura;" parent="1" vertex="1">
          <mxGeometry x="1040" y="615" width="80" height="50" as="geometry" />
        </mxCell>
        <mxCell id="0INgmSK9HUNSs3rKqE9F-25" value="k = 3 + j" style="text;html=1;strokeColor=none;fillColor=none;align=center;verticalAlign=middle;whiteSpace=wrap;rounded=0;fontSize=22;fontStyle=1;fontFamily=Futura;" parent="1" vertex="1">
          <mxGeometry x="1230" y="615" width="99" height="50" as="geometry" />
        </mxCell>
        <mxCell id="0INgmSK9HUNSs3rKqE9F-26" value="块1" style="text;html=1;strokeColor=none;fillColor=none;align=center;verticalAlign=middle;whiteSpace=wrap;rounded=0;fontSize=23;fontStyle=1;fontFamily=黑体;" parent="1" vertex="1">
          <mxGeometry x="300" y="520" width="60" height="60" as="geometry" />
        </mxCell>
        <mxCell id="0INgmSK9HUNSs3rKqE9F-27" value="块2" style="text;html=1;strokeColor=none;fillColor=none;align=center;verticalAlign=middle;whiteSpace=wrap;rounded=0;fontSize=23;fontStyle=1;fontFamily=黑体;" parent="1" vertex="1">
          <mxGeometry x="740" y="510" width="60" height="60" as="geometry" />
        </mxCell>
        <mxCell id="0INgmSK9HUNSs3rKqE9F-30" value="块V" style="text;html=1;strokeColor=none;fillColor=none;align=center;verticalAlign=middle;whiteSpace=wrap;rounded=0;fontSize=23;fontStyle=1;fontFamily=黑体;" parent="1" vertex="1">
          <mxGeometry x="1548.75" y="510" width="60" height="60" as="geometry" />
        </mxCell>
        <mxCell id="NIIjqhKRe15nDF2A4hRN-41" style="edgeStyle=orthogonalEdgeStyle;rounded=0;orthogonalLoop=1;jettySize=auto;html=1;exitX=0.466;exitY=1;exitDx=0;exitDy=0;exitPerimeter=0;" edge="1" parent="1" source="0INgmSK9HUNSs3rKqE9F-7" target="0INgmSK9HUNSs3rKqE9F-18">
          <mxGeometry relative="1" as="geometry">
            <Array as="points">
              <mxPoint x="-205" y="590" />
            </Array>
          </mxGeometry>
        </mxCell>
        <mxCell id="0INgmSK9HUNSs3rKqE9F-31" value="设备选择过程" style="text;html=1;strokeColor=none;fillColor=none;align=center;verticalAlign=middle;whiteSpace=wrap;rounded=0;fontSize=23;fontStyle=1;fontFamily=黑体;" parent="1" vertex="1">
          <mxGeometry x="-280" y="520" width="150" height="60" as="geometry" />
        </mxCell>
        <mxCell id="0INgmSK9HUNSs3rKqE9F-33" value="" style="shape=image;verticalLabelPosition=bottom;labelBackgroundColor=default;verticalAlign=top;aspect=fixed;imageAspect=0;image=data:image/png,iVBORw0KGgoAAAANSUhEUgAAAIAAAACACAYAAADDPmHLAAAAAXNSR0IArs4c6QAAGIFJREFUeF7tXXmYZUV1r3Nfz9DiDDE4GI3RQGxn6Tq3e5phmBkBWRNAQdQAKjsqaJAgi2ERjZB8bLIoEBVEAVkT0AQhSiKCEwgO25Dpd0/19ExABlQQGAgyIzi8927lnuY+vP36LnXr3vd6ma7v63/6Vp06der3ajl1FhDTZbOWAGzWo58evJgGwGYOgmkATANgM5fAZj786RVgGgCbuQQ28+FPrwDTAJj6Eujp6dmiu7t7me/7vxgaGnpq6o/YfIRTfgVAxFuEEPsLIbpDsdzvOM5Xq9Xq7eZimro1pzQAwsk/KG76AOBgz/NuTZraZcuWvenll1/+GABsy3UqlcpVg4ODv55qUJiyAEDE3YQQP0uZsOVEtHvc94GBgW3q9fodWuslLd8vIqK/m0og2JwBIIgodvxSyuMA4BsJE301EX1qqoBgswYAAGzted7/tU6mlPKJ5tIfN9Fa6/cqpR5rBwj6+/vnNhqNBhE93g76rTSnMgD6hBCDaUJ0HGd+tVpdE60zd+7cOTNnznw+Q/i7E9HysiYIEb8ihFgc/r0tpPuMEOIBIUSViM4qq6/NBgC8j9dqtecyAPD+arV6X7QOIn5SCPHdTgAAEd8jhLhMCPGBjP483/ePGRoaerBsIEzZFYAFhYh1PsAnCU1rfaBS6gfR71LKGwHgkDRB12q1rdasWbOhyGSEv/q8v+yzy14NpjoAfiWEeGfKRB1HRN9qWQGeFEK8OwU0a5VS8wpO/n5CiDtsaFQqle0HBwf/x6ZtXJtSAbBgwYJ3VCqVRUKIHYQQ2wsheAIe8X1fdXV1UbVa/V1ZjJvQQcSHQ16Sqo/6RSHiR4UQo1aEMXsmwM2e56WuEGm8sYwcx3kEAP7UZAwx/atKpbLzqlWrXrJp37YzgJTycwDwTylMPam1PkcpdVUZjJvQQMTrhBCHp9S9lYgObn43Wf6FECcQ0eUm/cfVkVKeBwCn27bndlrrS5RSpxSh0WxbygqQpnFrZVJrfa1S6ugymM+igYifFUKMWuKjbQBAeZ6H/L++vr7tfN8fiqiMY8kXvQIi4s1CiI9n8Z7x/V4i2rUgjZHmhQGAiHzS3iYPM2UiOK1fKeViAHgorY7v++8fGhq6z3XdC7TWp6bVBYAHPc9bmmesrXVd131Uaz1QhIYQ4lUi2rIgjeIAQMQrhBCfsWRkJyL6uWVbo2aLFi2asWnTpheFELOSGgTq3jsBYH3GVtFsflagPTzbqPOESojI56DCkwcAO3iet7IIL4VWAET8KyHEfxZg4Oda672VUhsL0MhsKqX8KQDsmVkxowIAPF2v13dYvXo1K2isCyIy2N5qTSBs6DjOu6rVKh+yCxXrLQAReW/lPda6AMAnPc+7xpqAQUNEvEgIUcaBqZQ7eHDTqAY3DdeA9bQqvySixKtqHtpFAMBaqR3zdBZT95tE9LmCNFKbu667SGv9SME+nmg0GjsV/fUzD4jI10y+bloXALjd87wDrAlEGloBQEo5CwAKacJCHh4moqIgypSDlPLKYAk/NrNiQgUAOMzzvBtt20fbua57vNba+hoZ0iplNWJaVgAweGs3llXSk6wxAYOKvb29A47j3Jt2GEwhU+oq1dfXt73v+3z43cKA9bgqNwQvhWm6jVxkrQBQ4gqQ+CafaxQGlV3XPVZrfaVB1WiVQa31HkopvkmUVoqsAlrr2WUenK0AEO5lZZwBmNTvhRBfIqKLS5NwAiHXdQ/VWt9g0g8riQLF0MFKKVYOlV5c1z1Ia832iqZlo+/7e5X9IlgEAIVvAS0jfwYAzvI879umErGpt2DBgj+vVCqXCCHYZGzrGBr8a79Ga311uya/2Scifl0I8fmscQDA9zzPOyqrns33IgAoqgdI4nc1AHy93UCQUm7tOM6S0O6PDTKa5QdEdKCNMPO2kVI+AACtdodM5pdCiPsDa2ZW9LBByE/y0jatbw2AcBsoognM4nGl1voKpdR3sioW+S6l3BsA/iNKAwB29TyPD41tLYj4WyHEVi2d7E9E/97WjiPECwEgBEHutwAhxJmB0eU2WmvWAcxIGywA3O37/mVKqbbZ8buuS1prGeHjSiIqpOTKmkAp5UIAGPWuDwD3eJ5XWGuZ1fcosOepnFTXdd1LtNYnGdBiC53PEtGIyVVoP8BvCX+bsB+/QRIAbgaAS6vVaulmUYjIq0zU0neD1nr7dhl+8qCklCcCwNeiMtNaH9vJ53Luu/AK0BxAsJ/tAwB/Hxo2dsWAYYXjOF+uVqt3t36TUvYAwAkhELJwdCYRnZtVKc/3vr6+PX3f/2lLm9KULXG8uK57N18xI9+erNVqblFTszzjLhUAzY7nzZs3e8aMGWwVxH+/01qvazQaDw8PD7+QxVz4wHQhP89nbAu3A8CZ1WqVsmiafkdEvo5GlTOJjiOmNJPqhcqgUS95Wut/UEpFD6NFuzFqX9oKYNSbQaXgkelPhBAMgixt13Na6zPLOiQiItvh/0WUxXq9vt3w8PA6A7ZzVUFENgaNTvZ63/cXjYfj6oQDQFOSiPiFEAhZwi1FVYuIbB6+c8uefLRS6tosBvJ8l1L2AsCK6Olfa32BUqqQmVgeHqJ1JywAmEneEgCAD5jRE3rcWO+dM2fOnsuXL+dDplVBxH8WQnysBQClm6+Nx4EzdTu1klYHG/EvxnGcWwxA8ILWeqntyV1KeTEAnNwCgHVKqe3KGm6CzuFrnueN6res/kzoTOgVoDmAHCBgi9mdlVKsRctVEJFvFme0NgKA93mex0t2oRI+oLEF1fsihDaFe78qRLxA40kBAB5fThDIvHp8KeXlgW3g8TEAONnzvFH3dRt5J1hQlXJ+seGn2WbSAKDdIJBSXgMAcQ8uo3wHbISdZJ7uOM6iarX6qA3NstpMKgDwoPv6+pb6vs+6+z9KEwLrH4QQHzRdCRDx+0KIv46h+atAc/kuW4G7rvthrfW/xbS/lIhOtKVbVrtJBwAeuOu6R/NzbZYQWNfOdv8mBhSIyPszv3DGlR4bf33XdffVWv84huBzjuMsrVarT2SNod3fJyUAWCiI+NVA02gSruU8IvpiliAzgkLsnfdJVkq5Oz/uJPRbujo7a3xJ3yctAEIQ8AshRwBLLU3vn6RK8+fP37arqyvt1/hRIopbxmNJuq67TGud5PRC4a+/o46yUxIA4SMSPy6l2siz949SKjEIg5TyKABI8084goiuzwIaf5dS7sguZEl1g7PJUYFu4XsmtDpRZ1KvAOF54DNsOJIlLK31oUqpm+LqJV0Bm3XZbkEp9c2sPsIX0TtT6n2HiI7JotPJ74UBIKX8eGC0sUsQVoVPyuz4OFyv13/UyWfNwLjituDAl+ooEeeV3LRHAIBjtNaJ/vpa69OUUnzmSCxxmsSWysONRmOPIs4l4Y1ixIaQnV5933+oNcJJXvAUAkCK8uRB3/fPUEqlxenLy2ti/d7e3iWh3f/MlKX36cDYYiRaSPgcywfDuGvfGBKBbyE/FJ3neV7sr9t13Tu11vukDSgrMGVa24ULF76l0Wh8RWsdd21c7vv+6bbWwtYAcF33dK31eYmHC4CG1voMIuKn3baXmCfWuD4Xa63nAMC/xNjimfD4WPhyN2KnGB72OCgGR0NJK5cRUab1bxyB8FfPT8cLUzpYr7WeZ+O/YA2AIMiRNpGYEOIWADjD87xfGNa3qialnMmrQEx0zyg9fofPG5gpjp8LAeD+AEw8+X+WxjAfQLu7uw9YuXJlLefAHNd1L0741ceRsrJg6gQAmFk29T68DH/2NCG6rnuA1vq2nIK2rf6aECJxy2Gi7FL+2muvLV6zZs3TeTrhhyMhxA1Z55oWmh0HAHvcstmXaXnKcZzDWuPymTY2rVcwaIVpN0b1AjAuVEqlBqtsJdTX1/c23/fZe+kvjToJK9k6sBZZAVrNmkz45Td7vo4VCSyR2k9vb++7K5XKirRTvQmjJdTJbd8fei3xVTX6ZJzJSujGxirv3D6M1gBgrsKDF+vPl2Vy+YcKbHx5SB7NWg7aI1UND4R5yeapz76O5+RpEJqK8eT352kX7DRns4+h6aNXK+1CAGBiPT09W3V3d7Nj56dzMP6S1np3pdSqHG2Mq/L9vqur65HxWAVMlUatg0FEVjV/2HiQQrBF9OlE9KMcbcZULQyAJkVE/DwA8Kk1MTRrS++3EdFHijCf1nYcVoHXtNZHKqXYtjBXiXMSSSPASi2ONUhEz+bqKKZyaQBg2q7r7hX4r/NqkGrX3+TD9uBiOmjXdX/doVVgOIx3ZGU6hojsgr7AYFw19sBSSiXlMjAgMbpKqQBg0qF6le/HJnFwbiSiw3JzbdggK+6/IRmjaraRTkxjGPGVUmt9dN5n6SzmSwdAZEswuSW8GIRdLRwyLW6QnPNnw4YNr2QJoMTvVjkEDLcqzlX0ASLiCGOlllwAcF33ZK0179scLZsTLrG9XGzihNBFjD2Hm9m6Yhm3/eVkSQERMxNGZNHI+b1tAEh7jAqfxPcNV1zJ5mdKKePgncYASIlmwdk1GAzsz7+mVqutmTlzZoVP+ezRmyXEaQCMcROLExkfrkciloTW0TzREgD2iVN954nHbAQAKeURHKYkazItvj9PRM0UKRbNk5tMli2gSMCoDIEZqYaNAICIbAzxN6XO0OvE2moX38lD4OzZs7dcsWLFq3llFCqA2uEY8jgR9WTxYwoAftfnoEplF6t905SJTl4DicjkGhfLekyEEtMhptUzOmCbAsAomlUeroP7+bfzHFby0Oa6hqfrvGTT6l9HREfaELSMYZjVldEV2wgACRE0shhI/Z6Us68Q0bDxOKqCH924ceNO69at4/eOXMXApCwXPfZxIKK7shoZAaD5i8qyncvqrPkdAA71PC/WQNOURlq9cfj1R9lhlfCAzeMMInLsJE5bV6iEBjjnmxAxBgATC7V8B2qt9w1Mn/numbes9H3/xKGhof/O29C0/jj++kexWKlU5g0ODq415btZr6+v70O+73Pmkp3ytA2fhDkT2X8ppUaFvUujkwsAUULhNYuDHPHzJStd+BD0XiHEm1o6bOoJOM8N2+K1tYzzr3/U2IrkFwzjJbFRCB++Wb5R6yM2rxsWQiitNb8jsHWwVUhbawAkzWJ/f/87G40GA+FZAPhNXG7ediEAETldHVvwpmof29V/DN3SAk0h4gLHcSozZsxYY2FfmDjk0gHQQeGO6UpKeSsAJIV5ZYveczI8gEzYH3Yc51Df9z8hhOA4RqmFs5B7njcm7kBWu059nzIACJQ+RwYZvxMDOoXxh08K3wgutdBrsBHoFVHz7hTv39b5M9LKdWrSo/1MCQDMnz//rV1dXbz0pylj3lA6hecXzv65LIgTvDQj/tBTAHCu7/u3xtnchY8x/D6f5FrelPd+Ra132gGQKQEAgwRWjxERn0vGlJ6eni26u7vZpjHJi+lqIoqGkY2dB0TkLOAc8japsAnXXmVY8ZQJhEkPgKzsoKGwLiciDkWbNHm8csSeok38AptEXdf9R631l5L6yfNKV+Ykp9Ga1ABARDafZhPzxMSQQojnKpXKLml38r6+vjcHpla/jbNndBzngGq1ahypHBHZFS7xcKi1Pr5Mk66iQJm0AEgIuzZGHkF2s1M8z+MMIakFEdl75x2tlRzHmV+tVtdktY9+z3A3/w2n2wu2FU4KMe5l0gLAYN9n4f6MiKIRuRMFnpDTtxZEJk91/0rZVvhgeFzcd631+UqpMTEJxwMNkxIAiMj7OV/lUgu7bJt6ISVk9Ayyx5B1ls+UhNQbAGBHz/NYmzeuZdIBABH3C3wSWeedVXLdvRFxU4yz57eIKPZXnNV583tSBNIgf3DqwdSUftF6kwoArA5NOq23CCJXlu+UIFFGT6pZk4CIHNLu6Gg9AGjwKjAdKDJLeuF39v8HAPaEeUtGk1y/fKYVlwmd7fA9zxuJKFK0bLvttt2zZs3it/lR4egngpp40qwAht4zuSefJzfOMLNsi6UEo5pXKpXKgM2zcVFQNttPCgAgIrtcLc0Y9Km24Whc1/2h1vpDUfpa6wPKzlSWkFzLKJBlWRPeSmdCAyAuu0aMIB4TQpxkm2tvYGBgm1qtxg4s0WJkUZt3Ujj4g9b6Pq313Ejb34QWRKwf6HiZsAAwtJe/Q2t9sm2SiHD5P43v5S2Sb9uvMkF1/UUiSgy41U5UTEgASCnPB4DTMgZ+IRGx6VShEpMrqO44zkCZGcmiDIYHQk4YOb/5f6312u7u7oGVK1d20pdxpPsJBQBejuv1+oXsZ58yq/fz86zneXFRuHOBISGs6/VEdEQuQjkrx4XYG683ggkDANd1OeTrKaFdYZxIfx9OPKd2aeSUeWx1RBwTbJoNXvMYVdrwIaV8OwDw+0I0b/DDRLSjDb0ibcYVALvttlvX+vXrOY4Av7cnGlQEh6QfBlq6c4OAzw8VGWy0rZTyNABo3fvvIqIsw45SWEBEttzdu4VY7rD0RZkZFwBwaFcA+AgA8OTHGmqM7E8A92itv0FE/1p0oC2TvxMAxJmmf4qIMhNRlMFLgvVy25NWt/LeVgBwjIBKpfLHQdLn5h9n0OCYulkhZB4IHUeNQrTnnRBE5Nh9rTx4s2fPXmLj4Jm3f64f+li0BpB8vqura+6qVatesqFp06ZUAEgpD3Qch02zOSbvYiHE7JxM3cUxBTzPS4vdn5Pk69WllJ8AAH4a5vTscbkAO5LFQ0q5PwCw0okTXXCa3FGFV0bP8zoV7bScW0C4l3NcIOPIFJFRc7bPawPlyE3tiC4e5iK+PHCiOCgDOcs5PX27hB/GAuIzx15pfHBs4VqtdsTatWvXWyE9Z6PCK0AYep3To0Qzb5uw8QSbcVcqletWrVpVeoLm8FfPeXpz+d7n8aszGSTXQUQ2FmWjUeNimwDTuIOwYiEAhObYNkhdRUQDeZnNU58VLrNnz+ZgkVl5h8eQDeP9XZenv6S6Uso9goQanNYmd2HebV2+TDsrBIDgGZV/+XnCxL7BVxjvjuMOtKUg4kVCCNYr2JQXtda7lCF8RORInon5itKY49Vr06ZNu7VzO7AGQFEnTE7sWKlUllSr1daHGJsJG9WmpHgGRgEW0phFRNZvjCSXsC1a62ODTCdX2bbPamcNANd1b9VaJ/nhZfXb/P7pICsn+8SXWuI0fJYdLCYiDotvVRCRt5HDrRr/odGPieiDBWkkNrcGQEkBmL5LRHmCTGfKIYfNYCYtIUShqyEistEnx1QsUp4lorcXIZDW1goACUqM3DzyHud5HuZumNIgx69/pUHCC2v37vD6Wcobf71e3254eLgtNyUrAPT29g44jlNG1usNRBR9ECmEhSB93ELOF2xA5GIi+kKwWmRlPbHmr0QZsUp8h3al27ECAAsYETn16ZYGwk7efwDu8TyPNXOlFMOw62/sqVLKUwHggrTObUO9lCUjIcSrRFRIzqVvAeHgfpI3r00rIyx8z/NOL2X2XwelSTzDNw6eJueFwFjjEKVUZsjbuDEEvouFZSSE4NA6u5YlozFzYEs4ywnShK7W+iCl1PdN6mbVCYNTv5xR75murq7e5mOL4VlmZLvI6j8BAKmOoiY0tdaXKKVs9RmZXVhvASw8x3EeAYDElKsZvZf69ImIHEwpNVNpnB0+Im4UQrw5hVfrg2BRGfEhuVKp7NzO10FrAITbgKmbVqt8N82ZM2fW8uXL+SGolIKI/Cth7V9aGZPJCxE54lbc62CTzv8SUdSKNxe/JttMEsFKpbL94OCgyaE2F0/RyoUAEILAJDHEKAYdx1lUtkuU67o3BeHqOXBTbAmMTF/dsGHD1q1RPIOM3w8AwJIUCb4S+BukrRCZwrfUmuZyb8tkIkkutg2j7fr7+wd837/e4OFlRb1e3394ePiFMvqN0jA4AN5BRKOcP7h9nFNIK29lhLVFxPeEL4JZ7wKe7/vH2CaDzivXwitAs0POcF2r1b7Md1Y2CGkGjGSdP58VggOfIqIy8vbGjtEAALFuY4jIevZUbaTjOG5ZZuLhatCUUTNXwjNCCLaCqrZTRnGCKw0ArcTZAKJerz+9evVqHlzbi+u6h2itb0zpKDY0PSJygkdOJZ9Y2qWI6e/vn9toNBpE9HjbBdTOLWC8mG/tV0p5ZeDVe2wMP5zb6OA4Pk1Ctbcrrc1EkFvbVoDxGlw4oQwCTmzNxpWc1OqEpJg8KbEBmkNIBM94jbHMfqccAGyEk6JCntKTz7KaBkCIGPZVcByHQ+D3Bt7GHDLufqVUYuhZG6BNxDbTAJiIs9JBnqYB0EFhT8SupgEwEWelgzxNA6CDwp6IXU0DYCLOSgd5mgZAB4U9EbuaBsBEnJUO8jQNgA4KeyJ2NQ2AiTgrHeTp/wGENQoXdyUQUAAAAABJRU5ErkJggg==;" parent="1" vertex="1">
          <mxGeometry x="-240" y="400" width="70" height="70" as="geometry" />
        </mxCell>
        <mxCell id="NIIjqhKRe15nDF2A4hRN-1" value="" style="ellipse;whiteSpace=wrap;html=1;aspect=fixed;fillColor=#50514F;" vertex="1" parent="1">
          <mxGeometry x="-210" y="287" width="13" height="13" as="geometry" />
        </mxCell>
        <mxCell id="NIIjqhKRe15nDF2A4hRN-2" value="" style="ellipse;whiteSpace=wrap;html=1;aspect=fixed;fillColor=#50514F;perimeterSpacing=0;" vertex="1" parent="1">
          <mxGeometry x="-161" y="474" width="11" height="11" as="geometry" />
        </mxCell>
        <mxCell id="NIIjqhKRe15nDF2A4hRN-3" value="" style="ellipse;whiteSpace=wrap;html=1;aspect=fixed;fillColor=#50514F;perimeterSpacing=0;" vertex="1" parent="1">
          <mxGeometry x="-260" y="474" width="11" height="11" as="geometry" />
        </mxCell>
        <mxCell id="NIIjqhKRe15nDF2A4hRN-4" value="" style="ellipse;whiteSpace=wrap;html=1;aspect=fixed;fillColor=#50514F;perimeterSpacing=0;" vertex="1" parent="1">
          <mxGeometry x="-210.5" y="485" width="11" height="11" as="geometry" />
        </mxCell>
        <mxCell id="NIIjqhKRe15nDF2A4hRN-6" value="" style="ellipse;whiteSpace=wrap;html=1;aspect=fixed;fillColor=#50514F;perimeterSpacing=0;" vertex="1" parent="1">
          <mxGeometry x="-130" y="440" width="11" height="11" as="geometry" />
        </mxCell>
        <mxCell id="NIIjqhKRe15nDF2A4hRN-7" value="" style="ellipse;whiteSpace=wrap;html=1;aspect=fixed;fillColor=#50514F;perimeterSpacing=0;" vertex="1" parent="1">
          <mxGeometry x="-290" y="440" width="11" height="11" as="geometry" />
        </mxCell>
        <mxCell id="NIIjqhKRe15nDF2A4hRN-8" value="" style="ellipse;whiteSpace=wrap;html=1;aspect=fixed;fillColor=#50514F;perimeterSpacing=0;" vertex="1" parent="1">
          <mxGeometry x="-260" y="404.5" width="11" height="11" as="geometry" />
        </mxCell>
        <mxCell id="NIIjqhKRe15nDF2A4hRN-9" value="" style="ellipse;whiteSpace=wrap;html=1;aspect=fixed;fillColor=#50514F;perimeterSpacing=0;" vertex="1" parent="1">
          <mxGeometry x="-161" y="404.5" width="11" height="11" as="geometry" />
        </mxCell>
        <mxCell id="NIIjqhKRe15nDF2A4hRN-32" value="" style="endArrow=none;html=1;rounded=0;entryX=0.583;entryY=0.5;entryDx=0;entryDy=0;entryPerimeter=0;exitX=0.5;exitY=1;exitDx=0;exitDy=0;dashed=1;dashPattern=8 8;strokeWidth=1;startSize=5;endSize=2;" edge="1" parent="1" source="NIIjqhKRe15nDF2A4hRN-1">
          <mxGeometry width="50" height="50" relative="1" as="geometry">
            <mxPoint x="-206.74" y="300" as="sourcePoint" />
            <mxPoint x="-203.26" y="440" as="targetPoint" />
          </mxGeometry>
        </mxCell>
        <mxCell id="NIIjqhKRe15nDF2A4hRN-33" value="" style="curved=1;endArrow=classic;html=1;rounded=0;entryX=0.5;entryY=0;entryDx=0;entryDy=0;exitX=0.5;exitY=1;exitDx=0;exitDy=0;" edge="1" parent="1" source="NIIjqhKRe15nDF2A4hRN-1" target="NIIjqhKRe15nDF2A4hRN-8">
          <mxGeometry width="50" height="50" relative="1" as="geometry">
            <mxPoint x="-290" y="360" as="sourcePoint" />
            <mxPoint x="-240" y="310" as="targetPoint" />
            <Array as="points">
              <mxPoint x="-240" y="360" />
            </Array>
          </mxGeometry>
        </mxCell>
        <mxCell id="NIIjqhKRe15nDF2A4hRN-34" value="" style="curved=1;endArrow=classic;html=1;rounded=0;entryX=0.191;entryY=0.093;entryDx=0;entryDy=0;entryPerimeter=0;exitX=0.5;exitY=1;exitDx=0;exitDy=0;" edge="1" parent="1" source="NIIjqhKRe15nDF2A4hRN-1">
          <mxGeometry width="50" height="50" relative="1" as="geometry">
            <mxPoint x="-210" y="300" as="sourcePoint" />
            <mxPoint x="-285" y="440" as="targetPoint" />
            <Array as="points">
              <mxPoint x="-271" y="392" />
            </Array>
          </mxGeometry>
        </mxCell>
        <mxCell id="NIIjqhKRe15nDF2A4hRN-35" value="" style="curved=1;endArrow=classic;html=1;rounded=0;entryX=0.5;entryY=0;entryDx=0;entryDy=0;exitX=0.5;exitY=1;exitDx=0;exitDy=0;" edge="1" parent="1" source="NIIjqhKRe15nDF2A4hRN-1" target="NIIjqhKRe15nDF2A4hRN-3">
          <mxGeometry width="50" height="50" relative="1" as="geometry">
            <mxPoint x="-200" y="300" as="sourcePoint" />
            <mxPoint x="-256" y="474" as="targetPoint" />
            <Array as="points">
              <mxPoint x="-242" y="426" />
            </Array>
          </mxGeometry>
        </mxCell>
        <mxCell id="NIIjqhKRe15nDF2A4hRN-36" value="" style="curved=1;endArrow=classic;html=1;rounded=0;entryX=0.5;entryY=0;entryDx=0;entryDy=0;" edge="1" parent="1" target="NIIjqhKRe15nDF2A4hRN-4">
          <mxGeometry width="50" height="50" relative="1" as="geometry">
            <mxPoint x="-203" y="300" as="sourcePoint" />
            <mxPoint x="-203" y="489" as="targetPoint" />
            <Array as="points">
              <mxPoint x="-190" y="400" />
            </Array>
          </mxGeometry>
        </mxCell>
        <mxCell id="NIIjqhKRe15nDF2A4hRN-37" value="" style="curved=1;endArrow=classic;html=1;rounded=0;entryX=0.5;entryY=0;entryDx=0;entryDy=0;exitX=0.5;exitY=1;exitDx=0;exitDy=0;" edge="1" parent="1" source="NIIjqhKRe15nDF2A4hRN-1" target="NIIjqhKRe15nDF2A4hRN-2">
          <mxGeometry width="50" height="50" relative="1" as="geometry">
            <mxPoint x="-200" y="300" as="sourcePoint" />
            <mxPoint x="-153" y="476" as="targetPoint" />
            <Array as="points">
              <mxPoint x="-160" y="420" />
            </Array>
          </mxGeometry>
        </mxCell>
        <mxCell id="NIIjqhKRe15nDF2A4hRN-38" value="" style="curved=1;endArrow=classic;html=1;rounded=0;entryX=0.5;entryY=0;entryDx=0;entryDy=0;exitX=0.5;exitY=1;exitDx=0;exitDy=0;" edge="1" parent="1" source="NIIjqhKRe15nDF2A4hRN-1" target="NIIjqhKRe15nDF2A4hRN-9">
          <mxGeometry width="50" height="50" relative="1" as="geometry">
            <mxPoint x="-200" y="300" as="sourcePoint" />
            <mxPoint x="-120" y="330" as="targetPoint" />
            <Array as="points">
              <mxPoint x="-180" y="330" />
            </Array>
          </mxGeometry>
        </mxCell>
        <mxCell id="NIIjqhKRe15nDF2A4hRN-39" value="" style="curved=1;endArrow=classic;html=1;rounded=0;entryX=0.5;entryY=0;entryDx=0;entryDy=0;exitX=0.491;exitY=0.961;exitDx=0;exitDy=0;exitPerimeter=0;" edge="1" parent="1" source="NIIjqhKRe15nDF2A4hRN-1">
          <mxGeometry width="50" height="50" relative="1" as="geometry">
            <mxPoint x="-200" y="300" as="sourcePoint" />
            <mxPoint x="-125" y="440" as="targetPoint" />
            <Array as="points">
              <mxPoint x="-130" y="386" />
            </Array>
          </mxGeometry>
        </mxCell>
        <mxCell id="NIIjqhKRe15nDF2A4hRN-45" value="块1" style="text;html=1;strokeColor=none;fillColor=none;align=center;verticalAlign=middle;whiteSpace=wrap;rounded=0;fontSize=15;fontStyle=1;fontFamily=黑体;" vertex="1" parent="1">
          <mxGeometry x="-235" y="680" width="60" height="30" as="geometry" />
        </mxCell>
        <mxCell id="NIIjqhKRe15nDF2A4hRN-49" value="" style="group" vertex="1" connectable="0" parent="1">
          <mxGeometry x="-265" y="320" width="120" height="35" as="geometry" />
        </mxCell>
        <mxCell id="0INgmSK9HUNSs3rKqE9F-32" value="" style="rounded=0;whiteSpace=wrap;html=1;" parent="NIIjqhKRe15nDF2A4hRN-49" vertex="1">
          <mxGeometry width="120" height="30" as="geometry" />
        </mxCell>
        <mxCell id="NIIjqhKRe15nDF2A4hRN-50" value="" style="shape=image;verticalLabelPosition=bottom;labelBackgroundColor=default;verticalAlign=top;aspect=fixed;imageAspect=0;image=data:image/png,iVBORw0KGgoAAAANSUhEUgAAAMQAAABSCAYAAAALmXs1AAASlElEQVR4Ae2dBcwlNReGNziEDZrg7k5wd3d3Fg3uIQTXYIu7u7tLkIXgLsFlcXd36J+n5Mye6Xakc+d+H/vf0+RmrFN527c95/R07gBnwRAwBDIEBmRndmIIGALOCGGdwBBQCBghFBh2aggYIawPGAIKASOEAsNODQEjhPUBQ0AhYIRQYNipIWCEsD5gCCgEjBAKDDs1BIwQ1gcMAYWAEUKBYaeGgBHC+oAhoBAwQigw7NQQMEJYHzAEFAJGCAWGnRoCRgjrA4aAQsAIocCwU0PACGF9wBBQCBghFBh22l0EfvnlF/f111+7H374oWsZkfa3337bOH0jRGPo7MUUBL777ju33XbbuQEDBrhddtkl5dXacX///Xef/qSTTuquv/56x3VqMEKkImbxkxH48ccf3cYbb+w764477ui+//775DTqvnDSSSf5fCDek08+6X766ae6r/p4jQhBBZmW9O/999/PXX/22WeOeG2Fn3/+2X3++ee5PD766KPctZSnrTxHhHT++OOPKAaCBUdw+vDDD328L7/80n3xxRdebEF8+eabb/x9RA1Emj///LPVatMhd999d99J1113XffJJ5+0mn4ssb333tvnN8YYY7g333zT/fPPP7Fo0XuNCHHJJZdkLISJRT+mxl9//TWaccpNGmnnnXcuzEfnv8MOO6QkPcLHvfbaa2vhojGS83HHHddNPfXUbq655nJLLbWU22CDDdy2227rzj77bIeI02kgjVNPPdWXb5ZZZnGvv/56p0nWep9BYr311vP5LrPMMu7jjz+u9R6RukoIgH/qqadqF6YoIqPY3HPP7RZffPHKxmdK7qXQCSGEGLHj/PPP744//njHzNw0nHbaaVl7HX300a3PPmXl+vTTT92CCy7o899qq638LFgWX541IgTTMFPf0KFD3d133+32228/N+200/rMZ5111gwEgD700EMlr8bHM844w6e500475dKecsop3ZFHHumuueYa98orrzjENESCXgqIObQFo++9997rzjnnHLfIIovkcKIdjj32WD84vffee77dXn75ZffAAw+4G2+80d1+++1e0Z1zzjmHe2+VVVZpNFu89tprboYZZvDpzTHHHMntgp7B77fffmvcnHfddVdWH8S2Okp2I0KEJaTQCy+8sM98++23zwpBQzBldaJL0ODLLrusG3nkkV2YNg3fTRNeWM8R5Vpkdj3y33nnnZXFR8Q56qij3AQTTJBrw0GDBiWRApkdcVnyh4wp4e+//85E5Kuuuirl1VxcxPWll17al2OyySZzr776au557KJ1QjBCCRByvO+++2J517rHKEY6K6+8cg5k7kGITshWqwAjYKQYIV588cXaNYnpiLRrnRGWTCDf6KOP7tsN/STV0oMOgD5DG2M+7SScfPLJWX9EkqnSaVsnBIxebrnlskJQKRqoifWCkUYa97zzzsvOSdMIUdxNBDPBiWOKKIlIvMQSS+TacMIJJ/QiVnGu/z6hM2PYkLxTZwdSQW9BhyGNTgmBRW2KKabwaSHCvfvuu6VVaJ0QV1xxhROZX0CZbbbZais1urSIQ7w7+eSTe/PgbrvtlgFN2jZDaLSGnXdKCEQWWTeQNuR4zDHHuL/++mtYRpEzzO+iOzA7NFlzwIgy/vjjt0IIiqhFbXTassG5dUJcd911vvNKhQRQpuHUcNlll3lQsBLQEGFDGyHiiIY40QYpMwSpxtLYcsstvetFPNd/72KylTbfd999HeRKDTqNTmcI8tbK9eyzz146OLdOiCuvvNJ3XhQxAYbjpptuWim/aeCYejfZZBOfxq233upZHTaSEUIjNuw8xKkJIfbcc89c+5EGCupXX301LKPgjIU+Ft+k3S+99NIgRvUlMv6qq66apdEGITDMTDLJJFmaWNaKQuuEYIYgYMoTYDhONNFE3txXVJDwPuZB3kGWpEKMNGFDGyFC1P69DnECf0zSKYFZWbcf5wxQZUYMyDLVVFNl77311lspWfq4oVGmDUKQMOZjqQ8r2UUGgq4RAstCaNc+4YQTagMkPikHHXSQfwe5L2zoFEKgoKOTfPDBB+65555zWL4Am+n0mWee8a4NEK9OQHyrcgeAwDpOlezdRLQoKmuIEx0hVWRaY401sg4kHemAAw4o1Qkeeuih7J1pppkmybpE/c8///zsfcmThUeexX5F9Y/dP/zww7O0WZUvsny1TghEJgkHHnhgVggqyFRYNsLIe3RMGD3mmGO6F154wd/uhBBYLZixNttss1x5BHQ5Mt1T/jLTHOVnNZxOh5LPMfZjEVFGNxRLLC/E32OPPfxPn3MPxQ+Ro43QKSEQV2NeARhLigLkP/PMMzN8V1hhBUc6VYEBiYGSTirtoI+47Ahmctx11139YmxV2vr5Y489lqVPvyoaIFonhIhMFIaRWFdu1FFHdY888oguZ/T80UcfdcRde+21M1AZIcKGrjNDsGioXQggJSAfccQR7pZbbnH77LPPcI1BPkXE5T756noVnYusCiGK4uj7/xVCIK7qcnG+0korlS7OgbO2AiJy1Qn0lzCvOtfMHCmBNmBxTtLW/VSn01VCABILalIIjiyOlJm9GGmIQ9yLL744K2tTQuBCoPPnXM9iZMCMhDig40GKmAilZwjiFJFjnXXWcRgDCDRG6HYiec0444xu9dVXd5tvvvl/YoagfuHMPs444zh8g8oCz/FKkHodcsghZdGzZwwaYAOWjPzMApIGR3nGc/mxCp5KCNpSr62QTyy0TohwqT1ck5hvvvm8WTZWGO7Reeadd16//qDdMpoSIlTuAZkGDwPT+9Zbb51rjDLQIS7E1u7N0pAbbrjhcKY9Otqiiy6apc8IOmTIkMxgEJank2s6jpRFjixQiRyOPsNPrlEwmZ1uu+02T055h+Niiy3mvUXLBjHKyvuYNOXdCy+8MLkKlCkkhIidyYkFL9C+yy+/fFY+BqCYXtc6IcKpiD0MWIsEKI7hCK3LfvXVV/u4e+21l77tO5+ekkmnjsiEE5vOm3NIEguPP/64G2200bL4iAmxWSJ8l86w/vrrZ++RBz5BGnD0mIknntjHocMWKXVh2k2uY4QQvUdGWbBkBxvkRV+L6QzEYeTXxoGi8mDFkvpR/zvuuKMoauH9bhKCOqy22mpZG3GOBBOGrhOCSoYmPJTbWEdjpGK9YqSRRnLoETo0nSGYccQvhoZChCuS1bnP9kPi8aOBeb9OeOmll9zMM8+cvYuDnBCPeolCT+fDNaKbIUYIqVPVcfrpp/cKPvpViuv3O++84x0wJf06umKIQTcJQV560GIwjdWv64SgIDfddFPWUQAMv5jYZhHs1nQk2BsSpikhyJ/RGHMr5Sjr4LgMzDPPPLmyMsPVDaecckruXbx06Sj777+/v49/PrvXuh1ihDj33HO93I0YyI9ZWs6Z1RGX8AbF+lJkoy8rN86DQgaODBCpoduE0IvFM800U9RTuk8IARPRCzRgWHnCqZi9DcQ5/fTTh8OyE0IMl5hzXn6GdLg8s6BEg2IHX2ihhXLlTBnN0XlkJpC6sgONc4jO3pG+CDFCtCWLF5X//vvvz+GGT1Nq6DYhtNMh7REbHPuEEAAjliPpKGj8WmmGNMixmMZiW/7aIASKISMgyizm1rXWWstvnxx77LFzjSll5JhCCOqJ8hqTxyF5TGZN7TR14vcHIUIpgNk2NTAzhWVvk8ihwh6brfuMEGwl1R2Nc614iQMW01rMotEJIXgX0QdShiIR5WBRCN2F9YnQjNqkYdm5pl0YGI2w7fdVCDsVdWyzY8Xqwcq/bl9E1NQQmyFCI01qmjp+OEPE9o33GSFg/4orrpgDDSsH9+mwIlpgZYqFpoQgfeR4bP26wdizga8+X6NAZEJ8Q9dogxDkqTemkC/u1HpGjNWxrXv9QYjnn38+hy/WvdQQI0SbRN5iiy2yMmIA6VdCAE6odDKKMnLTIdkfjR0be30sNCEEnRwyjDfeeBkQdE6c1GIjf4wQKUq1lBvrkrZWCRGPO+64RgqrpFv3GCNEmam7brpl8RhYpJ4cMWGnhjqEwK2GurDvpqivFOWrrY3oirG27bMZgkJSAC1KAByfKUG+5rxo9ZB3mxCC/OTLC9JY6A6M4LEQI4QQh4UdfjFxTqeFpYzFR/IbPHiw/8yL5D3KKKN4a46O343zGCHaHGljZQZrPfA0MSDUJYS0aYoHL4OjdlhEYugTs2vV6i4LRNJBOOIEJiuIDz/8cAxrf68JIYRoOr+y/d1FhEAZppPjil72oS3eF1s3ay9ch/uTF1hggWRX7EJQCh70ByFYw5luuumytmUETw0xQoQ6BEYOIURshC/Kk4GMviZ9gZVqBrgwtD5DlBGCzOWjAVIwOeJ0V+ZlmkoI0gpNoHzbKTT1akBiMxiiAISQr4pgRYoFZh1xIkQPEbMjDRF2UJQ7yNKtEOYHxt2eIdCPILu0Jyv1qSFGiJBYjOq0BSJ2kcdqLF/6w5JLLpmVD4xioRVCkJl0GL6RVBaw/esdUQLgWWedVfZasshEmULfJEbtMkLcfPPNGWBSLkQmCCF+OjGTMJ1etj3iCHfPPffk6oKsGxoU8PGqEr9yiSRc9AchwEgrrZA+NcQGj1D3gXjI/0gVIs7WyYc2kDakbYu2NHdMCCrx9ttvZx2JaSkmm+lCh6IMq4ZV9v6iGaLMciN7sqVzs/ZR5LaBYh/rSM8++6xX3mQLYjgq8R75yHO2Xsbq//TTTzvqKWXhyOpxN0Lo80VeVTN3p+VgoDnxxBOz+iGjNyF8uEno4IMPzhWND9JRn2222SaKcy6yuuAbrxp7tibEQiNC4NYMw1Aa5cOyOjMWphgteI57byirMcpq33Q6Ygge3/ahEfGeveGGG9zll1+e8xYlP2RWNqUwKxGHHwtEEui8op9I+cgrJBFkFDKwkV7icqRzsUaC05/I/0zjfIGCd8L0eYd66zqz3nLYYYflfJ2Ix9cO+bwOdQOnGFZSl6IjZQMnyiQ4aVlZ6rLmmms65HHw4cc7uoxF6afc1+IwuyVjA0NVegww2lsAf7I33njDv0Z5wZE6XXDBBVVJ5Z5romHYKVoXakSIUFEU0IuO4RI5nV/7lTz44IO5wnMBEYrSK7uP/7wERi3s43xoV7+DyEanveiiixx+++Inj5ULnYG9DDq+nNPpQvOiPNNHlD494+mdZDpeeE5HCH24pC5FRzp2mE6da/IKB4aiPOrepzNrz+aYeFmVFm3GAMGuNqkHbvOIu+I8CeHDPlWVrhafcbBEpI6FxoTgy9Gs+qJAyg+Q5ZwjX5amUrHCo3QyS9D5dOeRQrJAh0uFTk/Ow3zkPqNJ+GccAMwmIT6JEhJDAGfEYGoWRReTId8jled8X0hmFkx9AwcOjJaLcjAyMpNoG7nsCWGWIS8Iw4/46F7sPyYv3mtCiCKcSFuw0UdwwGLWNiGYEbSuxIzVJNBZmcViXgUYStgDnxLQb/Q3h2nLotCIEExdyOIAoH+IKPqajh7r7BQGnQCliPixQCXofDo9OQ/z4T6NC/F4LxYoM/nhx0QHZT2CTSzI9oxsEEcH4jJz4XKiLUtYQogvZeEIkeSaMoQDABYoykw6vMu5YANxOAdPIaQuR9U59cI6JvnrIyux+lrOyT9FIa0qg34OrjKQ4OXbNNA/wIU/PeEr5PxoiyblfuKJJ7IyMZCjFxaFRoQoSszuGwLMxvLpSETRJiRvG0W9PRjRSQ9wYV5GiBARu+4IAWZoxFOZJXB07M9AeRB5KQ9fkC9bmKWcRoj+bK3/07wxw4uJGc8ExLr+CqxjCDnRPxBZy4IRogwde9YIAQwDYh5lobKJo1+jjIOXsGbKpzXZpYkuURWMEFUI2fNGCPBxAhFVcH0P15kaJZr4EsrzWGON5WcILEuhsSOWnBEihord6xgBrHGs84i40tQE27QgzFJ8UYT8Mf/X/a9DI0RTxO29SgQwKcu2TTZkVcnvlQkmRNDmX1apQ7N6UVJGiCJk7H4rCLBuIK4kG220UZ+QQn9BHItX0dpUrIJGiBgqdq9VBNhfLS4d+IDpVfxWM3LOf9lE/qyH2Sk1LyNE2y1i6UURYCuvbBHAy5eV6LYDK/ay54EPStRRosMyGCFCROy6awjgSsJGpW7pEqx34OyI13DRNuGqyhkhqhCy5z2FgBGip5rbKluFgBGiCiF73lMIGCF6qrmtslUIGCGqELLnPYWAEaKnmtsqW4WAEaIKIXveUwgYIXqqua2yVQgYIaoQsuc9hYARoqea2ypbhYARogohe95TCBgheqq5rbJVCBghqhCy5z2FgBGip5rbKluFgBGiCiF73lMIGCF6qrmtslUI/A8v+z1BeqnW2wAAAABJRU5ErkJggg==;" vertex="1" parent="NIIjqhKRe15nDF2A4hRN-49">
          <mxGeometry x="30.12" y="2.5" width="59.76" height="25" as="geometry" />
        </mxCell>
        <mxCell id="NIIjqhKRe15nDF2A4hRN-48" value="" style="shape=image;verticalLabelPosition=bottom;labelBackgroundColor=default;verticalAlign=top;aspect=fixed;imageAspect=0;image=data:image/png,iVBORw0KGgoAAAANSUhEUgAAAN4AAABRCAYAAAC9gRi6AAAU6UlEQVR4Ae2dBYzsthaGr1TmVmVub9tbZuZWKjMzM6nMzO0tM4OqMjMz3FZlZmZmRj990fujM9mAk5ndSXZtKfLMJD62j/37gI8zg1xIgQOBA33OgUF9XmOoMHAgcMAF4IVJEDjQBQ4E4HWB6aHKwIEAvDAHAge6wIEAvC4wPVQZOBCAF+ZA4EAXOBCA1wWmhyoDBwLwwhwIHOgCBwLwusD0UGXgQABemAOBA13gQABeF5geqgwcCMALcyBwoAscCMDrAtNDlYEDAXhhDgQOdIEDAXhdYHqoMnAgAC/MgcCBLnAgAC+F6f/884/76aef3K+//ppyN/wUONA+BwLwEjz8999/3dFHH+0GDRrkdthhB/fnn38mnghfAwfa50AAXoKHSLl55pknAt7CCy/sfvvtt8QT4WvgQPscCMBL8PCee+6JQIfE22uvvRwSMKTAgU5zIAAvwdFjjz02Bt7ll1+euBu+Bg50hgMBeIaPf//9t1txxRVj4L388svmbmc//v777+766693DzzwgPvvv/86S7wh1P744w937bXXurvvvrshLe5cMwc88HCecP3888/uhx9+cDPPPHNs33333XeRZ7PTDhbq2WWXXaJ6tt9+e8cEHIjppZdeingwyiijuCuuuGJALUADGnhIuHXXXdfhRFlooYWinEmAfbfooou6RRZZJL7H9kInEqA79NBDozoWX3xx9/HHH3eCbGNpWNX+6aefHjCLUG2Ah1S55pprIvULFSzruvLKK1vu3XDDDU4X5a+++mr30EMPuffff79wEJE0gE4XQAN0XAIi9zbYYIOOeDfxkO67774R/ckmmyxqZ2MR06GGs2e60UYbRTwZf/zx3UcffVSa8q233hrNnQcffNANGzbMvfnmm+7TTz91X375pfvmm29aLswH5haLblFCIjOfNC8ffvjhaF599tln7quvvoquRx991N10001FpHrcrw3w3nvvvXjSa/K3k0844YRu5513ds8//3wuaP76669I1QQUmgBjjTWWe+aZZxz3dPXgXMkfGOjzzz8/7uNZZ51VkkL/ffzrr792c889d8SblVZayfHdN2EiHHDAATFffedMUR0syhtuuKEX3aWWWiqaJ75t5rnaAI9VS/aVL/N8nptoooncrrvu6r799ttcvgC8KaaYImL0EkssUSgtc4ml3Hz88cfd1FNPHdFfZZVVOk4/pcpG/XTnnXe60UYbLeLPVlttFdncPh1g3Oabbz4vgGi+8HyR6QDdNdZYw4vuIYccUto+rQ3wkAiA48cff4z4jWNDjFJ++OGHx44Qnvviiy+ii9Xr+++/d0jN6667zm2xxRZuvPHGaynPb6gHWemJJ56InweonfQ00q/tttsuoj/ccMM5FpmQenJgp512iscA2883YTcj+dhzffLJJyMzQXOGfMiQIZH3lDmCCloEOtWL5/m1115zxx13XNwu6CGVL7nkkkgyM0+rOMdqAzx1Vvlll13W0lk6fMcdd+h2bs4AAKSVV165hcbqq6+eKfkuuOCC+NkqOnteg7A97GreSVDn1du0e6j3I400UjQOqJ5FWkpa/wDBYostFo+lAAjoqqabb745pof5AtDbTbUFHlEjYhr5DDPMULrDSMJ11lmnhc5hhx3Ww+bDsYN6Qz2opkjSTiUMfJwz0B5nnHHcK6+80inS/ZLO+uuvH4/XSSedVDpyCGcNC6ydO3x+7rnnKvELIGvrB7o4azqRagk8HBpJaYWqWGU/7aqrrmoZhOmmmy7yelnmoc/zOwO0/PLLV1IdLD37GWmnVXzttde2t8LnFA6g1Qg0eJmrSKqtt946piFaeDKrpNtuu82NOOKI0aKJV7NTqZbAw36bfPLJW5h39tlnV+ozKxZbAxoA8j322KPFC6WNXO4dfPDBLfYdi0AVHZ7G4na2dgt2QUj5HIDfyy67bDxe5513Xn6BlLtHHnlkXF7jXoUO81Bt2W+//VrmTEq1pX6qJfDYSBXDlLcTvrXlllu20Jtzzjlb1Nbjjz8+vm/Dl7AVUTMALipM2fT222+7KaecMqI96aSTul9++aUsiQH5vN1UJ8gAJ0eZhINN80Z5GWcNdTH2J5xwQkSHYIoqkjevzbUEnjospiWBktehtHtDhw5tGYgJJpgg2lzlWdRX1EvV9eGHH8Ykbrzxxuj3c845p0UKxg/kfGDg8MKKLlsIwamSwzBzy54QIZLo3XffNXeLP77++usx38X/ffbZpxT/CcCYaaaZIjqYK51OtQMeQMAWEsPIcXxUse/ELCJbLD0+v/HGG9Ft6EoVxYGjU+c4ReaYY47IOaMtDtHzyaGz2mqrxfWymITkxwFsboIYNGbnnnuuX8H/P4WLf9xxx43LQ2fTTTf1VhWpXw4V7EW+dzrVDnhMcm1ki/HtRnlQXrSU33fffREvkULyaCIJ2eNhTwjnziyzzBJFvlRhOivmNNNME9croJehhWr6+eefu7vuusu98MILkZROC3WivXjbqJM9QsLqHnvssXhPNFknff7kk0+iCxc+kh2vH+pUGv1k+d7+TvsWWGCBmHc41sqo+oyhFlONNyqrL4DgB/utLMSYC72Ragc8JpiYpZzf2kkHHnhgD5owV4mBmn322aNn2E4gZnCFFVaIpaKeK5MzkdV+AF1274dVm5AltiBEZ95553Ws/gIH0poN42222cYRbTPqqKPGz1Jm1llndTil9DztB1ys5hx/Si5wnLw//fTTS9tUZfji+yyv3VC/Z5tttlgT8SmPTbjmmmvG5aGDs85n4xz+LLnkklHZU045pZR66tM2PVM74DHwYrgYVnbSqnPKN9lkkxaa0H3qqad0O8qpg9UftZQTA1XUS0vwwgsvjOuca665vFdbaNAWVCPaufTSS0cnKEYeeeTo+9hjj+3uvffeSCoTUSHwTDvttJGtStSNFhHKjznmmI5wLBL263rrrRfRQRVbcMEFoygfnAc20ueYY47xmqS2v53+jAeY9utCmvsmFhrrTRaNov1Zyu2///5RnezZ+QDVt03J52oFPFbwjTfeOGY2DFt11VXbsu9gJhNLzFeOq7+3EnXKRqA+1FZ+800nn3xy1F6kElsZXDPOOGPcB4ICcNZAG/AALNRNJdROpIT6SmwiqrUiOvbee+9oYcEBpMRmtZ4nR13tZuKAsG0Pnsoy6YgjjmgpDy1OreQl9lxZ2NAyip7No+Nzr1bAQ8rIkySm4xlsJzEhJ5lkkpZB4HtRdHo7daLqSGLRD+I0fRNOmeWWWy5qL6ezSdgm1uYRbwB31qpsI0B4XpIRD50FnNqVVPGRemnP6fneztk+Uj/JL7744lJV8rwtz+e8fVScaXr7QKf37NIaXivgvfjiiz2YReRAO4mzWckBwJZpV5XMaxO0JZGomzN4vknB2pzU0L4fi0Ty5AYSMAt0OCc222yzHv3GQ5eVcCJYPu22225Zj7b8Tl1oKiw25GWcIC2EEl9QC217MEHKpPvvv7+lPLRYTLKStpx6Y88urc5aAQ9HgGU2Ir9d+w4D2dLkM3YQERK9lfBEogKq3qOOOsqrKiaxIuGRZkrJs4rYe3mB3IAAZ4vqJ2drA2BkJe1ZqoxOgmQ9Dy2kJEHDSFfCu3bccUeHmoyaWDXaR/Uh5QnVUnvKboCnLbiWp6qHnH5wMJm6emPPztalz7UBHgOZtO84fpE3WdSJrBxw2b00DSKrYW8moupxRau+U0891as6+oozhXK8g0Tp0ksvjWlxjwkESLMS6jWeWdU/+uijO7SJvJQMszrzzDMzVU1AhfQQfbynxLrKAQRgeJdMO9FGLB4cZlYdBLeXUX0ZAxxLKk/OApGUyPSF139wn20l3y2HPF763KsN8JBseOYso3wlRVZH33rrrRZ3PLTnn3/+jof/JOtn0K2X8KKLLko+kvkdryqvE5AzhhwJbflS5PjAY2ufZw+rSALhxLJl8oKKH3nkkehZJrJO6rNosLXBqzJEB29uVScW7bWLF3aXeJLJPHMjzV/ASfEkH4hKor0sHK+++qqh0LsfawM8vG4aMOXYO+2k5CoOXV4TUGblrFL/Bx980NIX3tlRNSG97GbwGGOMUfiCpDPOOKOlfoCbl6jDSgfqYB8xLTGh2edClbbhdXqWfTC7nVE18gOAWHWdY2JlgIeTStqD5hOOO9nNtBe7VuAmXre354V4RF4b4B100EEtk4Wg4nbsO1QGO3Awn8OVVd7qxWBxooHBT6oqlpn6zKS1Eo89vaqJU/OaOORIrzz1m/Ylg8KLJCQv7rV1ELuKqpeWrANs8803dwS0J9OJJ57YQq9KAATAm3766WM67K+VAR48sp5l+ocqrDkFrW233TaiT7BElqMq2bdOfa8F8GCSDVSGScRr5k2wIgbYCHfoYXfIPV9U1t5ngPbcc89ogHyBx6qvlZS6cfBUTbzlChq6fKQXES56HumV9+YuVvlkgEGe9w8vs2iTs1+WTLxfxj6T58ZPltV3gE/Ej+igvZQBHv3SG91Eg1x2J6F1fGde+L7ZQG3rRF4L4LEKWWcADEH0V028J0OvWhDTkagKgC5Dl41UhWL5Ag91zNo6aZPTpw1MPhwp6gN5kfTCrh1hhBHiMkX2HW21MaXU8eyzz2Y2DzV6qqmmiunb0DsVIg7UtrlosVA5mzNWth8EmWdJYVvOfj7ttNNa2kGbsKHRYOAL34lwaWeBt/WV+VwL4BF5YQeKz2kqjE/HYCJGvaVH3F6WzZJHk8G3XlFf4FHOnqCnXJWE+mPtO+ywoqBdHDm271kudLUnuY2AA0IJqcF9JIK2X+Avb9VCjUf9ZuM5mXAu2TZUkSi8lMjSqBIon+wb9IjQke2PN7aK6ZHsb5XvtQBe0r4joFW6eJlOMSm0D6ZBI7wq7+1iWfSxlRgkHWSFni/waIdV37CF8tz/WW1I2nechk565WxZVDGdtFD/87yTPJ/0mGKfKbFYyUFhx4Ny2NBZEojTFKqfoPMq/E9G0rClUjYhudUO5UQR6cgRErFbqevAYyIpVEfMQVowecskJkLyAC0TPm1F9qGLSx711x4p8gUeILMqIoCRxPCpW88k7TsWqLyEd9JGuLCAYW9mJe7ZOFYCp20onaI/kG6++1uA0e7H4tW0nsSstiR/t4dhmRdVIpiSCxd0ZDfiUKnSrmQ7q37vOvBYSZOxlGVUM9QhVkdF3Qu86O52EpVhkFRMvINIDNH0BR512cO3gAGaZVKaNNIZwiw6VtLQZhxUeRIStdXaUQBGKjn1a/Fg89o32ZdLocoVqcZZdNnAF99ZENSurOfTfqdMcm5Bk7N2OrGRVq4vfus68DjiIgYrLwrbQQ1ktWJVZBPXnjYmKp9IkbyVPo+xSFpsABwOvHJA3i/aVgZ4xBrKwYNqU7Y92Hc6F0bduNatupfWh6TKXhRmZRcV6rD7jbxRC48ofHjnnXfSquvxG21mPKAFoAlUrqJiQ9huibC5X0U60R79uy9t0sU2AgtLN1OfAo8NV0CBXcFqSpxf8m1iMIdDkNzXxfME7aKfE95D9L51OlAGzyPGPpMkb5UvYjaucGJEOXCKNK0KPECCOqPBJqqjTEJNYuKrPP3OU7+ZSDYwm3JFR1tYHOxeGS9uBSi8swQes6DdcsstXs1GxWRhot6JJ544AnFV0MF36yDjzW9VgId6nNymYnO/Ww4Vy8g+BZ7CczSZ2s1RGQgGBsCoWdg47SQGivflc/JbjoOqwGOi2D/TyNsbS2szZ8Msf4qkF2oV4XAqQwhU0cFP1F/tUVKOo0d4cXU0i/23PLCr3YCebQ5oAOR2/2wTE2H44YeP++ILfrVHOXa1/ohGfKnLv/z2KfAYSBjBAGOwM1HI7ZX2m72vcngvkU4MkkAihlfJWWXxchGlrk1W6FQFHmWtOxsHkk/Ui9rO6QNNFl66hHs9LyHlrUcToNOnogTv0Ca04U9ANWPEFoAP6JBqaiug41SATdwvK/kAmvrOAlJVQlGv7FTooTl1Yq7Y/lX93KfAgxFMEDZtbc5nXbqn7wx+8kIy+UyqMkxhwgwePDjaQrC02wEeNiIOBgadk81lXl9AG1gAsGOLQKd+YtPgiUStLTPB4Cen1qmLhQw6vok+0j8CBpIaBxKViV/GWUa91lbFSUb7qiYWexZzrqrOtqp155XrU+DlNaSb95ikSAves5Ec5HaAx+KBR1CrN/uC/SnJXY+9nWaDcTKBfTzMAN8Ez6x9h9bQTkLdZEGosp3TTr1FZQc88JDC/DMRQc1ppyHaAR7Mx9mDugT4iAopo24WDV4377M/StAxgchZWyWoq/S7zHEb+8oGDteWkb7d5EfZugc88FCxOLXAFgKrIioezgJyLmtv4IjQM9zzSUgCvbmKSWhfEe9Tvo7PADpsQl6ahN0EX1Ank5e2Q4qcPOojPGVxkoZQ1iElOk3IBzTwkD5sQRApg4NBE8dOJH7XRGCi6d7uu+/u7TTAVuOYE3Q4VV/W2VCniYQNvtZaa8U8EW+ycl6ylFTfs/pjTz4QxJymvmaVbdrvAx541uuVNXnSfqecL4CYeEgG0anyzzV1mVjyYKovRTlOFx/7ikXQ/pdhldjMuvDIpx0DGngwCFDkXTZeEunHKqznfRisZ1Bp9XoFn//gVrm65QAPLQHJ73v52LUsRgIxARRJD2nd+NBuewY88IoYaGMuUUV9Vu8smkTuKIiZ18r72olZ9PrL7zhfdMaPPcS0V0r0l76qHwF44kRGblUrVvh2Yvwoi71HHCMewSon4jOa2dif2cqRJrDMMstUOkLUxM4H4KWMGp5MXhlO7CJgkwqEe5vvSEEA6Wvj2SoIltYpAujlvZbBluuPn1mIOFQLf4cMGVL58HMTeROAlzJq1hEi0CVznqkCPKpj34sIEyYbB03bkaIpzW/MT9Im2EIYNmxYY9rdiYYG4KVwkbNaHITFda6LIGR95j/Tb7/99srAo0rsO04w9HcnQgp7459YcHA6VTlrFxNp6IcAvIYOXGh2szkQgNfs8QutbygHAvAaOnCh2c3mQABes8cvtL6hHAjAa+jAhWY3mwMBeM0ev9D6hnIgAK+hAxea3WwOBOA1e/xC6xvKgQC8hg5caHazORCA1+zxC61vKAcC8Bo6cKHZzeZAAF6zxy+0vqEc+B/QIukc4i00kQAAAABJRU5ErkJggg==;" vertex="1" parent="1">
          <mxGeometry x="-244" y="682" width="68.52" height="25" as="geometry" />
        </mxCell>
        <mxCell id="NIIjqhKRe15nDF2A4hRN-53" value="" style="shape=image;verticalLabelPosition=bottom;labelBackgroundColor=default;verticalAlign=top;aspect=fixed;imageAspect=0;image=data:image/png,iVBORw0KGgoAAAANSUhEUgAAAVkAAABOCAYAAACKVmVMAAAcHklEQVR4Ae2dBdAdtdfGO4MXihUrri3uxYoUKAWKF3eKDdDi7lKKuw5OKVCcosWKM2ix4i7F3Z395rf/7yzn5t29N9nNXnlvMnMne1eyyZOcJ8nJydkuUQgBgYBAQCAgUBoCXUpLOSQcEAgIBAQCAlEg2dAIAgIBgYBAiQgEki0R3JB0QCAgEBAIJBvaQEAgIBAQKBGBQLIlghuSDggEBAICgWRDGwgIBAQCAiUiEEi2RHBD0gGBgEBAIJBsaAMBgYBAQKBEBALJlghuSDogEBAICASSDW0gIBAQCAiUiEAgWQPcP/74I/rxxx+jX375xbgS/gYEAgI+EUDWfvjhh04va4FkjVYzfPjwqEuXLtF+++0X/fvvv8bV8DcgEBDwhcCVV14Zy9q+++7rK8mmTMc7yX799dfRl19+Gf30009NWeBqmfr222+j5ZdfPq74Aw44IJBsNbDCtbog8Ndff0WffvppLFPIVdqP69zXSuGbb76pkLWsvHNftfJzjdGwTfjnn38iZByOqideXkmWzENOjASPOeYYm3I3zT1//vlnNHjw4Djv5D+QbPGq+f3336O///67eEJtnMJvv/0WLbPMMkm7pG2m/b777ruWQQk1wZAhQ5JyIGtZYY899kjuSys350aMGJH1eMX5sWPHRvPMM0/Uq1ev6J577onIRz2CN5IdP358dOSRR8aA7L333tGvv/5aj/x7ewcVpSsxkGwxaGnA66yzTuisisEYQbIyu1p22WXjY/7r39JLLx21EsleddVVHWQtC6a99torWm655SrKq8uOzN5www1Zj1ecR/330EMPRfPNN1+0wAILRKNHj64L0XohWSp42LBhCcEyxG+lwBRiqaWWirbbbruk8gPJFqtBSHbFFVeMSbZYSu39tCZZBjLMDtJ+rYLSe++9F80///wdZC0r/2ll5Ry4yGjYlmR5B2qCyy67LJZziPaBBx4ofbZVmGR//vnn6KyzzoozDXiA2EoBNQGE2rNnz+j6668PJOup8hCEQLLFwdQkiz62lQMd7/bbbx+PJE1Zcy0Xo1JmzC4jWXkH+Rg0aFDCWU899ZRcKiUuRLLo284+++yEmBjNolxupXDfffdFE088cXTppZdGt99+e1KWMJItVouBZIvhJ093JpK98MILY/liJHnbbbdVyJqU1zYuQrK848MPP4wWXHDBOA8bbbRRVObsuxDJPv/889EMM8wQZ5TpdqtZFHz//ffRWmutFW211VaxbiaQrG0Tr31fINnaGNnc0VlI9qWXXopmn332aMstt4yYPTaaZMH+tNNOS4j+qKOOilUQNnXiek9ukoVQRSfCkP3MM890fXdyP6PftB/6k7TzWeeSBC0OSPu4446L5phjjuiNN96In2hmkjXLrLFhRsF1l2D7TF5bYdpHnz59Wk4na+Js/te4cw189M+lDmzu9U2yZnnkv1kuOZ8V2+Rd7oFUt91221jW3nzzzfh0M5Asqs7evXvHRNu1a9fojjvukCx7jXOT7COPPBJNNdVUcQZXWmml3NYELJoxNUe/UvR30EEHxT0kQ3/0LtWC5B91h4RmJFka6JgxY2pic+KJJ0bvvPOOFKVqfPnll8fmahrvffbZJ36HxHJt6NCh8UJL1QRTLrbiSPbVV1+NMBmSsueNDz744Oicc86JRo0aFbFYVST4JFnkYv/99y9cPlb8KSNESZq00WpBNh1oWWsGkiXPF1xwQTKaZQ2B3Z6+Qy6SZZq96667JplDx5I3PP7440k62oSqyPFMM80UT0tYKKAnNgNbZjEv2njjjSsIpBlJlrwi7DZ4sABpEyBSm/S4hyleHn1Vq5Es7cQFF1v8+vfvH51xxhm5hdcnyT722GPW9W5bPpG1r776KnXzzhdffBEttthisazpgU+zkCyj2VVXXTXBBb2x75CLZO+9995o0kknjTOGDVseIZSCQNh77rln3DMOHDgwWmGFFZICS0VTkeYIS48ydtxxx6hv374dnuN5RoEIvASmyagJevToET333HNyOo6bkWSZio4cOTIZfYDDhhtumFpWOg6Esla49tpr4/SYgUw//fQd0pptttnihrf77rvH76YhuoZWJFlWvBml7bDDDhHkOMUUU3TAZokllojWX3/9iFmTtEFpm8TIg7RbHa+xxhrWMw2NtU+SZdZI+XbbbbeoiKxpUtJlxBxKj2pRQfA+5JeNADo0C8mSJ223u+6663pfW3ImWXRtmGEIuCiMiwZGEfR4hM8//zxJW95x+umnx/ZtEI7WEen/bH7AUgAzMnmOeLLJJotQukt49NFHYzXHySef3KHnbUaSJd9a50f52U1H2TbddNMOZaUMtQJYiQMcpkfzzjtvks6xxx4bj7rojOS9Znq0AYi32o+OF50sRFTtPrmGQDZD0GU+77zzElykTT3zzDNxNuU+6gNiAS9+YAOhMCIaMGBAxfPs3Hr22WediumTZHkx+SXvhJdffrkif5TRRtaoMwZaabL2yiuvJOVDx0map5xySnJODpqJZNmpOssssyRYPPjgg5JNL7EzydJIpMFNPvnk0YsvvuglI5IINmuSPvEkk0wSvfbaa3K5ZqyJUtLBgoDGD7HQ8Ndbb72K0a0kqp9tVhMuBLpfv34xRrIBRMpJvNNOOznty0bghAzYsaendIKLjhEwsTHU7y16bKvq0Hkp8xjCZCVclwudnc1MQfLFgEGwlXQWWWSRiKm1bfBNsvq9Wh9J/pA1WQTW92Udo3OWckm85pprJp0qs0tkLa1NNRPJ0vHoAQszkrQ8Z+FQ67wTyTLakI0HgMqUSkZEtV5ke11GaVJpVJTLO1A/6JEZ6XTr1i1egGCUNs0008S9MPfhWIIGT8zvuuuuSxoNQHMPvzKU4bZ4mPeRF1HVvP322xFbKgUrYsr+wQcfmI9l/gdbwYuGXyvQBtDtcW+130033RSPZPFmVu0+ueZSx7Xy6OM6nfKiiy5agS2LRq6B1XS2ceo6Ovzww607wjJJduedd67I1yqrrOLUiXz22WexjbkuG7L2ySefRMxwkTVmlyJrjBhF1lCByXPMdjiPOgPcbQKDA54jDZcdX1lp61kLI/QiKlDzHU4kC1joqwQcFr98BnoPU7dKw5bpjc27GOnpPEpeb7755mQPuJyzjanMZgnokck3jZn6OOKII5L6kPKkTc+y8k9jYgQz88wzx96Jsu5zPd9qOlmzfHS+gqfEeU18tACT1pxzzhm99dZb5itT/5dFsjpdKR+zN5dAGmZHRFrIWtrairynWmwra75Jlhm5zhejdF/BiWRxKzb33HMnmWHV1GcgfezVdGFvueUWp1dAsiwy6DQ4ZuMEjejAAw/M/DHqkucgd7mXRY5mCWJAjQqETgm92owzzpjkm/yvttpq1qNv9E88g8Lf52iy1UkWopC2QMziDT4u8gTWG+jEdHq2PlQ1GfrcVsuoUeeHY1diQbc/66yzdkgHWdPyI3KkY67L++Ve5NNW1nyTLGXROmZUZ3CJj+BEsnfffXcCDADh0cZn0NN1qQCmHi6B7XJivytp4LWHqU2tQCOQZ5pRJ0ulb7DBBnEeWaAgcA49rORb4rvuuqtWceMZAva1PMMUFt2Ur9DKJIs+FmEXLInRLUJ4eQJ1hCWHTm+zzTaz0vuVRbJmJ0Le0CG7BHP0RxpYV8gidrW0kC/Bg2PX4JtkSW+TTTZJ8sSgAxWGj2BNslQ2pk8CDLFvXSWmXDp9vOTQw7gEfBDoNDhGv4rQ1wrNTrLgPe2008bl03rXO++8s0OZ0bfVIgVGrrK4g27UZ2hlkkUvKIuL0paOPvro3PAgwNrDG2muvPLKVvrHskhW9JlSPmStVnsxAbjkkks6tDvStRkBNhvJUjaZJYLJlFNO6dzpmPjIf2uSRf+3+uqrJ6CiNnCtFHlpWszU17Qx3HrrrZ30sfQ85vSFPFdbzYUMECpWzc0pDOcotw1Bp5XJ9znRx2JuQr4kQJZrr712Ujc0EnxKvP7663JLaow+FifGeTccpCb6/ydbmWTZOYeQCQER33///dWKW/OaucgE7kzZa4UySFanKWXcZpttamWl4jrtz5Q1VuhZ3MoKImvImyZZ5I427CJrvkey5BmzNMGD+NZbb80qitN5a5JFH6QzAHn5nF4C8EQTTVTxjvPPP9+6MBCiTKV1PqupNKgoRrko6bU+Rp7HGJ1rtvoz68zmvFF6WhqzaWIiHo4k78Ss8DL1zQqsynKfb30s72tlkjVHaMwe8upjwYJ2hqcnXTcsNtqsYGtC9KWThdzxPKfz47LTCZI0ZW3hhReuutkCrhBZw1+IfjfHImusi9iEMkgWU1GdL8jfB8dZk6ypf6Fn9hnMXoRNBNqwudq7aDT0xBogRnasBlMZWYFrVCrOK7RSnl5W/kNothWf9R4f55mCic4ozaaUTgobTI0B5l1Z5EDZ2dHF/ehjq+GUJ/+tSrKYqLGDUONYRB8LdnSIqAd0mt27d8+sG413GSTLFwF0XpA1/DbYBNqTKWvMOM0dXWZakBVyxLMiW2bMTkaIzSbQXkXl4cOEi3fCIxNMMEGCDWs54F80WJMs38TRFXPSSScVfXfF8+i8dPosFKCDZCTGj4YqxwgCvSl6SUZ32lwEkxI8grEAZhMkTRqB/DgnxxLbpFXmPWDBdlcwSjMYp9EdeuihFRhyb5ZfCfBjTzn3+NbHgkOrkiy4MCrTbfH4448vVLWkCanqNBdaaKEKlU/WC8ogWWY4Oi9ssmAmKLKQJmtPPvlkvHPLlDXM02xlDblNky2RMWLbzr4MkqWe9M4v6sjHupMVyVIgvb+XCsLY3FegUhkt6Ipnik5PxRSDH3ug5Ziek+8dyf1M5xiN4u2HKZWP3sdX2XylIzvh+Agco9a0gDkXBuCCCzGjAxqPGSS9ueaay2raaj5f6z8ki0DajkxqpVev62zB1vhx/MQTTxR6PQRlpom6La1ezBf5JlnSM2VN5EpiLWssjGpVGrLGaBRZY62Dem5EKINkWWTHL7bUFTrnrJmgS5mtSJYeSH8BgUwwvfcVzL3DUkibGFJBNcBuLtwX2jRcX/muZzrYJIMHW1rplNIC581VbJ7BcYcZzj333Dg9nJ24WnCYaaX9Rwggl1arD2ZBut35EDS9S1LShryy6lHj6ZtkIUY9WpP82MRLLrlkvP0UWWOtg9Fvo0IZJEt9aOc36ImrLZrblt2KZHm5OZ3HRaGvgNMNs5JRQjMq1b933303+T9u3LiY+CEJ/SzuC7GJpRI6S0Afu8UWW8TlvOiii6oWi6m/xoNjdubpEQfTMvE/UIY+tmoGm/gig4nNN9+8Aj8WrIraS5o6TOqEWZpN8E2yMoORNsIo9cYbb0zkSuSNb/XJMc8wyDIXu5hRsoGoEaEMkqX+8WQn2BAX9QcMNlYkS0UPHjy44uXas1VRkNHv6oKx7dC2lyRvsuqu03jhhRe87mAqWsYiz6MXwuSH8oln+az0mN7o3phncGeoFzYwl8EjFNdsvHZlvauznWfUbfoZKGIfCz60Y3NBkoUmRvk2wTfJyuYTkRU2RdjOZGg3p556aoWskg4bhnQnblOuoveUQbIMPrSjGMrGYK5osCJZKkFGUlI5jCp9BEbJZg+JK0UKbBsQDjGql/yhQvAx1LfNQ5n3iWkJCzI2o6q06ekhhxySYEoHiQkRjmFszIjKLFszpY0/AWk/ErPLsUhgi6mkJTEjQFs1ik+SJS1T1tg+6jLro8M3ZQ1fIfVuR2WQLGlqN67UF86QigYrkqUHM3fA2GxTtckcizjTTTddRUPk8yiuIW2ajN7Rhaxd31mv+1ERUOFsn7XR49G5mCMyvswpxu9XXHFFnB5TYdtRTL3K2sj3CC5ChpjzFF34wFmPpCcxzsFtg0+SpSymrOHA3TWkuThE1lzI2vWd5v1lkayYNUpd5XUKpPPbcJI191AzlUIf5BrSRiGQkq3awfV99bofPZH4Jrj44outXkvHIjaE0liIMbfhGqvI/MeDVz0FwyrzDboJnE2VGHbGkFzewGhV75IEcxz7uBC3T5LFIki3B45d/RWABSaEZjq00Xp22PUiWRsfILXahxXJAp65IOBLXSACL5WGT0vbqZQuHLpKSUNiTIhk9KbvbaVjpmeLL754XDb0zLYBs6MJJ5ywAhMcKrOYIVtwgz72PzTBWduA0oYgjiIBAZW2SMwuK1dPVz5J1ux4MVdiluoa0lQgYAeG9QplkaypLpAvYRQplxXJotQ2h9E+Fr5Il10VuiHSEPKMHnCJqNPhmC+P1rN3LVIRWc+yYEVZcJVno4+VdMDW3MpJOng6w4SHVWWXEZWk21njjz76qEP7wdlQ3sBAwWzb7HhyHUD4IlnkwMwPO9sYwbsGMf/T8gY/1HPxqwySZZZnLny9//77rvB0uN+KZDEhMp1D+zDhYqeIriiOR4wY0SGTNidMD2Gkhe+DVp8Oiz4WH7k23o00VuYGEjARQ3QaU6t3QLqsRY/TsKplyZH1ToTVXCjGxtTVbSfp+yJZyMKUtVrmgGnlQ57MhS/SdfF9kJau67kySNY04fLlicuKZGk0+C/VleRjM4K50ED6efSxjPBoxDp/HPv+/phrQyh6P5Uu05c8TmqYvqXhAjZFTZOKlq2Zngdnc6bGluM8MyrKZRI2C2h5FnNJyxfJsr3alA9t1mdbHywEyeePdHrsNqxnKINkzc0IWN+gXisarEiWl7CNToPqY1vtLrvsUpEme4Vdp1OM7kyzFPKJPZ/NSnxRAHkeMkNfSt7zCmZaPkiPba+UJ+8XNDHR0fUmx62ojwXnp59+OjYQ91m3aZ0RU+k8AadGgjHx1FNPHctOnmk57/dFsqarRT5t7qqPRR2gt9hKObGgcJ1l5cFWP1MGyYK13laL61UfKjVrkjW/ilDUQQwVZnomctURIWiYoEhlSzx06NC6LXhhH8iOKt7NZ2BYwXfRneqGYx7LlyJwqAwR5AnY2Iqjb8GHzsxH48mTn7zP0Imxm09wPuGEE5w75Kx3sx1bsJH46quvzro99Txt0fz6K1ty2U1VhIB8kCxqIRaUpWzE6IeZodoG5JXZlE6DY9R0Wb40bNPOc18ZJMugRm859vV1BGuSNVcUi7o6ZNWfnUi60lwWGiAdyFQ/zzGNqV6bEGh4TAPNPJCvIoJFo+N5cWxMj5p3hMwIytzWib4wb3p5BKLoM5jhmSvjYM4U2IUosvJhbhnnU/e2nRD1xBRa3FBKW2CXF57r8DpVJPggWcpiytqYMWOss4VvEdO6SGSt3psQJNNlkCydhXZ1iB8QH+sW1iSLPZ00IGJXp900FqYnVDgVk7YVFr0OAsV9FA4i5Tn5Qcx8Bhslu9moyRMjymqe2aWCfMWUI01VwUf3XIleykjZH3744Q6NGntiwYV7XQKfZdZ1RyfQSoFvRoGpLgPHLAa62kHTMSJMtC3wxF2muQ0ZD29YG0hbpM2KKoh2iZ6OnUA47TG/3YWdN2aJH3/8sReIqWuxCrDVD/IMZcuSNRZ0KLeUjzJxLG2QmNkYOlvkVHu8kzpA1hpFsABbBsnKzkopI/WYV82jK9+aZGmUehGFz8/QYG0CxMdeeUZk/KTRSGEk5jz2dvw4lns5lmtyr47REzEKtm2ENnm2uYeGKT4AdH44djFxYzSGe7k+ffp0+OyJpIuNZY8ePWJfp3wLzUUniRCxlVPSKrpV1AYbn/cg8JJ3HbuaoSGYLLYOGDAgaU+0K52mHEt7020Rv6t6Oin3SoyzIhaEwdtXcCVZBkOQIrJD7FI+7tU/KZeOwZwZRL1lzcSzDJI1PxxQ98/PINSmTgbitQmiW9SVVfSY3TioLLB6wDzFR49jUxbzHqZdCK1ZHkaPtgGhTBstmGnKfwjZdRpKg+F5prGMcFop0AmRfxPnbt26OQk7ozsXnAXvajGjYNQNfMySTtd3cCVZ09lStbzbXtOyxggYgmt0KINk9ewaF6q+XAdYj2QBdfjw4RVkUu37WboS2PnCfm0fP1bFIVWmKghNMwRUA5iL4RJOTIFcHEtAIqyajxw5Ml7IYzFPfiycyA/8OJ9nFxvTV54nXz5HWvXCn04UnFkAAydw7tq1q5Naho6JTSs8L23xmmuuSY7lHBjLscR84kT/qBNUCowcy+zgXUmWNih5zooZ9GRd0+fRNYusNVub8U2ypCcLq3Q+qCPzyFmaPDiRLPpQTFKkB0QnFcJ/CCBsjGyY2vPF0xDKQQDiAWc+x+NL91lOToun6kqyxd/YGin4Jlk6EW2ehgko2PsITiSLbkx2DEG0KL9D+A8BRtd0QkzJ67kA918O2uOI0SM449PBl7lcsyIXSDa9ZnyTrPmh2Lx26Wm5dSJZRmrDhg1LRrL9+/dvyalnGhA+zomXIxyL+OoFfeSrs6WhcXbVTbcaFoFk02vMN8myBV9m6Czwu1oHpefyf2edSJZH9OcrsCd0WUWvlpFWv4ZeVRyyoNMLoRwEIJ2BAwfGAoF+tbOHQLLpNeyTZJFd7RiGBXWfOmhnkmUFVTu/CHvg/9cIWEChJ+ST5K22ep/ejJvzLA6EwBlVga11S3OWxC5XgWTTcfJJsqj5xDQP96CjR49Of2nOs84ky3u0W0FMYhpplJyz3F4f42NyYpQeFgO9QluR2NixYyMct0Cy2Lu2Qwgkm17LPkmWLdSiKkDV51vPn4tkGUHonU55PQylw9daZxnZH3bYYXElYcdZhq1kayFSTm5pczgdRxjYYutzOldOjv2kGkg2HUdfJIu89u3bN25XfALcZbtxes46ns1FsiQj02MaPaM4291fHbPQ2mdQDeBwhU8J5/EX2tqlr1/u8V/Md8uwbmn0bqP6ldqfF6565rke7/JFsmzRl1Estte+R7FgkZtk6QHYOy4ZZOdVuwaINoxgy699zOLaZQQraIaRrCBRGfsgWTYz9e7dO+aw7t27W3+mvTIntf/lJlmS1rrZvN8Lqp3FcEdAoH0RCCSbXvc+SFZvo8UfCFiXEQqRLHaz2gUdPj5DCAgEBPwhEEg2HcuiJMunr/DTzEy8X79+paqgCpEsxceyQJxu9OrVK97rnA5LOBsQCAi4IhBINh2xIiSLs6tBgwbFBIu6AF/ZZYbCJEvm0JWJbpaRbbubdJVZYSHt9kJAk+z48eNjF5eQhPnrrKiY5ZT/LLQPGTIk5h0c97gE+d5Zz549I76KwWaEMoMXkiWDbENjzz5k204mNmVWTkg7IKBJFt/F2t+rHDMa8+UxqtkQx62n6Vdayk0M37iQ7Lhx42JHMHwpAveZ9bCK8kayVA4ekTBlouB4sQkhIBAQKIYAJJvlGF5mj8SdlWQHDx4c84kuq3nMLkCbAJZYRLGri2f4X4/glWTJMCNarA74amcIAYGAQDEE+IYYDnGQqawf14t+U65YLst7Gv/R1crPNfxV2wScCeGPeNSoUXXFyzvJ2hQ23BMQCAgEBNoFgUCy7VLToZwBgYBAQxAIJNsQ2MNLAwIBgXZBIJBsu9R0KGdAICDQEAQCyTYE9vDSgEBAoF0QCCTbLjUdyhkQCAg0BIFAsg2BPbw0IBAQaBcEAsm2S02HcgYEAgINQSCQbENgDy8NCAQE2gWB/wPslnMdajx+YAAAAABJRU5ErkJggg==;" vertex="1" parent="1">
          <mxGeometry x="188.04" y="817.5" width="110.58" height="25" as="geometry" />
        </mxCell>
        <mxCell id="NIIjqhKRe15nDF2A4hRN-61" value="" style="group" vertex="1" connectable="0" parent="1">
          <mxGeometry x="1458.75" y="673" width="192.5" height="35" as="geometry" />
        </mxCell>
        <mxCell id="NIIjqhKRe15nDF2A4hRN-51" value="" style="rounded=1;whiteSpace=wrap;html=1;arcSize=50;" vertex="1" parent="NIIjqhKRe15nDF2A4hRN-61">
          <mxGeometry width="192.5" height="35" as="geometry" />
        </mxCell>
        <mxCell id="NIIjqhKRe15nDF2A4hRN-52" value="" style="ellipse;whiteSpace=wrap;html=1;aspect=fixed;fillColor=#49516F;strokeColor=none;" vertex="1" parent="NIIjqhKRe15nDF2A4hRN-61">
          <mxGeometry x="11.666666666666668" width="35" height="35" as="geometry" />
        </mxCell>
        <mxCell id="NIIjqhKRe15nDF2A4hRN-55" value="" style="ellipse;whiteSpace=wrap;html=1;aspect=fixed;fillColor=#49516F;strokeColor=none;" vertex="1" parent="NIIjqhKRe15nDF2A4hRN-61">
          <mxGeometry x="58.333333333333336" width="35" height="35" as="geometry" />
        </mxCell>
        <mxCell id="NIIjqhKRe15nDF2A4hRN-56" value="" style="ellipse;whiteSpace=wrap;html=1;aspect=fixed;fillColor=#49516F;strokeColor=none;" vertex="1" parent="NIIjqhKRe15nDF2A4hRN-61">
          <mxGeometry x="145.83333333333334" width="35" height="35" as="geometry" />
        </mxCell>
        <mxCell id="NIIjqhKRe15nDF2A4hRN-58" value="" style="endArrow=none;dashed=1;html=1;dashPattern=1 3;strokeWidth=2;rounded=0;" edge="1" parent="NIIjqhKRe15nDF2A4hRN-61">
          <mxGeometry width="50" height="50" relative="1" as="geometry">
            <mxPoint x="105" y="17.190833333333334" as="sourcePoint" />
            <mxPoint x="140" y="17.190833333333334" as="targetPoint" />
          </mxGeometry>
        </mxCell>
        <mxCell id="NIIjqhKRe15nDF2A4hRN-62" value="" style="edgeStyle=orthogonalEdgeStyle;rounded=0;orthogonalLoop=1;jettySize=auto;html=1;" edge="1" parent="1" source="NIIjqhKRe15nDF2A4hRN-51" target="0INgmSK9HUNSs3rKqE9F-12">
          <mxGeometry relative="1" as="geometry" />
        </mxCell>
        <mxCell id="NIIjqhKRe15nDF2A4hRN-70" value="" style="group" vertex="1" connectable="0" parent="1">
          <mxGeometry x="1120" y="400" width="192.5" height="35" as="geometry" />
        </mxCell>
        <mxCell id="NIIjqhKRe15nDF2A4hRN-71" value="" style="rounded=1;whiteSpace=wrap;html=1;arcSize=50;" vertex="1" parent="NIIjqhKRe15nDF2A4hRN-70">
          <mxGeometry width="192.5" height="35" as="geometry" />
        </mxCell>
        <mxCell id="NIIjqhKRe15nDF2A4hRN-72" value="" style="ellipse;whiteSpace=wrap;html=1;aspect=fixed;fillColor=#49516F;strokeColor=none;" vertex="1" parent="NIIjqhKRe15nDF2A4hRN-70">
          <mxGeometry x="11.666666666666668" width="35" height="35" as="geometry" />
        </mxCell>
        <mxCell id="NIIjqhKRe15nDF2A4hRN-73" value="" style="ellipse;whiteSpace=wrap;html=1;aspect=fixed;fillColor=#49516F;strokeColor=none;" vertex="1" parent="NIIjqhKRe15nDF2A4hRN-70">
          <mxGeometry x="58.333333333333336" width="35" height="35" as="geometry" />
        </mxCell>
        <mxCell id="NIIjqhKRe15nDF2A4hRN-74" value="" style="ellipse;whiteSpace=wrap;html=1;aspect=fixed;fillColor=#49516F;strokeColor=none;" vertex="1" parent="NIIjqhKRe15nDF2A4hRN-70">
          <mxGeometry x="145.83333333333334" width="35" height="35" as="geometry" />
        </mxCell>
        <mxCell id="NIIjqhKRe15nDF2A4hRN-75" value="" style="endArrow=none;dashed=1;html=1;dashPattern=1 3;strokeWidth=2;rounded=0;" edge="1" parent="NIIjqhKRe15nDF2A4hRN-70">
          <mxGeometry width="50" height="50" relative="1" as="geometry">
            <mxPoint x="105" y="17.190833333333334" as="sourcePoint" />
            <mxPoint x="140" y="17.190833333333334" as="targetPoint" />
          </mxGeometry>
        </mxCell>
        <mxCell id="NIIjqhKRe15nDF2A4hRN-76" value="" style="endArrow=classic;html=1;rounded=0;entryX=0.519;entryY=1.008;entryDx=0;entryDy=0;entryPerimeter=0;" edge="1" parent="1" source="NIIjqhKRe15nDF2A4hRN-130" target="NIIjqhKRe15nDF2A4hRN-71">
          <mxGeometry width="50" height="50" relative="1" as="geometry">
            <mxPoint x="1223.75" y="835" as="sourcePoint" />
            <mxPoint x="1220" y="440" as="targetPoint" />
          </mxGeometry>
        </mxCell>
        <mxCell id="NIIjqhKRe15nDF2A4hRN-81" value="" style="group" vertex="1" connectable="0" parent="1">
          <mxGeometry x="84.67" y="321" width="331.33" height="190" as="geometry" />
        </mxCell>
        <mxCell id="0INgmSK9HUNSs3rKqE9F-34" value="" style="shape=image;verticalLabelPosition=bottom;labelBackgroundColor=default;verticalAlign=top;aspect=fixed;imageAspect=0;image=data:image/png,iVBORw0KGgoAAAANSUhEUgAAAIAAAACACAYAAADDPmHLAAAAAXNSR0IArs4c6QAAIABJREFUeF7tfXmAHFW1/ndu9yRhEY08UeICiv5wYTGggD7fExdgqhOSqY6JCi4oAhLIVIdNFIxh8SGYZaoDAcEFUVEYpmuSkK5ORMxPDQ+eAgIugOsDGRaVgBAmyUzXeXOqq2qqq6u7q2cmyWSpf5LpuvfWveeeunXvOd/5DmH3tUtLgHbp0e8ePHYrwC6uBLsVYLcC7OIS2MWHv3sF2K0Au7gEdvHh714BdivAriUBbfa8V3FZZRVjKjMOBNFTIH6oPFAurF119V92LWlg1zkGHn/i2W9MpVP/BeBj9SaZgZ+mmM9f3Zu/d1dRhF3iE6B15DQQ/wjAPokmlmmu3dt1baKyO3ihnV4BtOy8Y8DqZwDaWpkrIpxcLJg3t1JnRyy7UyvAsaecMmmP51/+RwCvHcHkbGor48CVK82nR1B3h6myUytApqPTYKKuUczGTbZlfnoU9cd91Z1aAbQO424Qjo6ZhQdZ4YJNamD9xIGJb0+Rs4CBabGzRbzALuQvG/czOcIO7rQKkOmYbzA5sW9/2Um9Ye2KJY+HZabpub8CfECcHAn0gEO8oFQwV45QzuO22k6nAJo+7/0EuoxB/1FH6r+0LfOo6L2MblzHwBlNZuomovSCYmHx/47bGW2xYzuNAmjavH1okrqMgc4mMrjXtsx31ShAh3ENE+Y2lx89T8ClRatrSfOy47/ETqEAmWzuFIAvYcYbEonccd5hr1j2O7/stGlnTnYmTHgQwOsS1QdAhLschxeUevM/SVpnPJbboRVgun7O4WWULwcwvUXh/p0YZzqgfyLFE5WDLgbeWtMGYRMYk5q0fV16MP3lVasW/6PFPoyL4jusAmgdnZcy0YVUbeAZaNXg02QWxHoYZzp+BMDBfl0iPAbmK4pW/rpxMastdGKHU4D2bKdOoC+DMbVqnIQ/gvHmyNhlmf8XgGNakIlf9KmJTG/brPhHYJwQrk/Aw8wogZCrapexhokuKVld/z2C522XKjuMArR35A5UxLLJ+0REUusAPAbgU1EJEtGniGi9w86DYOzVioQdpY5b07P0jvaO3LFE/NOYujeB6UcAG6AqBSmD0ZUu9y9Yter6l1p55vYou0MogNZhnAvi8wB6TUhIzwCcZ8bdRHRHjPCesC3T3dS1z+rMkEO3ANg7oZBPty3zBr+spht3AXhP7R6B5u+demLZC4NTOgl0IcD7hcr8hoiuKha6vpfwmdul2LhWAE3PfRDgLwH4UGSpvTlFqaswMLih3EbhM7m8cXu6ZRnz7F7zar+e6w5OpS4H4aS6kmaskYks9nb9OlxGmznvRCjlG4F+D+Bt/n1m+kCpt2udNnPe20mpzqgtgUG3QvFXSz2mnDLG3TUuFaByLJv4FXd5rf743i/Lq22ZNwELVUbf8CIDe3hFxOP3n97//2Vb5svjpD1jhvHqwRR9hAmHweEDSOFJBj1AGLCKhWvqGng03XgIwCEV3aJbCTzHb7+cLr9pbXcFTNKu57IK+AKDh41NzBsYMEu9+UvGmwaMOwVozxqnEmM+gHeEhLWZgbyzse2StWsXbZTfNd34BYB/98o84e3+vSWYLratrq+OpbAzWeMkZvzAa/OXQ8YgxcCR3t/9e6cnv6K7e+EW+fvY2XP33rM8YR4zXwogHerHegVastrqKoxl30bT1rhRgBOyuSOInS8QKHizvIHdrhy+YvWKvHyH3SujG2bY4kdMX2JiQfvIVd473Texu7u7PBrBxNUN+wsEL8DMywFyVxom3FUqmL5CutWndXQeyURfYGB2pL0bnPLAVWtWLhdX9Xa9xoECLFRa9rmLwO5yv29IGn8G06IoMqdd7/w0gW4cLkenevuEg9yJAL5esswLtoZUM3rn5xnkI4XuZMWLyaHV/rOIsbzYa54Vfbam504G8cLIMfWvIDLtQtdo3NWjHuZ2VYBpei7rVL7z/rfbHRAD33CwecFa67pnwiPUsrl/B7Ms/f71X2A8CcIy/wcnrfZd07302VFLpk4DWkfns0MTN9m9rdQMMB8I5nygBESnFQtd36xRAgGjDqrzCTi/6h6jyIx8aYW5Zmv1uVG720UBtI55B0Gpc8E4M9w5Av8coMuKlvnjaKcz2bMOYE7/1f+dwbeWrPxHNd24H8A7K5rD19u9+WYevVHJuV03ZBKvqigqrShZXR3tumFSyAnlOM5xa1Ysizuaol3vfJ9ifIWJPjw8FgwQyHQIS9YUup4cVQdbrDxiBRADiSLnrczYhxU93DaQviuJPTyjd57FUJ0A/79QX/8JwhV2wVwc1//Zs2enXhzc/08A+f76e/dO9x39wsBrP0nE3wkEyfTGUm9XoCRxbWU6jFlMrAMkHsGDATlGsuzwV2KTc4ttLxPLYd3ryNNPb9vv73vIcdPd3CniD64u5H+a0Y3bw6CStEq/bVXP4ofrNdSeNeYSQ4AmrwxWD/ADDM7b1rJvN+qDe6RtSx0FxoEEfqbMqd+u6V36Py3OvVu8JQWYPrvzDeWyugjgk+tY1tYR+MqilS/VLIH6/PcDjiz3evgeE30PDhY0mriMbvQwkPU6/ByQOrpoLXlU042fA3if196PbMv8eF2B67ksAUvqgT68es8ycHnJMpc2EqbWkbsUxF+ulOEf2Fb+E+KOxiQlk+D7CP7eVp540MqVV71Qr63jZ57zeqWcBQT+XLgMAT9kcvJ2Ydnd4d/bO4xTiVx392Exbf6DCNdxv/P1ZkoceVYyvcnonZ9hUEPNHNZkfL9omZ+Uv0888dx/G2gbNIghk/+y0NMeJPCCopVf0VDYeudFAInHryJuh6eVVuSLlTcZt/m/p5B65+3Wkgfi2sroxhUMXJhspO5TbrOtfHTnHlSfNu3Cyc6E/mCfQUq9u9iz9FdyklHM9wwf/WitbXVV+RHi+tA+szNDimQ1OCJ0XybU5H4nn9o7/bJy2ekBx8Lbok0+rRzOhk9NjcadaAXQsp3zwBRsdBIJ0nWM8I0EEo0Nm1EHAVxmW6ackRte7Xrnxwj0w6AQcaddyLsbPk03ivKPd8+2LTMT19iI+l5ZGvNFy6w2RIUeoGWNpeDAGXSdbZnufqZdN2YTcGtQlPkquzf/hWZjrYwpJ6urKEJ4XsSxJJ/L8AmpaXMMem8Sp1RTBWjPGu8mxoi+L9FeElAoK7VgTc/S3zYbgWyWCCRLvHeRaVtdrvdN65h/PMgJds1EeH+xYIolsOo6IZvbXzH/GWjq04/vjnKOsHuWySaz5vrw9M43tA2boQc4jUNL3aa4iZHpyH0xZJeQzekZdm/++mZjdsc2c97bWanLyPvkiV1j6IVJJakbKfNUeWPbm33DWb36zRVAN+4k4AMj6EC4yp+IsCBpoIV4/oicPw6dCNyBE7C6aJkB6COj527hYVPsetsy/X1AVTcTLP0SAiZvV/jTFG6j4b5C0zu/BdBnvT5+vRiyP2SyxjeZcarfmEM0fU2hK7AZNJOnZztYBEbYAdasWtV9Zny51GsGn8+4yg0VYPrs+a8tDzp/q/PUewn8TQfqGQLL5HymTjkbmxzdtpdtTtL7Y49dmN5z8nPrfVu6+N7T5YlH+ZupaTM73+soWh+05Tgz7BXLVsW1remGrDRvr7nHuHmgbdLcO7qvfN5967LGl8CoMR0z8CKYTqzbb6IDCI5vlHoBDn2WCcPIIHK6CHR4oAQOnUaCW0h+XUTEwXExVO0lgJbDoZ9BleUkI5+qGjibyK5omYHjqmUFaO/InRI+ZgUNMH5l95rvDjcYPh9XqyEeYnBP0jETaDoIPmjTYeCGoSU0OBsTMBNEHhiEn2JGXRQOES2sfS4/v3c6tX9399L+8D2tw/hl6LlJu7tdyjHzh8NYRIl4xiD9wTdLhzuVSqvX3d69VHwlsVfDFaDmWzbcRJW/XH7u6Mi9YjPxhu0ikdYe+jPbMt8frdKudy4m0DmtNbXtSxPhL8WC+aaY/t9AoKrjpJTx3dUjUgBNNxYMfYJrXJgMzClZZne0UU03eNuLpOUn/t62zJrPQiZrfIcZp9S0xvj1EPTruSZPkXN5xaBTgaZVfTaHzuevYR4GnQqGkBmyOW12HRtTIB7WnjUuY8bF0fIMmlVq4H1suAJoHZ2ng+gbNZ0gXG0XzHnh32u+zf5NxmMMbmg/IMIBQxa58B7iPmauisIhYDKI5Kg1wdVsYDWYf9lQgkTnUQwKiJg/WuzNB0c1bda8qXCUeBtrEMDNllB5vgdc8eHhv+3fMPmd69YtlONucGl67nKALwp+IOq0C12BDyNuHJpuyIr6isi9/vRg+g1Rq2vEKDZchZz3RA1K4fYaKkCjIyCBzvWDIzwByg53/5qBOLjBXmGeXm+iPOIGcfBM8cqssy2z5tSRqdbwviHIVtOIX03v/D5AJ8c+m3A1CSyceSIT5tWxbMauFnHttWeN9cR4r7sI1HMIdRg/AuGjfn0FmlUPGyD4A4fxjTgFHrKv3VtGW2attch1lkVPHOH+lTe27d3oKNj0GKjphmzA6h1FJHRaOnFogzdxAwFXHHX45MULFy50wuWOPPL0tv0O2LMHzP5O+29tZbwrGpJd2eQosfK5Cib+/2Jv1xXN1s8GgM5mVd37DJzTzCzsN5TRO2cyqNf7+27bMmsxhK4No3qzSQ6OKa4wxXroXtOynR9wmMRj6Bu5GvVVjrFvaUB8UddA5jfaVAFq/e+JZBdX6DcMXlSy8t/1b2pZYxkYZweFid5nF7qGj3jeDU03xJL2tcqf9LxtdYk7NtF+o+63vfkwYmMIG1XTdENwf+7LwOCPl6y8xBVUXa4nlJR8uiouZcKDgDNNceplDnAewK5dIXTJOJvOU1y/WOHwZljERA1rem4NwMc3l1lVCTlmyeYp+ln4CZgWQ+FQMF/p12DwKWHl8H8/8cTT9xxM7yEgTdF0ua60LTOxXf/448/bK7XXgAA5X5+4/4SN5YHyoa2SRrnGG/D3XQVgvqPUmz8u7pntM40TSCFwmDH4YYAOigS5SNWbwM7dIHVN60qQDBaXTAEqS/D/D6NhmwjzJUepmao8+BcmmktEcxuFWBHh8mLB9Lxr1S17blMRgFyDE5le1dvb1WxXXtWI68UcoF5QJJgkfhCPK2Z9pERRmm4IOPRAabqR9S+j585icIBaDndFLJ+O4uWlnrz4O8S/EGAQkiixj1NIUjaRAkhD3pskbtLTGjUsoA52+PPh4MvMLONodtzI25rgDYAfLTuDH167YnlVvL7/DE035Dvne8kCp0uSwUXLtGeNM4j5HIDCWAS/2OMgXJce6O8aTUBHJmucETJOWbZlum7s8JWZZcziMs6vIa9gPEaKLo6LJdBmzj+RUo7JjDc2GLugjy9Lum+RdhIrgP9Q106v+CQwHQ+wBFQK89bvwPg5FN0W9w33607LGqc6LD75Graup0HI752avMhH1kqdTDb3SWYegoBXLqLBAxtBt5MqxQmz5r+DynwYyBGAyZOK1QPRWICkbUXLiSl7j8kbZHPsAT3Usba1VFZP2a3/JwPzweio1z4xnVTs7Rr2gEaVpxrQIsfnp0HOgwS1kvvLt7aCBRiRAoxUMLNnz57wwuD+txJopteGnJPDkGn5+TdM6CoVzG/JH5qeWwewa7UT4Eip0BWzgoy0R1uvnqZ3ShTT170n3FRW5StSnOqMQuAACFhkOSqeP3+P00+E9jjv5tboccsrQGglaAkS1q53yrk7QMwSlMYoH8Ise4SaZe1OJr6HmL4YvP2OOqy4YqlAt8b95ZnF5XjsUdOxOG8qEUvD13XkqOUypszM+Yc6yrk3tAm8D+zMsXuX/SlusDscJKz6GOdi6M8qFUzRfHg+e/FmyR4h1i0rOIKiZc4a9zMf6mAUIzh8i29jVtdIOFl4PG7UM9NwwAjRqv59XjFn3Y0LNw2/dNsREuZ5BsXzNrHpRDBuxmbns+ICDh+NvG/O0qJl1jhd2mcZhylGZ9iHHjyH0VMul89v9VjWtJ9boYCEhlUQwpVPV2gMvyLga8Ves65nNKMb57OHOPbquZteccs7g+UCg2q4jWKG8JTDamZSkGiiT0C7bnQO2eLNFuX1Y0V8hcNuVO6r3LrMq+ze/IxG7bR3dH6IiMRYFDH18lNEdE1qYPKSVasWjruwaxfBxHR22NQbGWci+4WWzX0DzIHpnJiuYGLZ+zQ1fYeet5mUep/gFJvNWVMFGCUkTMzIviHo9/0bnj9i3bobgyUt9vs2s/O9qTDgo7bQg0xYXiqYtU6qZqOVjeUYs4W3zzAOVinMjSGn+icp3MSOG+co1z9AzlS7sKwewCbovaYb4lj6YILhNCoyniBhtEXBOXK1lf9Ns0FpuiHYOd/W8AswbgG55uKAksVr4ydMfE2pkLeatSn3x5otfNpJF04uv9R/FpGLdv63yHLfBThXyyau2lGTzDqn62ftu5nS9yUmvaojgFFDwo6bcfaUdCpVD03yEhirAHoGirUYepbQ9490u7fLd5TUnS93H+DgfgaUFPIJmz3M/blDb5EoQhBI4ZZxMfR0TSP7wwnZ3DTFLlt4IoIIAp/ZiO/Hc5NLX6qdYIybHTjmmt5lAYg2vIIKmGOCQ0cksWR6xrOquICIkv2KiX+mQAfXZTkFHrEts5b8KtRQY3dwTSBmUPPJtjKmhr12dV2vjPvtXjOMd6+rABndWOIaSioze79dqK4njhSCOieGz2+QgeVpxVff3pP/Q/gBQhwJqKodd5IVg4g/VSzkq9g9ZKeuHMwNh3VJW2L3J6gldm+XHdd2u567xecTIOZcsTdfs59yQ8oHaQpjwv7EPIUVTwFDIp5d/EP4YvAXS1bec44BmZnG0awQqyyD5fJrf7zy6r56Yx4RJCyMBfAbbrRaMFAicB8R9bFD0pknHZT7lELf0Yft2ydu4mmz5r/JKTv3gzwrYQPOfnk74ODcmLDrPgFLDqRfuvqO7uufHy1bOKUH3ljsXv6UG5QKFn9GlF1EvH+LK4QV8dexx54yac9Xvjwb4hboGwqLu5lJvVomuoKDkH8rYeYJrqdty6xxz2sRrIHfzo4CCfNBn/6G8Z8AvqiI+gaBJ1OpLX0yEVHhZHRjOgPyaaiCTpHE2DGWM9GkEZxeQp8u/i5IPQewLPchbD4/RYqWELb08OCEVzkpnqIYUxhqf3cyGVNA8jemUIsBHQkU4D7bMn1iiqB4BDAT/L5VIGEMvqZk5Yf9+AJkiMK1E4ykxSISINEHQh8YfcR4kon7SH4DDnGYZhDV0MSJ1zAKqZLHvkiAeOLWM/PbQSTwtjiWUAGwuPsR7xLfvFj45LfK0XbsLjkdyVhkTEJbIyuFHAd9Chz/SS85afX6aAj8+IWEMW4mwg+ZeQopJW/F/kNh3OGlb8SBDyOWfQR4kpk99zU82CZ7h0SbxBafO0iEPnZcHgPhMfRDvK5jB70Kqm+z2tL3E+saWfWqLk035MgYd/7foSBh37EtM4pyCQY6Y8YFLxtIbZbwK5fhA4QimO8HSJbP/WUZ9fCC1UetFmchVPzXtmVWk0y6jqfhKJ8WmpZPVx9kJWLq48ob/KRD1Keo3Nc2oPrCG+VMR+7jTFxJQ0NYYxfM9nrPinAS1Su2DSBh9YJDWpBSNJAhXFXryJ0JEq4d90j3HG9yDohzaWravInlNE9JtaWnyGqiPOVwVxYiUZL9Ce53N27JDz9y5GzhFe7gK0DOt/3NawticItquiHYRje8m4ATi5Z5e7SNSmgcjzaF3SAc5/AwLiOur00tgW6nO4zVIMRG3yYVQP/LJ+8Rdmz49apAkozFdq95XtI2w+XcZbzcdm3E1x4fWNkaW7ikjBHiimAFYsAoWWZr0dJeZ6ug9oQeu2B+pGbpHwN5g3CRXTB94qy6Ik2mAK1CwggbHcZcBQQAUIC/bVv5IFjSexvExl0pQxgol1MHRTN5JFEGAXiknPK14SQREt7Nwh0cr7jPwlGnlPtTd7btseVwR5FYH8O0dP5j/25b5n7iroVybg0zijPzJaXefEzoWeMeL1y4UN3zwAZx87qwsegxLRqnSMDxDD48hC9oLhJCr10wq4g46lVKpABS2YOELQLw+SY9WA/HOV2WniiihxmfK/VWwB5ytVdHHo8I7uWibBjC3DUc7ePl+dH03GcBDp7XXHKREkzL7N4uNwGF57aWYJIgErkZh0C952X03DkMdulwiHBjsWC6QTFRGDszL/TJJQUSBuXIquMqTvzFzzOErLoxw0m4bmIFCCbN/T5Bgi2Oq4KEgX4BQnfUJNuuG9cNHWsC4qayKr9tbc/VD1fcpsNBowp8aBJfQbjzng9dJv/Vwe8RA5KmG0KwMGK28LDZ9vTTT297/B973Br+zBDw/b3Sk08NQ9maKZp28rx98JKS0DD3RCAMI6/bd+MDj//dRT97ihzPLiLMKA7RHHJXBTeiqgIJY1i8iXvGHSSsQvA0RXb5vt38TtsyP6TphlDDuK5hZv5eqTffEtwrk819jpll8gNYWVzMomthHAVbeNxkZvTcDRzm9SEUHdDnWmH4qoq7JFw9tLkUnEXFCcbYOJjiqT+OmLWbKdZI7re8AozkIdNmzv8PRznDDB4CGAmTNlP5fXbh6pqAkHrPiiKMxNWqiOcIW1dcndGyhce1qemG2OLD1C93K/BpSVex6dPnv7bc5sgqILZ+oZgNbP71YiRGIvtmdbaJAlS+950XEqgmnIuBQqkFuFdGN67iMNki4xF2MKe0sjEb92jYwusrYhX4U17dR8V6Z1vLXBRws6tmLJVNwfV2oWurch2Oag/QbFCN7mvZzpU1jBtMmXpetGhbMcaa9YPl8pxG3q5oGyNlC683rhgSjX8w6IxGIdnBfmqGcTClEOIS5EefeWzTIffee72kvtkm1zZbAWQ0wouXSpUfDUUJJYryFfr48oSJ3yGwDymX2LsVL0s/Oae7u9tl6N6el+eUkhOCb7cXH8Lnw0kn4vqXyeYWMvNX/HtE+FaxYNaQPGzNsW1TBThBn3e4ghLzZeBZawa+mD6r8y1lx+UnHD5+Mb5V7N22gmo2CV6WclGCcAzihbZlBvGP4TYyunEcA2sj7f5Jbdny7tWrr91mTCvbVAGqAB/DI3dYYWpcFKvnYRTi5TDRUSJwZbMJ2xr3T5gx/81KObdGYhBr+uvZVORk5AeDCOqq4vQhmr8tGcS3mQLUhEUDwunrGzV+YVtmVarX9qwxg5huqM7Dw+fbVl6MUeP28oJCZCUIRwbfYFvDJBmanrsRYD8r+QZQ+Uxwyg8l//XrX9V/1PXXb5t9wDZUgBC/LuN+SuFMdqpgTMGb4nHiCup3+FNB9JlioSuUJ2Dc6oDbsYxu3MzAMHcxoQf9zsmYpMTeEZBG+rGAWtawfANTPYaRrTHibaIAsvMeSEFIEdzvox8ZFDaJer/PJHaX+wDvNnTW7idgTpzXbGsIZCzb1DpyeRAHXEoM+h9iPgJUMV6FgTXeRtLnO6xZEceyX+G2tokCaB2dF4DI2wzxo7aVDyDeWta4DQwv7IteADgcHvY4yJnTiORoawlmrNqtx7SGGLCsphuSY8DNkFaPYWSs+hWcPMa6wWh7x3/yvL1SLw4ITNq1cTNwQcky/chZVNA4aQGAVCODCPc7KTVnTffSVpg1t/ZwRtR+hOTCbcMBnb3G6vKJL9zfwuTYAqQtWWYSnqAR9WmbKUBk8E/snR54a3f38hf9DngUMALbDjOPPjKR6Zgk+PlRjX4bVZ6WzU1zmKuBH4yNBHw6GiuodRh3B8QRDWhwx6rrW/0TkNFz9wS8v0SXFAtdgQ9d0sA4Tlowgy69WvhSzO8aKU3LWAlnLNqp5EBskxXOz3ZSZfeHUmfYPUuDTaHn5KpkLa0DGBmLfm2TFSDCMPZcKq0O8XlrJaWaQyR5+EIhX/xU8Ckg3GMXzJG4ccdSPqNuq103bibvNEDA0w7zyURCCjFMU0NEXyoWAto78pJUugAVPyXNqDtSp4GWVwAhXHIG1MlMLmuY7Nj3AePhob/vInB32BFSHeTIi2wr72bMap9lnEAOhE1rGGbFvJCVWqWYxVLovQCIDSXfWsIY63ZriKDImW0Xlt0m4d6DZedWn1jSG+xiu1CBw7XrxvxKeht3GfiubXUFFLYuBsKhjxDhCBY7CuMZIjzkEIqpzVt+2KoVMbECJEYEEe5RzJ9jpoP9lC4MDKCMQ0srzUfaO4xPEAnvDwXPJvDZRSvvboi0DkNCrAMKVVL4SLGnfkz9WE/aWLWnzZg3FSl1Xz1lFpArJikxGAXh8j46qIKU3vKQn9+ICUcxaD/FLqtYA0QQXgDz5XZv3s1qluRKpABe3gBJ5daQez70wE0gPBDkuCFcaxfMuVo2lwNzdUImwsfsgikcAsGl6YaQJH3M++Fph2hqK2CLJAPf2mWqMo43+JzVeDg9ZpA9/vXs+WCqpNVh3FPDKNZoAMSr7EJjHoaQYjYWxezZ8/d4cdCRwMO4TFWJ5OgQHamY5awvmcD961lmnhPmvfdvnDB7/ivVgBsn+Abvt1i6tUQP3w6FND33dUDS3VcuKqt3F1fWJ2vQsrkrwRzOdvrfDtHZilleuqpo6KTDYfA3S1a+IaWf27dmDXqJjBqmHWnSxk0g2hRmvRDghAOes8ZaFpvlS9qLWMakp+fVyyvYbAzb8n6U64cAo5gAQl5LD8OPguhXMQGpiYfjZzNruFg0a60OZXmzauH7AnSsZPb0kiynU2pOoywWftlozp+kmbBa6dxYlj1eP2+/FAZkvJUgV8ItdsH0P2VNH1Wbmo/6AY7GBjZtJ1RgpW2ZAYYirmLDFcBjrr4zriKDlzjKuYFU2zNq0JGcQeKlaxYwKdk55yTNHyTP1XRD4FWV3MItcA20IqWxKqvpuW6A/UCPv6UH01OTZFMNP1+bNf9EsCPI45rcBaFyv3OILpg4OOFng20DBzOXF9TJbbRpCI/QUIEaKkDgWIbrAAAH3klEQVTspq3Si5psWjX58mqkWhsYkkTw0/TOQxyQ+M4r6N+YZBVJ2tnaZaqPbq7Da2apYFYlvUjah3Y99x4CywkhLmIZSqmDVvcsrco4omWNP8SxtBDT1EYsqI0JIiKQpWAAMTt3722Np3AnusoudCVKnhgnpArH73ByqGZ0qkkFPVblpnfMP6pMTsD53yqjeeyYQwakyP06wa01KGXvfeGORtlZG68A1ZSnQT/CRI/+j55Nf2Mdoa5vK5fnrGxAVdJsMjTdkBAyP3ZgA9Hg1LHgDW723CT3tazxS3CQ6WxUrlyto/NSEMUyp3ufwcfsXtM3Kwfdy+jGdRwKwPFvDFHHtJd66qemb0IRU52fNySMPzhpdUyYpKAm+UOs5PgH/RteeUo0n04SIQuHzh7ltvtDy9zttmXWz+mXpNExKBNJHV8X3tbsUZo+77OAShrG9ukwLY3ERirHkQioGqZVp6zesmZlfY9qQwX4kH7WvhOQHk6EWDUK+l+C8zU3cSTxJxsxYNcOnr9qW/maDFfNhBRNtJA0dUyzdkd6P9Mxfw6TExixmgFc457jbbTle1/FfyDRUkqpzczVmcWH2yCTwHc4wNsIkBUjjmb3b7ZlNkyUkcAOYAh/baJI05gB/ouZDgfhSp8lK1yGiE8rFvIC+kx8abohaewknZ13OccmDcRI/JAEBbXsvNeBlWxO3YmTGEE/Y3qC6nDfWnZuDH06vBUeP3Wc1KclSroR+1eSZyQJEW+qAJ4ZWFKu1Muv26gvwVIloFBW6qYqB0hlyBscxXPW9CwTNEyiK9OR+zF7KVUJ+M1LGyZPHclnJdHD6hQKxzYO7U3+jE3O1CSBmRXFoaUARXkB/kBKnRSld810GNfE0OI17TqBHihaXYH9pV6FpgogFZsf8WKar+PLdqHeRD8MmXkrlZnvV8BpSTAAQs9KKcjbVznjbuNwKi2buyCc70io74vW0iAHUJywK2SXsrmjKAFGQ8yjR3UnOZBrsoU20IJNhNThRWvJo800JZECSCMeZ40EaLTEFl6vAxLmzAT59oVZuGQpLZTT6gvNoGBRq9m2CqiMprVnwuWlOvmO/LFn9M6zGFSTHyjpnsFdhQecVQlzHj3hsMqOKVu4P5AK3666GCAxb0YTIICY72BSV9hWV6z1ME4ZMh2dBhN1Re+5lkZMuNJPjhhXt13P3UDDYdovOmk1tZniNHsjGt4fYvfQHtggK4/vGHND3esq+UzjJFZ8Q22yCP7q3ulXXtoKp4D7Euqdn+FKfuNDYp75hOQq2tQ20LUuBLlrNt7EK0C0IWGzUOS8lRn7ENHvaMuW9a2CEfw23SPeYPorMcujGymD/vK1ceZjz6cuE+K5qeNJFZoJIel9LWssD6V92ZxW6Xeu6lkcCu6stORxEwsKOkI7Q98tO+rLI6HBCfdRIpAoVX4XgQ5gpqdZ4cE1ha4Ae5B0PO7Xs5XCW7usFz0knseIA4U3AXyWbS2ryUEc9VeEaVUa9bdCKpU6kJ3UU6XeLolSanhVgCwIuIOjdDdSWT4PCnRhDHnzT0ipC5Pw9zfrx1jfH1cK4A/OiwmUNygICJV7kmBRMV1cg6TVcxcBHLislVLHre5ZWnOqcDePaZwNhuzAwzB0Sd5kgZxr42IQXJYRxwnl76n2awjLOTmQxNZR/qRHFNG5qwtdkld5XF7jUgF8SXm+dcHGVcGgGFxKqdTi8CRruiFJFgMcfXqwf69w/r9o0qq6s0HoHUhNOuWO7iuf98tUtc14pP8Vk98plHeZ7LkHMA/KxFf7ORgbXSq5ECHWuJz98fYJqCekjN75eQYJTrAqzRwzbmQ41wo/v5cQIvCQyb1Sb4V9K5x+LtlE8KNqy8AxsqfJdBgXM+Eyv56QXqYGBu5zJk44U/B3YWyjW4ZwUTT/YbJnbp9S43oFCItENoqTBtLnEVFAqDB8n0wu87WUonf5uXvduSA6jdl5D0B1qWrrid3NgAq1EGBJ3+JdzlcIqX867Jw7lNeoKoMnA3nHSS0a7QZvW6vBDqMAwXJcyb4txpRavkLmyyoGJvJDr8dUnkS4izkSxMK4hVJq0Xjc4CUZ/A6nAJGNoihCxE/B/xuKwqkvA8I9cCDchhKzOJIYvHWKaNF43uDt1AoQ3iiK/aDWx9Bg7iNpW6LWvSaC+z0zFu8IG7xdQgH8QXobRYk8amYzj3WRxjKYVUvwBRC+tiNt8HYpBZDBhjaKknO4JtmSJ5B1tmV+ICqcWM4+r9COusHb5RQg0UYRiKWma9dzvWEaOr8thjqlZC0NsZ4nEeuOU2aH3QQmEXG7bjxG1bRtlWpeqFqgMLohETRBiHa47YlMk3cWnoI4me3UCpDRDTMmpasvh4cAehZgcW/XC0MfFcAziZJu7zI7tQJ41kFBMzXHMMTMRKNUN9t74sbq+Tu1AoiQokxkLQiuYbKrFtoZ10V3egUQ6Wt6bg3gElokvPjR8sYJR6xdu6henEPCdsZ/sV1CAVwlyBrLwG7y6cYXoWcgNenUsDewWZUd+f4uowAySR4ewABjdgSH/xwRehnON3ZkTsKRKOIupQBhAblJoFA+gOA8OV5CzEYygaOts8sqwGgFt7PU360AO8tMjnAcuxVghILbWartVoCdZSZHOI7dCjBCwe0s1XYrwM4ykyMcx24FGKHgdpZquxVgZ5nJEY7j/wCj2QiA7i9gCwAAAABJRU5ErkJggg==;" parent="NIIjqhKRe15nDF2A4hRN-81" vertex="1">
          <mxGeometry width="190" height="190" as="geometry" />
        </mxCell>
        <mxCell id="NIIjqhKRe15nDF2A4hRN-77" value="" style="shape=image;verticalLabelPosition=bottom;labelBackgroundColor=default;verticalAlign=top;aspect=fixed;imageAspect=0;image=data:image/png,iVBORw0KGgoAAAANSUhEUgAAAIAAAACACAYAAADDPmHLAAAAAXNSR0IArs4c6QAAIABJREFUeF7tfXmAHFW1/ndu9yRhEY08UeICiv5wYTGggD7fExdgqhOSqY6JCi4oAhLIVIdNFIxh8SGYZaoDAcEFUVEYpmuSkK5ORMxPDQ+eAgIugOsDGRaVgBAmyUzXeXOqq2qqq6u7q2cmyWSpf5LpuvfWveeeunXvOd/5DmH3tUtLgHbp0e8ePHYrwC6uBLsVYLcC7OIS2MWHv3sF2K0Au7gEdvHh714BdivAriUBbfa8V3FZZRVjKjMOBNFTIH6oPFAurF119V92LWlg1zkGHn/i2W9MpVP/BeBj9SaZgZ+mmM9f3Zu/d1dRhF3iE6B15DQQ/wjAPokmlmmu3dt1baKyO3ihnV4BtOy8Y8DqZwDaWpkrIpxcLJg3t1JnRyy7UyvAsaecMmmP51/+RwCvHcHkbGor48CVK82nR1B3h6myUytApqPTYKKuUczGTbZlfnoU9cd91Z1aAbQO424Qjo6ZhQdZ4YJNamD9xIGJb0+Rs4CBabGzRbzALuQvG/czOcIO7rQKkOmYbzA5sW9/2Um9Ye2KJY+HZabpub8CfECcHAn0gEO8oFQwV45QzuO22k6nAJo+7/0EuoxB/1FH6r+0LfOo6L2MblzHwBlNZuomovSCYmHx/47bGW2xYzuNAmjavH1okrqMgc4mMrjXtsx31ShAh3ENE+Y2lx89T8ClRatrSfOy47/ETqEAmWzuFIAvYcYbEonccd5hr1j2O7/stGlnTnYmTHgQwOsS1QdAhLschxeUevM/SVpnPJbboRVgun7O4WWULwcwvUXh/p0YZzqgfyLFE5WDLgbeWtMGYRMYk5q0fV16MP3lVasW/6PFPoyL4jusAmgdnZcy0YVUbeAZaNXg02QWxHoYZzp+BMDBfl0iPAbmK4pW/rpxMastdGKHU4D2bKdOoC+DMbVqnIQ/gvHmyNhlmf8XgGNakIlf9KmJTG/brPhHYJwQrk/Aw8wogZCrapexhokuKVld/z2C522XKjuMArR35A5UxLLJ+0REUusAPAbgU1EJEtGniGi9w86DYOzVioQdpY5b07P0jvaO3LFE/NOYujeB6UcAG6AqBSmD0ZUu9y9Yter6l1p55vYou0MogNZhnAvi8wB6TUhIzwCcZ8bdRHRHjPCesC3T3dS1z+rMkEO3ANg7oZBPty3zBr+spht3AXhP7R6B5u+demLZC4NTOgl0IcD7hcr8hoiuKha6vpfwmdul2LhWAE3PfRDgLwH4UGSpvTlFqaswMLih3EbhM7m8cXu6ZRnz7F7zar+e6w5OpS4H4aS6kmaskYks9nb9OlxGmznvRCjlG4F+D+Bt/n1m+kCpt2udNnPe20mpzqgtgUG3QvFXSz2mnDLG3TUuFaByLJv4FXd5rf743i/Lq22ZNwELVUbf8CIDe3hFxOP3n97//2Vb5svjpD1jhvHqwRR9hAmHweEDSOFJBj1AGLCKhWvqGng03XgIwCEV3aJbCTzHb7+cLr9pbXcFTNKu57IK+AKDh41NzBsYMEu9+UvGmwaMOwVozxqnEmM+gHeEhLWZgbyzse2StWsXbZTfNd34BYB/98o84e3+vSWYLratrq+OpbAzWeMkZvzAa/OXQ8YgxcCR3t/9e6cnv6K7e+EW+fvY2XP33rM8YR4zXwogHerHegVastrqKoxl30bT1rhRgBOyuSOInS8QKHizvIHdrhy+YvWKvHyH3SujG2bY4kdMX2JiQfvIVd473Texu7u7PBrBxNUN+wsEL8DMywFyVxom3FUqmL5CutWndXQeyURfYGB2pL0bnPLAVWtWLhdX9Xa9xoECLFRa9rmLwO5yv29IGn8G06IoMqdd7/w0gW4cLkenevuEg9yJAL5esswLtoZUM3rn5xnkI4XuZMWLyaHV/rOIsbzYa54Vfbam504G8cLIMfWvIDLtQtdo3NWjHuZ2VYBpei7rVL7z/rfbHRAD33CwecFa67pnwiPUsrl/B7Ms/f71X2A8CcIy/wcnrfZd07302VFLpk4DWkfns0MTN9m9rdQMMB8I5nygBESnFQtd36xRAgGjDqrzCTi/6h6jyIx8aYW5Zmv1uVG720UBtI55B0Gpc8E4M9w5Av8coMuKlvnjaKcz2bMOYE7/1f+dwbeWrPxHNd24H8A7K5rD19u9+WYevVHJuV03ZBKvqigqrShZXR3tumFSyAnlOM5xa1Ysizuaol3vfJ9ifIWJPjw8FgwQyHQIS9YUup4cVQdbrDxiBRADiSLnrczYhxU93DaQviuJPTyjd57FUJ0A/79QX/8JwhV2wVwc1//Zs2enXhzc/08A+f76e/dO9x39wsBrP0nE3wkEyfTGUm9XoCRxbWU6jFlMrAMkHsGDATlGsuzwV2KTc4ttLxPLYd3ryNNPb9vv73vIcdPd3CniD64u5H+a0Y3bw6CStEq/bVXP4ofrNdSeNeYSQ4AmrwxWD/ADDM7b1rJvN+qDe6RtSx0FxoEEfqbMqd+u6V36Py3OvVu8JQWYPrvzDeWyugjgk+tY1tYR+MqilS/VLIH6/PcDjiz3evgeE30PDhY0mriMbvQwkPU6/ByQOrpoLXlU042fA3if196PbMv8eF2B67ksAUvqgT68es8ycHnJMpc2EqbWkbsUxF+ulOEf2Fb+E+KOxiQlk+D7CP7eVp540MqVV71Qr63jZ57zeqWcBQT+XLgMAT9kcvJ2Ydnd4d/bO4xTiVx392Exbf6DCNdxv/P1ZkoceVYyvcnonZ9hUEPNHNZkfL9omZ+Uv0888dx/G2gbNIghk/+y0NMeJPCCopVf0VDYeudFAInHryJuh6eVVuSLlTcZt/m/p5B65+3Wkgfi2sroxhUMXJhspO5TbrOtfHTnHlSfNu3Cyc6E/mCfQUq9u9iz9FdyklHM9wwf/WitbXVV+RHi+tA+szNDimQ1OCJ0XybU5H4nn9o7/bJy2ekBx8Lbok0+rRzOhk9NjcadaAXQsp3zwBRsdBIJ0nWM8I0EEo0Nm1EHAVxmW6ackRte7Xrnxwj0w6AQcaddyLsbPk03ivKPd8+2LTMT19iI+l5ZGvNFy6w2RIUeoGWNpeDAGXSdbZnufqZdN2YTcGtQlPkquzf/hWZjrYwpJ6urKEJ4XsSxJJ/L8AmpaXMMem8Sp1RTBWjPGu8mxoi+L9FeElAoK7VgTc/S3zYbgWyWCCRLvHeRaVtdrvdN65h/PMgJds1EeH+xYIolsOo6IZvbXzH/GWjq04/vjnKOsHuWySaz5vrw9M43tA2boQc4jUNL3aa4iZHpyH0xZJeQzekZdm/++mZjdsc2c97bWanLyPvkiV1j6IVJJakbKfNUeWPbm33DWb36zRVAN+4k4AMj6EC4yp+IsCBpoIV4/oicPw6dCNyBE7C6aJkB6COj527hYVPsetsy/X1AVTcTLP0SAiZvV/jTFG6j4b5C0zu/BdBnvT5+vRiyP2SyxjeZcarfmEM0fU2hK7AZNJOnZztYBEbYAdasWtV9Zny51GsGn8+4yg0VYPrs+a8tDzp/q/PUewn8TQfqGQLL5HymTjkbmxzdtpdtTtL7Y49dmN5z8nPrfVu6+N7T5YlH+ZupaTM73+soWh+05Tgz7BXLVsW1remGrDRvr7nHuHmgbdLcO7qvfN5967LGl8CoMR0z8CKYTqzbb6IDCI5vlHoBDn2WCcPIIHK6CHR4oAQOnUaCW0h+XUTEwXExVO0lgJbDoZ9BleUkI5+qGjibyK5omYHjqmUFaO/InRI+ZgUNMH5l95rvDjcYPh9XqyEeYnBP0jETaDoIPmjTYeCGoSU0OBsTMBNEHhiEn2JGXRQOES2sfS4/v3c6tX9399L+8D2tw/hl6LlJu7tdyjHzh8NYRIl4xiD9wTdLhzuVSqvX3d69VHwlsVfDFaDmWzbcRJW/XH7u6Mi9YjPxhu0ikdYe+jPbMt8frdKudy4m0DmtNbXtSxPhL8WC+aaY/t9AoKrjpJTx3dUjUgBNNxYMfYJrXJgMzClZZne0UU03eNuLpOUn/t62zJrPQiZrfIcZp9S0xvj1EPTruSZPkXN5xaBTgaZVfTaHzuevYR4GnQqGkBmyOW12HRtTIB7WnjUuY8bF0fIMmlVq4H1suAJoHZ2ng+gbNZ0gXG0XzHnh32u+zf5NxmMMbmg/IMIBQxa58B7iPmauisIhYDKI5Kg1wdVsYDWYf9lQgkTnUQwKiJg/WuzNB0c1bda8qXCUeBtrEMDNllB5vgdc8eHhv+3fMPmd69YtlONucGl67nKALwp+IOq0C12BDyNuHJpuyIr6isi9/vRg+g1Rq2vEKDZchZz3RA1K4fYaKkCjIyCBzvWDIzwByg53/5qBOLjBXmGeXm+iPOIGcfBM8cqssy2z5tSRqdbwviHIVtOIX03v/D5AJ8c+m3A1CSyceSIT5tWxbMauFnHttWeN9cR4r7sI1HMIdRg/AuGjfn0FmlUPGyD4A4fxjTgFHrKv3VtGW2attch1lkVPHOH+lTe27d3oKNj0GKjphmzA6h1FJHRaOnFogzdxAwFXHHX45MULFy50wuWOPPL0tv0O2LMHzP5O+29tZbwrGpJd2eQosfK5Cib+/2Jv1xXN1s8GgM5mVd37DJzTzCzsN5TRO2cyqNf7+27bMmsxhK4No3qzSQ6OKa4wxXroXtOynR9wmMRj6Bu5GvVVjrFvaUB8UddA5jfaVAFq/e+JZBdX6DcMXlSy8t/1b2pZYxkYZweFid5nF7qGj3jeDU03xJL2tcqf9LxtdYk7NtF+o+63vfkwYmMIG1XTdENwf+7LwOCPl6y8xBVUXa4nlJR8uiouZcKDgDNNceplDnAewK5dIXTJOJvOU1y/WOHwZljERA1rem4NwMc3l1lVCTlmyeYp+ln4CZgWQ+FQMF/p12DwKWHl8H8/8cTT9xxM7yEgTdF0ua60LTOxXf/448/bK7XXgAA5X5+4/4SN5YHyoa2SRrnGG/D3XQVgvqPUmz8u7pntM40TSCFwmDH4YYAOigS5SNWbwM7dIHVN60qQDBaXTAEqS/D/D6NhmwjzJUepmao8+BcmmktEcxuFWBHh8mLB9Lxr1S17blMRgFyDE5le1dvb1WxXXtWI68UcoF5QJJgkfhCPK2Z9pERRmm4IOPRAabqR9S+j585icIBaDndFLJ+O4uWlnrz4O8S/EGAQkiixj1NIUjaRAkhD3pskbtLTGjUsoA52+PPh4MvMLONodtzI25rgDYAfLTuDH167YnlVvL7/DE035Dvne8kCp0uSwUXLtGeNM4j5HIDCWAS/2OMgXJce6O8aTUBHJmucETJOWbZlum7s8JWZZcziMs6vIa9gPEaKLo6LJdBmzj+RUo7JjDc2GLugjy9Lum+RdhIrgP9Q106v+CQwHQ+wBFQK89bvwPg5FN0W9w33607LGqc6LD75Graup0HI752avMhH1kqdTDb3SWYegoBXLqLBAxtBt5MqxQmz5r+DynwYyBGAyZOK1QPRWICkbUXLiSl7j8kbZHPsAT3Usba1VFZP2a3/JwPzweio1z4xnVTs7Rr2gEaVpxrQIsfnp0HOgwS1kvvLt7aCBRiRAoxUMLNnz57wwuD+txJopteGnJPDkGn5+TdM6CoVzG/JH5qeWwewa7UT4Eip0BWzgoy0R1uvnqZ3ShTT170n3FRW5StSnOqMQuAACFhkOSqeP3+P00+E9jjv5tboccsrQGglaAkS1q53yrk7QMwSlMYoH8Ise4SaZe1OJr6HmL4YvP2OOqy4YqlAt8b95ZnF5XjsUdOxOG8qEUvD13XkqOUypszM+Yc6yrk3tAm8D+zMsXuX/SlusDscJKz6GOdi6M8qFUzRfHg+e/FmyR4h1i0rOIKiZc4a9zMf6mAUIzh8i29jVtdIOFl4PG7UM9NwwAjRqv59XjFn3Y0LNw2/dNsREuZ5BsXzNrHpRDBuxmbns+ICDh+NvG/O0qJl1jhd2mcZhylGZ9iHHjyH0VMul89v9VjWtJ9boYCEhlUQwpVPV2gMvyLga8Ves65nNKMb57OHOPbquZteccs7g+UCg2q4jWKG8JTDamZSkGiiT0C7bnQO2eLNFuX1Y0V8hcNuVO6r3LrMq+ze/IxG7bR3dH6IiMRYFDH18lNEdE1qYPKSVasWjruwaxfBxHR22NQbGWci+4WWzX0DzIHpnJiuYGLZ+zQ1fYeet5mUep/gFJvNWVMFGCUkTMzIviHo9/0bnj9i3bobgyUt9vs2s/O9qTDgo7bQg0xYXiqYtU6qZqOVjeUYs4W3zzAOVinMjSGn+icp3MSOG+co1z9AzlS7sKwewCbovaYb4lj6YILhNCoyniBhtEXBOXK1lf9Ns0FpuiHYOd/W8AswbgG55uKAksVr4ydMfE2pkLeatSn3x5otfNpJF04uv9R/FpGLdv63yHLfBThXyyau2lGTzDqn62ftu5nS9yUmvaojgFFDwo6bcfaUdCpVD03yEhirAHoGirUYepbQ9490u7fLd5TUnS93H+DgfgaUFPIJmz3M/blDb5EoQhBI4ZZxMfR0TSP7wwnZ3DTFLlt4IoIIAp/ZiO/Hc5NLX6qdYIybHTjmmt5lAYg2vIIKmGOCQ0cksWR6xrOquICIkv2KiX+mQAfXZTkFHrEts5b8KtRQY3dwTSBmUPPJtjKmhr12dV2vjPvtXjOMd6+rABndWOIaSioze79dqK4njhSCOieGz2+QgeVpxVff3pP/Q/gBQhwJqKodd5IVg4g/VSzkq9g9ZKeuHMwNh3VJW2L3J6gldm+XHdd2u567xecTIOZcsTdfs59yQ8oHaQpjwv7EPIUVTwFDIp5d/EP4YvAXS1bec44BmZnG0awQqyyD5fJrf7zy6r56Yx4RJCyMBfAbbrRaMFAicB8R9bFD0pknHZT7lELf0Yft2ydu4mmz5r/JKTv3gzwrYQPOfnk74ODcmLDrPgFLDqRfuvqO7uufHy1bOKUH3ljsXv6UG5QKFn9GlF1EvH+LK4QV8dexx54yac9Xvjwb4hboGwqLu5lJvVomuoKDkH8rYeYJrqdty6xxz2sRrIHfzo4CCfNBn/6G8Z8AvqiI+gaBJ1OpLX0yEVHhZHRjOgPyaaiCTpHE2DGWM9GkEZxeQp8u/i5IPQewLPchbD4/RYqWELb08OCEVzkpnqIYUxhqf3cyGVNA8jemUIsBHQkU4D7bMn1iiqB4BDAT/L5VIGEMvqZk5Yf9+AJkiMK1E4ykxSISINEHQh8YfcR4kon7SH4DDnGYZhDV0MSJ1zAKqZLHvkiAeOLWM/PbQSTwtjiWUAGwuPsR7xLfvFj45LfK0XbsLjkdyVhkTEJbIyuFHAd9Chz/SS85afX6aAj8+IWEMW4mwg+ZeQopJW/F/kNh3OGlb8SBDyOWfQR4kpk99zU82CZ7h0SbxBafO0iEPnZcHgPhMfRDvK5jB70Kqm+z2tL3E+saWfWqLk035MgYd/7foSBh37EtM4pyCQY6Y8YFLxtIbZbwK5fhA4QimO8HSJbP/WUZ9fCC1UetFmchVPzXtmVWk0y6jqfhKJ8WmpZPVx9kJWLq48ob/KRD1Keo3Nc2oPrCG+VMR+7jTFxJQ0NYYxfM9nrPinAS1Su2DSBh9YJDWpBSNJAhXFXryJ0JEq4d90j3HG9yDohzaWravInlNE9JtaWnyGqiPOVwVxYiUZL9Ce53N27JDz9y5GzhFe7gK0DOt/3NawticItquiHYRje8m4ATi5Z5e7SNSmgcjzaF3SAc5/AwLiOur00tgW6nO4zVIMRG3yYVQP/LJ+8Rdmz49apAkozFdq95XtI2w+XcZbzcdm3E1x4fWNkaW7ikjBHiimAFYsAoWWZr0dJeZ6ug9oQeu2B+pGbpHwN5g3CRXTB94qy6Ik2mAK1CwggbHcZcBQQAUIC/bVv5IFjSexvExl0pQxgol1MHRTN5JFEGAXiknPK14SQREt7Nwh0cr7jPwlGnlPtTd7btseVwR5FYH8O0dP5j/25b5n7iroVybg0zijPzJaXefEzoWeMeL1y4UN3zwAZx87qwsegxLRqnSMDxDD48hC9oLhJCr10wq4g46lVKpABS2YOELQLw+SY9WA/HOV2WniiihxmfK/VWwB5ytVdHHo8I7uWibBjC3DUc7ePl+dH03GcBDp7XXHKREkzL7N4uNwGF57aWYJIgErkZh0C952X03DkMdulwiHBjsWC6QTFRGDszL/TJJQUSBuXIquMqTvzFzzOErLoxw0m4bmIFCCbN/T5Bgi2Oq4KEgX4BQnfUJNuuG9cNHWsC4qayKr9tbc/VD1fcpsNBowp8aBJfQbjzng9dJv/Vwe8RA5KmG0KwMGK28LDZ9vTTT297/B973Br+zBDw/b3Sk08NQ9maKZp28rx98JKS0DD3RCAMI6/bd+MDj//dRT97ihzPLiLMKA7RHHJXBTeiqgIJY1i8iXvGHSSsQvA0RXb5vt38TtsyP6TphlDDuK5hZv5eqTffEtwrk819jpll8gNYWVzMomthHAVbeNxkZvTcDRzm9SEUHdDnWmH4qoq7JFw9tLkUnEXFCcbYOJjiqT+OmLWbKdZI7re8AozkIdNmzv8PRznDDB4CGAmTNlP5fXbh6pqAkHrPiiKMxNWqiOcIW1dcndGyhce1qemG2OLD1C93K/BpSVex6dPnv7bc5sgqILZ+oZgNbP71YiRGIvtmdbaJAlS+950XEqgmnIuBQqkFuFdGN67iMNki4xF2MKe0sjEb92jYwusrYhX4U17dR8V6Z1vLXBRws6tmLJVNwfV2oWurch2Oag/QbFCN7mvZzpU1jBtMmXpetGhbMcaa9YPl8pxG3q5oGyNlC683rhgSjX8w6IxGIdnBfmqGcTClEOIS5EefeWzTIffee72kvtkm1zZbAWQ0wouXSpUfDUUJJYryFfr48oSJ3yGwDymX2LsVL0s/Oae7u9tl6N6el+eUkhOCb7cXH8Lnw0kn4vqXyeYWMvNX/HtE+FaxYNaQPGzNsW1TBThBn3e4ghLzZeBZawa+mD6r8y1lx+UnHD5+Mb5V7N22gmo2CV6WclGCcAzihbZlBvGP4TYyunEcA2sj7f5Jbdny7tWrr91mTCvbVAGqAB/DI3dYYWpcFKvnYRTi5TDRUSJwZbMJ2xr3T5gx/81KObdGYhBr+uvZVORk5AeDCOqq4vQhmr8tGcS3mQLUhEUDwunrGzV+YVtmVarX9qwxg5huqM7Dw+fbVl6MUeP28oJCZCUIRwbfYFvDJBmanrsRYD8r+QZQ+Uxwyg8l//XrX9V/1PXXb5t9wDZUgBC/LuN+SuFMdqpgTMGb4nHiCup3+FNB9JlioSuUJ2Dc6oDbsYxu3MzAMHcxoQf9zsmYpMTeEZBG+rGAWtawfANTPYaRrTHibaIAsvMeSEFIEdzvox8ZFDaJer/PJHaX+wDvNnTW7idgTpzXbGsIZCzb1DpyeRAHXEoM+h9iPgJUMV6FgTXeRtLnO6xZEceyX+G2tokCaB2dF4DI2wzxo7aVDyDeWta4DQwv7IteADgcHvY4yJnTiORoawlmrNqtx7SGGLCsphuSY8DNkFaPYWSs+hWcPMa6wWh7x3/yvL1SLw4ITNq1cTNwQcky/chZVNA4aQGAVCODCPc7KTVnTffSVpg1t/ZwRtR+hOTCbcMBnb3G6vKJL9zfwuTYAqQtWWYSnqAR9WmbKUBk8E/snR54a3f38hf9DngUMALbDjOPPjKR6Zgk+PlRjX4bVZ6WzU1zmKuBH4yNBHw6GiuodRh3B8QRDWhwx6rrW/0TkNFz9wS8v0SXFAtdgQ9d0sA4Tlowgy69WvhSzO8aKU3LWAlnLNqp5EBskxXOz3ZSZfeHUmfYPUuDTaHn5KpkLa0DGBmLfm2TFSDCMPZcKq0O8XlrJaWaQyR5+EIhX/xU8Ckg3GMXzJG4ccdSPqNuq103bibvNEDA0w7zyURCCjFMU0NEXyoWAto78pJUugAVPyXNqDtSp4GWVwAhXHIG1MlMLmuY7Nj3AePhob/vInB32BFSHeTIi2wr72bMap9lnEAOhE1rGGbFvJCVWqWYxVLovQCIDSXfWsIY63ZriKDImW0Xlt0m4d6DZedWn1jSG+xiu1CBw7XrxvxKeht3GfiubXUFFLYuBsKhjxDhCBY7CuMZIjzkEIqpzVt+2KoVMbECJEYEEe5RzJ9jpoP9lC4MDKCMQ0srzUfaO4xPEAnvDwXPJvDZRSvvboi0DkNCrAMKVVL4SLGnfkz9WE/aWLWnzZg3FSl1Xz1lFpArJikxGAXh8j46qIKU3vKQn9+ICUcxaD/FLqtYA0QQXgDz5XZv3s1qluRKpABe3gBJ5daQez70wE0gPBDkuCFcaxfMuVo2lwNzdUImwsfsgikcAsGl6YaQJH3M++Fph2hqK2CLJAPf2mWqMo43+JzVeDg9ZpA9/vXs+WCqpNVh3FPDKNZoAMSr7EJjHoaQYjYWxezZ8/d4cdCRwMO4TFWJ5OgQHamY5awvmcD961lmnhPmvfdvnDB7/ivVgBsn+Abvt1i6tUQP3w6FND33dUDS3VcuKqt3F1fWJ2vQsrkrwRzOdvrfDtHZilleuqpo6KTDYfA3S1a+IaWf27dmDXqJjBqmHWnSxk0g2hRmvRDghAOes8ZaFpvlS9qLWMakp+fVyyvYbAzb8n6U64cAo5gAQl5LD8OPguhXMQGpiYfjZzNruFg0a60OZXmzauH7AnSsZPb0kiynU2pOoywWftlozp+kmbBa6dxYlj1eP2+/FAZkvJUgV8ItdsH0P2VNH1Wbmo/6AY7GBjZtJ1RgpW2ZAYYirmLDFcBjrr4zriKDlzjKuYFU2zNq0JGcQeKlaxYwKdk55yTNHyTP1XRD4FWV3MItcA20IqWxKqvpuW6A/UCPv6UH01OTZFMNP1+bNf9EsCPI45rcBaFyv3OILpg4OOFng20DBzOXF9TJbbRpCI/QUIEaKkDgWIbrAAAH3klEQVTspq3Si5psWjX58mqkWhsYkkTw0/TOQxyQ+M4r6N+YZBVJ2tnaZaqPbq7Da2apYFYlvUjah3Y99x4CywkhLmIZSqmDVvcsrco4omWNP8SxtBDT1EYsqI0JIiKQpWAAMTt3722Np3AnusoudCVKnhgnpArH73ByqGZ0qkkFPVblpnfMP6pMTsD53yqjeeyYQwakyP06wa01KGXvfeGORtlZG68A1ZSnQT/CRI/+j55Nf2Mdoa5vK5fnrGxAVdJsMjTdkBAyP3ZgA9Hg1LHgDW723CT3tazxS3CQ6WxUrlyto/NSEMUyp3ufwcfsXtM3Kwfdy+jGdRwKwPFvDFHHtJd66qemb0IRU52fNySMPzhpdUyYpKAm+UOs5PgH/RteeUo0n04SIQuHzh7ltvtDy9zttmXWz+mXpNExKBNJHV8X3tbsUZo+77OAShrG9ukwLY3ERirHkQioGqZVp6zesmZlfY9qQwX4kH7WvhOQHk6EWDUK+l+C8zU3cSTxJxsxYNcOnr9qW/maDFfNhBRNtJA0dUyzdkd6P9Mxfw6TExixmgFc457jbbTle1/FfyDRUkqpzczVmcWH2yCTwHc4wNsIkBUjjmb3b7ZlNkyUkcAOYAh/baJI05gB/ouZDgfhSp8lK1yGiE8rFvIC+kx8abohaewknZ13OccmDcRI/JAEBbXsvNeBlWxO3YmTGEE/Y3qC6nDfWnZuDH06vBUeP3Wc1KclSroR+1eSZyQJEW+qAJ4ZWFKu1Muv26gvwVIloFBW6qYqB0hlyBscxXPW9CwTNEyiK9OR+zF7KVUJ+M1LGyZPHclnJdHD6hQKxzYO7U3+jE3O1CSBmRXFoaUARXkB/kBKnRSld810GNfE0OI17TqBHihaXYH9pV6FpgogFZsf8WKar+PLdqHeRD8MmXkrlZnvV8BpSTAAQs9KKcjbVznjbuNwKi2buyCc70io74vW0iAHUJywK2SXsrmjKAFGQ8yjR3UnOZBrsoU20IJNhNThRWvJo800JZECSCMeZ40EaLTEFl6vAxLmzAT59oVZuGQpLZTT6gvNoGBRq9m2CqiMprVnwuWlOvmO/LFn9M6zGFSTHyjpnsFdhQecVQlzHj3hsMqOKVu4P5AK3666GCAxb0YTIICY72BSV9hWV6z1ME4ZMh2dBhN1Re+5lkZMuNJPjhhXt13P3UDDYdovOmk1tZniNHsjGt4fYvfQHtggK4/vGHND3esq+UzjJFZ8Q22yCP7q3ulXXtoKp4D7Euqdn+FKfuNDYp75hOQq2tQ20LUuBLlrNt7EK0C0IWGzUOS8lRn7ENHvaMuW9a2CEfw23SPeYPorMcujGymD/vK1ceZjz6cuE+K5qeNJFZoJIel9LWssD6V92ZxW6Xeu6lkcCu6stORxEwsKOkI7Q98tO+rLI6HBCfdRIpAoVX4XgQ5gpqdZ4cE1ha4Ae5B0PO7Xs5XCW7usFz0knseIA4U3AXyWbS2ryUEc9VeEaVUa9bdCKpU6kJ3UU6XeLolSanhVgCwIuIOjdDdSWT4PCnRhDHnzT0ipC5Pw9zfrx1jfH1cK4A/OiwmUNygICJV7kmBRMV1cg6TVcxcBHLislVLHre5ZWnOqcDePaZwNhuzAwzB0Sd5kgZxr42IQXJYRxwnl76n2awjLOTmQxNZR/qRHFNG5qwtdkld5XF7jUgF8SXm+dcHGVcGgGFxKqdTi8CRruiFJFgMcfXqwf69w/r9o0qq6s0HoHUhNOuWO7iuf98tUtc14pP8Vk98plHeZ7LkHMA/KxFf7ORgbXSq5ECHWuJz98fYJqCekjN75eQYJTrAqzRwzbmQ41wo/v5cQIvCQyb1Sb4V9K5x+LtlE8KNqy8AxsqfJdBgXM+Eyv56QXqYGBu5zJk44U/B3YWyjW4ZwUTT/YbJnbp9S43oFCItENoqTBtLnEVFAqDB8n0wu87WUonf5uXvduSA6jdl5D0B1qWrrid3NgAq1EGBJ3+JdzlcIqX867Jw7lNeoKoMnA3nHSS0a7QZvW6vBDqMAwXJcyb4txpRavkLmyyoGJvJDr8dUnkS4izkSxMK4hVJq0Xjc4CUZ/A6nAJGNoihCxE/B/xuKwqkvA8I9cCDchhKzOJIYvHWKaNF43uDt1AoQ3iiK/aDWx9Bg7iNpW6LWvSaC+z0zFu8IG7xdQgH8QXobRYk8amYzj3WRxjKYVUvwBRC+tiNt8HYpBZDBhjaKknO4JtmSJ5B1tmV+ICqcWM4+r9COusHb5RQg0UYRiKWma9dzvWEaOr8thjqlZC0NsZ4nEeuOU2aH3QQmEXG7bjxG1bRtlWpeqFqgMLohETRBiHa47YlMk3cWnoI4me3UCpDRDTMmpasvh4cAehZgcW/XC0MfFcAziZJu7zI7tQJ41kFBMzXHMMTMRKNUN9t74sbq+Tu1AoiQokxkLQiuYbKrFtoZ10V3egUQ6Wt6bg3gElokvPjR8sYJR6xdu6henEPCdsZ/sV1CAVwlyBrLwG7y6cYXoWcgNenUsDewWZUd+f4uowAySR4ewABjdgSH/xwRehnON3ZkTsKRKOIupQBhAblJoFA+gOA8OV5CzEYygaOts8sqwGgFt7PU360AO8tMjnAcuxVghILbWartVoCdZSZHOI7dCjBCwe0s1XYrwM4ykyMcx24FGKHgdpZquxVgZ5nJEY7j/wCj2QiA7i9gCwAAAABJRU5ErkJggg==;" vertex="1" parent="NIIjqhKRe15nDF2A4hRN-81">
          <mxGeometry x="141.32999999999998" width="190" height="190" as="geometry" />
        </mxCell>
        <mxCell id="NIIjqhKRe15nDF2A4hRN-78" value="" style="endArrow=none;dashed=1;html=1;dashPattern=1 3;strokeWidth=3;rounded=0;entryX=0.55;entryY=0.114;entryDx=0;entryDy=0;entryPerimeter=0;exitX=0.4;exitY=0.114;exitDx=0;exitDy=0;exitPerimeter=0;" edge="1" parent="NIIjqhKRe15nDF2A4hRN-81">
          <mxGeometry width="50" height="50" relative="1" as="geometry">
            <mxPoint x="140.00199999999995" y="24.000000000000057" as="sourcePoint" />
            <mxPoint x="190.00149999999985" y="24.000000000000057" as="targetPoint" />
          </mxGeometry>
        </mxCell>
        <mxCell id="NIIjqhKRe15nDF2A4hRN-79" value="" style="endArrow=none;dashed=1;html=1;dashPattern=1 3;strokeWidth=3;rounded=0;entryX=0.55;entryY=0.114;entryDx=0;entryDy=0;entryPerimeter=0;exitX=0.4;exitY=0.114;exitDx=0;exitDy=0;exitPerimeter=0;" edge="1" parent="NIIjqhKRe15nDF2A4hRN-81">
          <mxGeometry width="50" height="50" relative="1" as="geometry">
            <mxPoint x="138.33199999999994" y="168.0000000000001" as="sourcePoint" />
            <mxPoint x="188.33149999999983" y="168.0000000000001" as="targetPoint" />
          </mxGeometry>
        </mxCell>
        <mxCell id="NIIjqhKRe15nDF2A4hRN-82" value="" style="endArrow=none;dashed=1;html=1;dashPattern=1 3;strokeWidth=3;rounded=0;entryX=0.55;entryY=0.114;entryDx=0;entryDy=0;entryPerimeter=0;" edge="1" parent="1">
          <mxGeometry width="50" height="50" relative="1" as="geometry">
            <mxPoint x="697" y="337.08" as="sourcePoint" />
            <mxPoint x="737.0014999999999" y="337.0800000000001" as="targetPoint" />
          </mxGeometry>
        </mxCell>
        <mxCell id="NIIjqhKRe15nDF2A4hRN-85" value="" style="endArrow=none;dashed=1;html=1;dashPattern=1 3;strokeWidth=3;rounded=0;entryX=0.55;entryY=0.114;entryDx=0;entryDy=0;entryPerimeter=0;" edge="1" parent="1">
          <mxGeometry width="50" height="50" relative="1" as="geometry">
            <mxPoint x="608" y="336.90999999999997" as="sourcePoint" />
            <mxPoint x="648.0014999999999" y="336.9100000000001" as="targetPoint" />
          </mxGeometry>
        </mxCell>
        <mxCell id="NIIjqhKRe15nDF2A4hRN-87" value="" style="endArrow=none;dashed=1;html=1;dashPattern=1 3;strokeWidth=3;rounded=0;" edge="1" parent="1">
          <mxGeometry width="50" height="50" relative="1" as="geometry">
            <mxPoint x="1543" y="335.00083333333333" as="sourcePoint" />
            <mxPoint x="1578" y="335.00083333333333" as="targetPoint" />
          </mxGeometry>
        </mxCell>
        <mxCell id="NIIjqhKRe15nDF2A4hRN-98" value="" style="group" vertex="1" connectable="0" parent="1">
          <mxGeometry x="1131.67" y="673" width="192.5" height="35" as="geometry" />
        </mxCell>
        <mxCell id="NIIjqhKRe15nDF2A4hRN-99" value="" style="rounded=1;whiteSpace=wrap;html=1;arcSize=50;" vertex="1" parent="NIIjqhKRe15nDF2A4hRN-98">
          <mxGeometry width="192.5" height="35" as="geometry" />
        </mxCell>
        <mxCell id="NIIjqhKRe15nDF2A4hRN-100" value="" style="ellipse;whiteSpace=wrap;html=1;aspect=fixed;fillColor=#344685;strokeColor=none;" vertex="1" parent="NIIjqhKRe15nDF2A4hRN-98">
          <mxGeometry x="11.666666666666668" width="35" height="35" as="geometry" />
        </mxCell>
        <mxCell id="NIIjqhKRe15nDF2A4hRN-101" value="" style="ellipse;whiteSpace=wrap;html=1;aspect=fixed;fillColor=#344685;strokeColor=none;" vertex="1" parent="NIIjqhKRe15nDF2A4hRN-98">
          <mxGeometry x="58.333333333333336" width="35" height="35" as="geometry" />
        </mxCell>
        <mxCell id="NIIjqhKRe15nDF2A4hRN-102" value="" style="ellipse;whiteSpace=wrap;html=1;aspect=fixed;fillColor=#344685;strokeColor=none;" vertex="1" parent="NIIjqhKRe15nDF2A4hRN-98">
          <mxGeometry x="145.83333333333334" width="35" height="35" as="geometry" />
        </mxCell>
        <mxCell id="NIIjqhKRe15nDF2A4hRN-103" value="" style="endArrow=none;dashed=1;html=1;dashPattern=1 3;strokeWidth=2;rounded=0;" edge="1" parent="NIIjqhKRe15nDF2A4hRN-98">
          <mxGeometry width="50" height="50" relative="1" as="geometry">
            <mxPoint x="105" y="17.190833333333334" as="sourcePoint" />
            <mxPoint x="140" y="17.190833333333334" as="targetPoint" />
          </mxGeometry>
        </mxCell>
        <mxCell id="NIIjqhKRe15nDF2A4hRN-104" value="" style="group" vertex="1" connectable="0" parent="1">
          <mxGeometry x="590" y="673" width="192.5" height="35" as="geometry" />
        </mxCell>
        <mxCell id="NIIjqhKRe15nDF2A4hRN-105" value="" style="rounded=1;whiteSpace=wrap;html=1;arcSize=50;" vertex="1" parent="NIIjqhKRe15nDF2A4hRN-104">
          <mxGeometry width="192.5" height="35" as="geometry" />
        </mxCell>
        <mxCell id="NIIjqhKRe15nDF2A4hRN-106" value="" style="ellipse;whiteSpace=wrap;html=1;aspect=fixed;fillColor=#8ea4d2;gradientColor=none;strokeColor=none;" vertex="1" parent="NIIjqhKRe15nDF2A4hRN-104">
          <mxGeometry x="11.666666666666668" width="35" height="35" as="geometry" />
        </mxCell>
        <mxCell id="NIIjqhKRe15nDF2A4hRN-107" value="" style="ellipse;whiteSpace=wrap;html=1;aspect=fixed;fillColor=#8ea4d2;gradientColor=none;strokeColor=none;" vertex="1" parent="NIIjqhKRe15nDF2A4hRN-104">
          <mxGeometry x="58.333333333333336" width="35" height="35" as="geometry" />
        </mxCell>
        <mxCell id="NIIjqhKRe15nDF2A4hRN-108" value="" style="ellipse;whiteSpace=wrap;html=1;aspect=fixed;fillColor=#8ea4d2;gradientColor=none;strokeColor=none;" vertex="1" parent="NIIjqhKRe15nDF2A4hRN-104">
          <mxGeometry x="145.83333333333334" width="35" height="35" as="geometry" />
        </mxCell>
        <mxCell id="NIIjqhKRe15nDF2A4hRN-109" value="" style="endArrow=none;dashed=1;html=1;dashPattern=1 3;strokeWidth=2;rounded=0;" edge="1" parent="NIIjqhKRe15nDF2A4hRN-104">
          <mxGeometry width="50" height="50" relative="1" as="geometry">
            <mxPoint x="105" y="17.190833333333334" as="sourcePoint" />
            <mxPoint x="140" y="17.190833333333334" as="targetPoint" />
          </mxGeometry>
        </mxCell>
        <mxCell id="NIIjqhKRe15nDF2A4hRN-116" value="" style="group" vertex="1" connectable="0" parent="1">
          <mxGeometry x="893.125" y="673" width="192.5" height="35" as="geometry" />
        </mxCell>
        <mxCell id="NIIjqhKRe15nDF2A4hRN-117" value="" style="rounded=1;whiteSpace=wrap;html=1;arcSize=50;" vertex="1" parent="NIIjqhKRe15nDF2A4hRN-116">
          <mxGeometry width="192.5" height="35" as="geometry" />
        </mxCell>
        <mxCell id="NIIjqhKRe15nDF2A4hRN-118" value="" style="ellipse;whiteSpace=wrap;html=1;aspect=fixed;fillColor=#5469a4;strokeColor=none;" vertex="1" parent="NIIjqhKRe15nDF2A4hRN-116">
          <mxGeometry x="11.666666666666668" width="35" height="35" as="geometry" />
        </mxCell>
        <mxCell id="NIIjqhKRe15nDF2A4hRN-119" value="" style="ellipse;whiteSpace=wrap;html=1;aspect=fixed;fillColor=#5469a4;strokeColor=none;" vertex="1" parent="NIIjqhKRe15nDF2A4hRN-116">
          <mxGeometry x="58.333333333333336" width="35" height="35" as="geometry" />
        </mxCell>
        <mxCell id="NIIjqhKRe15nDF2A4hRN-120" value="" style="ellipse;whiteSpace=wrap;html=1;aspect=fixed;fillColor=#5469a4;strokeColor=none;" vertex="1" parent="NIIjqhKRe15nDF2A4hRN-116">
          <mxGeometry x="145.83333333333334" width="35" height="35" as="geometry" />
        </mxCell>
        <mxCell id="NIIjqhKRe15nDF2A4hRN-121" value="" style="endArrow=none;dashed=1;html=1;dashPattern=1 3;strokeWidth=2;rounded=0;" edge="1" parent="NIIjqhKRe15nDF2A4hRN-116">
          <mxGeometry width="50" height="50" relative="1" as="geometry">
            <mxPoint x="105" y="17.190833333333334" as="sourcePoint" />
            <mxPoint x="140" y="17.190833333333334" as="targetPoint" />
          </mxGeometry>
        </mxCell>
        <mxCell id="NIIjqhKRe15nDF2A4hRN-128" value="" style="group" vertex="1" connectable="0" parent="1">
          <mxGeometry x="906.375" y="270" width="166" height="80" as="geometry" />
        </mxCell>
        <mxCell id="NIIjqhKRe15nDF2A4hRN-126" value="" style="rhombus;whiteSpace=wrap;html=1;" vertex="1" parent="NIIjqhKRe15nDF2A4hRN-128">
          <mxGeometry width="166" height="80" as="geometry" />
        </mxCell>
        <mxCell id="NIIjqhKRe15nDF2A4hRN-127" value="&lt;span style=&quot;font-size: 13px;&quot;&gt;&lt;font style=&quot;font-size: 13px;&quot;&gt;任务是否需要优化&lt;/font&gt;&lt;/span&gt;" style="text;html=1;strokeColor=none;fillColor=none;align=center;verticalAlign=middle;whiteSpace=wrap;rounded=0;fontSize=13;fontStyle=0;fontFamily=黑体;" vertex="1" parent="NIIjqhKRe15nDF2A4hRN-128">
          <mxGeometry x="13" y="10" width="146.25" height="60" as="geometry" />
        </mxCell>
        <mxCell id="NIIjqhKRe15nDF2A4hRN-135" value="" style="group" vertex="1" connectable="0" parent="1">
          <mxGeometry x="1140" y="490" width="158.75" height="80" as="geometry" />
        </mxCell>
        <mxCell id="NIIjqhKRe15nDF2A4hRN-130" value="" style="rounded=1;whiteSpace=wrap;html=1;arcSize=12;" vertex="1" parent="NIIjqhKRe15nDF2A4hRN-135">
          <mxGeometry width="158.75" height="80" as="geometry" />
        </mxCell>
        <mxCell id="NIIjqhKRe15nDF2A4hRN-132" value="" style="endArrow=none;dashed=1;html=1;dashPattern=1 3;strokeWidth=2;rounded=0;" edge="1" parent="NIIjqhKRe15nDF2A4hRN-135">
          <mxGeometry width="50" height="50" relative="1" as="geometry">
            <mxPoint x="18" y="26.000833333333276" as="sourcePoint" />
            <mxPoint x="108" y="26" as="targetPoint" />
          </mxGeometry>
        </mxCell>
        <mxCell id="NIIjqhKRe15nDF2A4hRN-133" value="" style="endArrow=none;dashed=1;html=1;dashPattern=1 3;strokeWidth=2;rounded=0;" edge="1" parent="NIIjqhKRe15nDF2A4hRN-135">
          <mxGeometry width="50" height="50" relative="1" as="geometry">
            <mxPoint x="18" y="57.81083333333322" as="sourcePoint" />
            <mxPoint x="108" y="57.809999999999945" as="targetPoint" />
          </mxGeometry>
        </mxCell>
        <mxCell id="NIIjqhKRe15nDF2A4hRN-134" value="k = v -1" style="text;html=1;strokeColor=none;fillColor=none;align=center;verticalAlign=middle;whiteSpace=wrap;rounded=0;fontSize=14;fontStyle=1;fontFamily=Futura;" vertex="1" parent="NIIjqhKRe15nDF2A4hRN-135">
          <mxGeometry x="97" y="28" width="56.5" height="25" as="geometry" />
        </mxCell>
        <mxCell id="NIIjqhKRe15nDF2A4hRN-136" value="" style="group" vertex="1" connectable="0" parent="1">
          <mxGeometry x="910" y="490" width="158.75" height="80" as="geometry" />
        </mxCell>
        <mxCell id="NIIjqhKRe15nDF2A4hRN-137" value="" style="rounded=1;whiteSpace=wrap;html=1;arcSize=12;" vertex="1" parent="NIIjqhKRe15nDF2A4hRN-136">
          <mxGeometry width="158.75" height="80" as="geometry" />
        </mxCell>
        <mxCell id="NIIjqhKRe15nDF2A4hRN-138" value="" style="endArrow=none;dashed=1;html=1;dashPattern=1 3;strokeWidth=2;rounded=0;" edge="1" parent="NIIjqhKRe15nDF2A4hRN-136">
          <mxGeometry width="50" height="50" relative="1" as="geometry">
            <mxPoint x="18" y="26.000833333333276" as="sourcePoint" />
            <mxPoint x="108" y="26" as="targetPoint" />
          </mxGeometry>
        </mxCell>
        <mxCell id="NIIjqhKRe15nDF2A4hRN-139" value="" style="endArrow=none;dashed=1;html=1;dashPattern=1 3;strokeWidth=2;rounded=0;" edge="1" parent="NIIjqhKRe15nDF2A4hRN-136">
          <mxGeometry width="50" height="50" relative="1" as="geometry">
            <mxPoint x="18" y="57.81083333333322" as="sourcePoint" />
            <mxPoint x="108" y="57.809999999999945" as="targetPoint" />
          </mxGeometry>
        </mxCell>
        <mxCell id="NIIjqhKRe15nDF2A4hRN-140" value="k += j" style="text;html=1;strokeColor=none;fillColor=none;align=center;verticalAlign=middle;whiteSpace=wrap;rounded=0;fontSize=14;fontStyle=1;fontFamily=Futura;" vertex="1" parent="NIIjqhKRe15nDF2A4hRN-136">
          <mxGeometry x="97" y="28" width="56.5" height="25" as="geometry" />
        </mxCell>
        <mxCell id="NIIjqhKRe15nDF2A4hRN-141" value="" style="group" vertex="1" connectable="0" parent="1">
          <mxGeometry x="893.125" y="400" width="192.5" height="35" as="geometry" />
        </mxCell>
        <mxCell id="NIIjqhKRe15nDF2A4hRN-142" value="" style="rounded=1;whiteSpace=wrap;html=1;arcSize=50;" vertex="1" parent="NIIjqhKRe15nDF2A4hRN-141">
          <mxGeometry width="192.5" height="35" as="geometry" />
        </mxCell>
        <mxCell id="NIIjqhKRe15nDF2A4hRN-143" value="" style="ellipse;whiteSpace=wrap;html=1;aspect=fixed;fillColor=#344685;strokeColor=none;" vertex="1" parent="NIIjqhKRe15nDF2A4hRN-141">
          <mxGeometry x="11.666666666666668" width="35" height="35" as="geometry" />
        </mxCell>
        <mxCell id="NIIjqhKRe15nDF2A4hRN-144" value="" style="ellipse;whiteSpace=wrap;html=1;aspect=fixed;fillColor=#344685;strokeColor=none;" vertex="1" parent="NIIjqhKRe15nDF2A4hRN-141">
          <mxGeometry x="58.333333333333336" width="35" height="35" as="geometry" />
        </mxCell>
        <mxCell id="NIIjqhKRe15nDF2A4hRN-145" value="" style="ellipse;whiteSpace=wrap;html=1;aspect=fixed;fillColor=#344685;strokeColor=none;" vertex="1" parent="NIIjqhKRe15nDF2A4hRN-141">
          <mxGeometry x="145.83333333333334" width="35" height="35" as="geometry" />
        </mxCell>
        <mxCell id="NIIjqhKRe15nDF2A4hRN-146" value="" style="endArrow=none;dashed=1;html=1;dashPattern=1 3;strokeWidth=2;rounded=0;" edge="1" parent="NIIjqhKRe15nDF2A4hRN-141">
          <mxGeometry width="50" height="50" relative="1" as="geometry">
            <mxPoint x="105" y="17.190833333333334" as="sourcePoint" />
            <mxPoint x="140" y="17.190833333333334" as="targetPoint" />
          </mxGeometry>
        </mxCell>
        <mxCell id="NIIjqhKRe15nDF2A4hRN-154" value="" style="endArrow=classic;html=1;rounded=0;exitX=0.5;exitY=0;exitDx=0;exitDy=0;" edge="1" parent="1">
          <mxGeometry width="50" height="50" relative="1" as="geometry">
            <mxPoint x="1218.96" y="673" as="sourcePoint" />
            <mxPoint x="1219.04" y="570" as="targetPoint" />
          </mxGeometry>
        </mxCell>
        <mxCell id="NIIjqhKRe15nDF2A4hRN-155" value="" style="endArrow=classic;html=1;rounded=0;entryX=0.5;entryY=1;entryDx=0;entryDy=0;" edge="1" parent="1" target="NIIjqhKRe15nDF2A4hRN-105">
          <mxGeometry width="50" height="50" relative="1" as="geometry">
            <mxPoint x="686.05" y="830" as="sourcePoint" />
            <mxPoint x="686.05" y="710" as="targetPoint" />
          </mxGeometry>
        </mxCell>
        <mxCell id="NIIjqhKRe15nDF2A4hRN-156" value="" style="endArrow=classic;html=1;rounded=0;entryX=0.517;entryY=1.003;entryDx=0;entryDy=0;entryPerimeter=0;" edge="1" parent="1" target="0INgmSK9HUNSs3rKqE9F-11">
          <mxGeometry width="50" height="50" relative="1" as="geometry">
            <mxPoint x="685.91" y="673" as="sourcePoint" />
            <mxPoint x="686" y="590" as="targetPoint" />
          </mxGeometry>
        </mxCell>
        <mxCell id="NIIjqhKRe15nDF2A4hRN-157" value="" style="endArrow=classic;html=1;rounded=0;entryX=0.5;entryY=1;entryDx=0;entryDy=0;" edge="1" parent="1">
          <mxGeometry width="50" height="50" relative="1" as="geometry">
            <mxPoint x="988.8699999999999" y="830" as="sourcePoint" />
            <mxPoint x="988.8199999999999" y="708" as="targetPoint" />
          </mxGeometry>
        </mxCell>
        <mxCell id="NIIjqhKRe15nDF2A4hRN-158" value="" style="endArrow=classic;html=1;rounded=0;entryX=0.5;entryY=1;entryDx=0;entryDy=0;" edge="1" parent="1" target="NIIjqhKRe15nDF2A4hRN-137">
          <mxGeometry width="50" height="50" relative="1" as="geometry">
            <mxPoint x="989.24" y="673" as="sourcePoint" />
            <mxPoint x="989.3299999999999" y="586" as="targetPoint" />
          </mxGeometry>
        </mxCell>
        <mxCell id="NIIjqhKRe15nDF2A4hRN-159" value="" style="endArrow=classic;html=1;rounded=0;entryX=0.519;entryY=1.008;entryDx=0;entryDy=0;entryPerimeter=0;" edge="1" parent="1">
          <mxGeometry width="50" height="50" relative="1" as="geometry">
            <mxPoint x="989.47" y="490" as="sourcePoint" />
            <mxPoint x="989.47" y="435" as="targetPoint" />
          </mxGeometry>
        </mxCell>
        <mxCell id="NIIjqhKRe15nDF2A4hRN-160" value="" style="endArrow=classic;html=1;rounded=0;" edge="1" parent="1">
          <mxGeometry width="50" height="50" relative="1" as="geometry">
            <mxPoint x="989.0500000000001" y="400" as="sourcePoint" />
            <mxPoint x="989" y="350" as="targetPoint" />
          </mxGeometry>
        </mxCell>
        <mxCell id="NIIjqhKRe15nDF2A4hRN-161" value="" style="endArrow=classic;html=1;rounded=0;exitX=0.5;exitY=0;exitDx=0;exitDy=0;entryX=0.5;entryY=0;entryDx=0;entryDy=0;" edge="1" parent="1" source="NIIjqhKRe15nDF2A4hRN-126" target="0INgmSK9HUNSs3rKqE9F-11">
          <mxGeometry width="50" height="50" relative="1" as="geometry">
            <mxPoint x="990" y="265" as="sourcePoint" />
            <mxPoint x="680" y="210" as="targetPoint" />
            <Array as="points">
              <mxPoint x="990" y="185" />
              <mxPoint x="680" y="185" />
            </Array>
          </mxGeometry>
        </mxCell>
        <mxCell id="NIIjqhKRe15nDF2A4hRN-164" value="" style="endArrow=classic;html=1;rounded=0;entryX=0.448;entryY=0.002;entryDx=0;entryDy=0;entryPerimeter=0;" edge="1" parent="1" target="0INgmSK9HUNSs3rKqE9F-10">
          <mxGeometry width="50" height="50" relative="1" as="geometry">
            <mxPoint x="680" y="185" as="sourcePoint" />
            <mxPoint x="230" y="210" as="targetPoint" />
            <Array as="points">
              <mxPoint x="230" y="185" />
            </Array>
          </mxGeometry>
        </mxCell>
        <mxCell id="NIIjqhKRe15nDF2A4hRN-165" value="是" style="text;html=1;strokeColor=none;fillColor=none;align=center;verticalAlign=middle;whiteSpace=wrap;rounded=0;fontSize=15;fontStyle=1;fontFamily=黑体;" vertex="1" parent="1">
          <mxGeometry x="940" y="230" width="30" height="30" as="geometry" />
        </mxCell>
        <mxCell id="NIIjqhKRe15nDF2A4hRN-166" value="否" style="text;html=1;strokeColor=none;fillColor=none;align=center;verticalAlign=middle;whiteSpace=wrap;rounded=0;fontSize=15;fontStyle=1;fontFamily=黑体;" vertex="1" parent="1">
          <mxGeometry x="1085.63" y="270" width="30" height="30" as="geometry" />
        </mxCell>
        <mxCell id="NIIjqhKRe15nDF2A4hRN-168" value="" style="group" vertex="1" connectable="0" parent="1">
          <mxGeometry x="520" y="306" width="309" height="220" as="geometry" />
        </mxCell>
        <mxCell id="0INgmSK9HUNSs3rKqE9F-35" value="" style="shape=image;verticalLabelPosition=bottom;labelBackgroundColor=default;verticalAlign=top;aspect=fixed;imageAspect=0;image=data:image/png,iVBORw0KGgoAAAANSUhEUgAAAIAAAACACAYAAADDPmHLAAAAAXNSR0IArs4c6QAAIABJREFUeF7tXXtgHFXV/527SVoIoCJ+nwKiCCjaZrYgKB8KUhV8ICoCxXZni6hQBYXubMtDFCv4aKGZLS+xYoFmZ1MsgspDEZWigIr2g+5sC/L6UCiKFFBaWsgmO+fLnZ3ZzM5jdzZJIWlz/0v2Ps89c++55/E7hImyXVOAtuvVTyweEwywnTPBBANMMMB2ToHtfPkTJ8AEA2znFNjOlz9xAkwwwHZOge18+RMnwAQDbJ8UyOUfeBNx/16Vdi5PKk964isnvfO57ZES29UJoOdLM1jwTGIcAeC1vg1/moFVAC/Lqsnfbi/MsF0wwMU9xb0TgpYDOCzexvItqPCXtJOmPRWv/vittc0zQK5gfpgZPwHwmta2iZ4lxgmZdNedrbUbX7W3aQZY3GvuLyz8L4Adh7ktWwAcoqlKaZjtx3yzbZoBcnnzUSbsM8Jd+L+N/TtPWXDy3i+PsJ8x2XybZQA9X/waiL4TSnXCHajQ2drsrtWLVty3e4fVNp0tnALCByLqf0NLKd8ekzs4wkltuwxgmC8A2CVAH6YTtXTXyjC66YY5C0Ah5LeNmqq0KEOMcGdeoebbJAMszpeOFMS3BzcfX9XSyuWNaKsXzAwYur+OxXTUvHTXr1+hfXnFhtkmGaC7YF5AjG/4qLhJU5XgieCrtHTp6h03d3ZsDtmBCzRV+eYrtjOv0EDbKAOUriLmL/poeLumKh+JQ9dcvnQXE7/fW5eApRlV+VKc9uOpzjbHAN35tUki62cA3urbwJsyqvKpOJuj50s3gfgYX91/gROf09JTbovTx3ips80wwMqV6zqe7KucTYSzAOwUsgHrNFWZGmdjdKP0MMD7hdVl4Ip28MIz1OT6OH2N9TrbBAPkjOLxgDiLwQc3IriFxJR56pQHGtVZXDDfLRirG24c4W9ga5GmTvvBWN/gZvMb1wyg966bAmvgbIDS3oUKwjkWY2HIK+B3WlqRhqDIohvmHwD8T6AC8QYwlQHsMfQb30JILMyoU+9pRuix+vu4ZICVK1cmniy/8ywCy+O+ZtVj4OqsqnxBElsvmH8B4yA/4Ynwa5QrMzInH/Af72/6ynW7oly5AbAthaGFga8QeCpAfmFwYbmjc+E5M/aRuodxVUaVAZwn1D7MtDPa8GR2ZteTo02NXK/5abZwttTR1/pmPCjAx85NJx9y/6cXzE+BIYXBsPI8ALnZdwLcDsZhIDouxERc15aA6zOqMiNnmB9j2LKGl1lKFmPRvLQSpkgaERkuuq60j7Aqb2qr0AbvGkfUqdN4xAxwSeH+/SrcNhfAkSGCk9Sf3z14N9+aVZNLRjJh27DDOAuMk739EFnHZVLTbgzrO0Kab2kaDKwQwNsZeLds2IbElDMcOaI7b2qO0PnfbqcErCBBC+fO6jJbGshT+eKeYqcQ4gwCfwLAoYF+GCaIf92fqOhnzzzwH8MdR7YbEQPoRukigOfHmwD/HRCnampXUEPXpAM9X5oPYvnVv96tysyLN+35/LkLpk8fiGq+4JrHJ+/SvvEXAE2PN8dArd9oqnJkrmCeyoylNsGIFmRSXd+qnTT5dfuCKvI0OMVzIm0CeOHGx5SFCxaQ1crYuULpM8x8BYA3xmnnn0+cNnUfUKsNZP2Le4r/lUjQrWF3bNP+iL6rpbrOa1pP3uM9xWOIxFn1Shm+RwhxWitfmG4ULwHojDhjer7kJRlVyci/ly5d3b65s0MKgPKTWaelgs/J8LnSH5itRdl08qY4Y7f2QdX1+IeKxcfOn518Js44I2IAhxh/AnBgq4PVvl7COdmUsiiqvR72VQEWSKS01NTrhjOu3mt+ABbklzWlSfsiQZzul+z1vLkUhFNlWybMyKaU68P6CTutQPghAYsyKeX/osbOGeZZDETSJMaa/9S5uXz4nDkH9ceoW6vS8hWgG8XFAGVbGSS0LvPhWjp5l/+30HuVcOFAhRfNn50M09G3NBXdKB3F4M9RlYHfIvcTwBPMWC0Ers2klN+EdejVD7jCYNTAYfIKg/8hIBZm1K7LAms2iocQ6I8tLSSsMtElWqpLymOxS0sMsCRffIdF9NeI3p9hxvnZtLK0+hqY9H7AOrrB0VvSVEVx+wqVrJlvFpS4cK469S+xV7QVK+YMc7UrDMZRKoW+WIDbmayF2dS0Ve5U9bx5HwgHhH8oyFWYF8rjPVdYN41RmQ6GlLveFFpfWFO1WdPWxSVDSwygG+a1AE4K6fyqzs3luXPmHCRdqOpKrqf0ThYsn1zv9P/GzJ8SbR0mV8pSmeN5W/OzbNH87GxFjjdmSiNhMGqSUToLgLrbyv2LKu3t72HiW0LaP8AV69jsSdMe9v92xcp1O/X1DSwBka3z8BVDU5U6xVgjArbEADnDfJ6B1/k6vEtTlcMbDeJ45Ybdf1LrJo/hIe0a88UvWy8v+tpJ7x1zfvrVV8Wml+y1RgiDUXSI0Fo+RKB/MjigfBIV8Za5J019ohFddcOU18aQPqRa+T+aqvj3KLKb2AygG2YXgMDbVn7FcaRc3SjeANBnGizoVjAvCpMLxswRIF8mMYXBqDnHs1twXlOTs5utWy8UPwumFf56ca4nt00LDFA6CuBf+Qej/srr/GrVsIl3F0pnEPMlgWsAeByMRVJ2aLbgsfC73lM6CIJtmaSZMBh9LTS2XBLzKZl08kfN1iujm5gGAoogBn84bnBLfAaIUK1qqhKrj+58cTaRHZxRV6R0TCSuEIRlc2d1/avZokf6u+0vgMoRAL0LhL0IKDPhCbawFpa1KuzO9Y/pFQa5zXpH9rPBezrOPLsNcxFVVcp1hQhqJtVcpVx3JXl6YNAxWbUrTK4ITCvW5slWer4o9eW/D/QQU+rUC6XvgPlrjQgjvygLvDQu98Yhslsn11P8IAuS6mh5lUUWYrqbGRnpMRxVySsMMvO3sunkgrhzkQLcy+WBMwl07qBOrTOsXVztnv0q4Mr9/j6ExYfMnZ28N86c4jNA1VoWEMxiTzbKR5/QB8Yk72QJ9AgDS4kTvZn0u/4ZZyGN6uTy5jeYcEFL/XC0A6nU1ScEvWj3F1MYvGzFX3cfGCifwWQbspqVBzVVeVezSlEniBD0xrinaWwGsE+BcBPrRgjr0EZvT90wzwHwvagFMaFAjLeF2uEBgwjLoxQ0zYikG6bU25/frF7E79/UVCWUceIKg5f1mvv3W/xVgE6rY3JGH1M949fNgXmulk4GZCa3juP6Jl9Rvqgn+rOmdr037npbYoBIdSVjgyXwsXkpRYZh1ZXugnk2hTln1Fd7sWKxkiC8A4JmgDHDfzwSsNYCL6MKXx83aLM7XzyOiGRc4LALgU/IqMlAH0t6iu+1BEmVeKgwWP0dp/udVQD8DUBPHKYkovmZVNdi/+T1wpr3gBO3Aryb/zcizMmklB/GXXBLDGArIMqVvwPYNWKAW5lxB8CPCtChTJBOmPvHnMwvNVX5uKx76cr73lApt0mz7wxX8+b7OpaBxMpGlkVHQn4k6p4F6FkwrwPR7lH+f86YW4jb9g27irzCIBH2kbp+GZNA4NOI8Gnfuu9jouU7te+4fHP5xQ0Atdd+Z2wA4Q1hdGJgrQDfzET3wuK3g2zL5sciaPqUpip7xqS3Xa0lBpANcoVSmpklB4+krAfx3WD6rK+TczVVqXPlWlxY8xGyRJrIPhWGiFad/P9ajF600fV+5xO9YF7t9x1wxnqJGN/bcUu529VcyvCwtoHEqUQU6vdPwLUZVanzQ6jSYshMDGAlCLuC8WHvmqQHksVWT1adZsj/63nzVhBsRneLxTxXEEkB+b9GQlSpZ9HUrp+20kfLDCA77zaKcwmUa2Wgobr0rCX4MEG0EyrV93QdwSDeH+Zjd/nyB19fTvRLm7sM3/JL8hUGlpNIXK/NmnLbomV/3bl9UnljyPzWU6JyWGbmAfIYDpRcwXwbM+4O07P3EXY9N6X829to6crHXrO5vLnOtcz9ncE/FqDlGVX5pfu/pUtX77a5s2ODb+DNmqrs5CjapH2g5vPQCn0J+EpGVaS1s6UyLAaoMkHpEwSW7k9No21qM2LcD8s6xr3Duw3zzwTUe/IyzM4t5YMamTVlzD8YpzJwQpCBcK/FeJQIKf9vTDg6m1J+0YhCulE6FuCghxHxTC2VtE3RuWvuf63VLj5HEKcA7JHWSXpAXQ0Sy7XUlD/7x9ENUzqH+GjO3ZqanCfrXmoU9xwAyfd7soVd3ETAiV5Ga6Ft61eAt3Pnnr0IsIkdyUwE/Fu+lzfu+fwVXg+eXMH8HDOuqfZJj9TuYsLlWkr5arOFfK9gvm4y4xQGPg/gHY3qE/CPjKp4PHrDaw/Ok3KFkvzS64JBibGILPF9K2F9DoCMOnpzCPP9MuPIMf7fcr1rH2LLentgVE7sp6WnPOo5Jdpf3LHjq0R2aJsfxsbbXJqxe4jbzh3JU3nYJ4B3JtIvcIATkijTCXY8vhQSpUPowwTq7egQK0+fMaX6bvYV3ShuAWgHgNcD1FG7BxtE8Yb1k+stftCycCqBTozY2ls0NemP9gmtqhumVHkf5aP2WgKkgOXZFF4jrx4BcRKDp8n6Fg28dV7qQCko10quUPwyM30/ZDDb5SxsEvIa6+joO5FJXnkkg1Tk2M8NvioeA/gOIlzVyMGk2cfj/j4qDBB3sAgG8DqYSFWxa25+zqK2d89LvauOmM3G6u4pnkFEFyH4xq69Mpr1EcYAvja/lYJwNp20heFmZmLdMOXXahdibGGqvt1ZiOOzs6ZKU/mrVl59Bqi6f8nnmiy/YaK/uYGdzPhZNq0cG4c6uXzpCJYOqj4Ju9aWsUFLK02l7OoVsPaZsDc2A9cLpuWZdNet3jnpP/rDrpi8U1VL6tMM6vniv0HknhoVZmwgkg6f/KymJkOffnHWO1p1XnUGkAvpNoq3DbpEVSN3LRzBApcTUI3jI2haSol8cejL1+wBQfNBdGYzogiyPjo3NS1g0azbzCghsCrkrMioinyFBIpXMwjCp7WU8vPunmKBBHnrS5SRrzuNv62pij+EvdkSRv33McEAS/LFT1pEP7f3m+hK5srPAFHbKObK+7LpA6Tas650G+bpRJgH9kYCUxGikoIl1oZQaz0n6NCogJXuFaU3U4WlESXc3QqASCQOmTtzSsDQoufXHQaq2MYyadR6ofO5U3fZ/Pras5FBDwjgGdf5w6K2t7Z6vY367g9HEbQ1JiH71PPF9SDag4F/91Ve2m9SYnLWsZhJr82/bHr0uUMXLKjGAOjGmqOIxDxmGYwyVATomLmOGbSBA8p6MM/yO550F9ZOJ7akc0UtyKPWM9EqMNdiC6JM4F7NIADpnWsrrhh4WVh8NAuqAlAS3ayluj65tWjZSr+jcgLIOAEhxFEEKIC1DxHtbLF8BdCjLCp3zZs1TSpXGhYvqBMzstm0ousF87dgfLDakLop0XY5VwbmA1xnWEFIrEGUqXRoEvQImG1nCindN0QT48R+TJV5BMxxNjDU+zZXKH2ZmQPSvmSYnGH+gJ32cfQRzeg1Wr+PiAGkHsDCwMVkP1Ua6hSeJuZvvPCYcnVUpEy9d0vVonXRNeve2NZWeQyO1GzrE7w+iUSrSAx8Pkqz1xApLCYFXQ3bZSvu232g0n4nu7gB3L+fln537f0uu7v06vveMNDRVhecwcCSHQgX9DEec+b+pKYqe8UcfqtXGzYDVC1SQoZ5xUbPYtCvqGPTsdqMQ6uOlb7SbZi9BMy0j03H11A3ilcGo3HpZSY+rplWT/YTgRcUj7CEOni4XGFNmlm4dpBnNFUJXBe5gmkx1z6GFzVV2VnvMTMQDvAU83laOvndeBPY+rWGxQCOKfSO4SFw0p87N/dND3Mh13vMD0DIiN3qPcnAv/xYPwRak1G7wn3oI+gl1bsEXhbi0RxF4edB+LyU5P0VcoZ5DQNSGyi5tG4zc0bxKYa0LjqXlhNNXOe922Htqc0YOxjELTPAkt7Sf1sWr4kbvBhG4UbOlLphSs/joNsWY4t7FTDRmdlU16WtfB8y/p/6rG8zsbTqTY5o+zIDV5UJ3/Qbftz6jsFIMqmtCuYE7SVfFXpPsQeiHqiiyshiJqrCpSwrNVWJ0FS2sprRq9syA+iGKa1bH42eAt/DoI6AkcfXIMzzVTfWHAsI6QAhvYOcgwD/YKavWMTPCcbv3P8z+H+yatJ2yGil2CrWyeWZYBzITmgYAU+AeXW5POnHZ39h/03N+svli19koquqhwCvnTzpof/pK9e1k/781XuecD+4GvVDhCOH69nUbE7D/b0lBlhSWPMRi0UEShbfwhXOul61TnjYRwDuBrB3cIL0bH9f+9skwS/uKU4d9LGTFjFf1BE927m5b3fXMqgXSpeA2Y3yveuPHX+dfv2MGZXhLn4k7fR8cQXI8Wdg9A2pnrl/oL9tr7b2iuPLKMPDWQzKNg9lVCWuc8xIptZS25YYQDdMaUoNeKMQ86xMOhkIUHBnohumjKQ93j8zwfgSE+1mq3C9wiThYTBsyxmD0lm1y3amkMVrQmZYF2XVaXGcLFsiSpzKTsibvArq1MuujqBOMyg7tKBps6M1mnHG3Bp1YjOAA/8iNVvSYuctyzVVqQpFEcVxJZPWwTrzpv9ZJ/3+KszfbRf0cGUIqetWTVUkUoZdpC2e2xNDGjbm47Pp5KtiUOk2zAJVHVTsQsTzM6mk7cPn5CmoQcu24qm7NTY6qs/YDLDEWHuwBSvg5MBM78umuwJqWv+AumFKR8UhFI3gjL49qSOxyDUb63nzThe9WwhKegEhFueLXxRDd/DjaBMf2Bp4RM02QjeK/QC1ufUG5YEaMy4xSp+wwDe7v3VU2ncbi3mJYjOA3ls8BhYFkC46N5c7w550fuL5/Oe8P/8GZJ2npabVMVcuX5zJRL12ReZLtHSyLu5dN0q3AHy001FLEbHNNjbO73reXA/yQsZVW7muY3q+tALEXp/HgL9jnHG2dp3YDJDLl44OC2OuWLxTHOAGvVD6ApjD490IfySmHyV2nVw44+P79clFL1jAYpd9S1KrJn3kns6kunYfdNqs2dVlHd0wn3V96Ah0Rhj4gpeAjuXweBZ0BAHvAtuSennQo+gJYlpLgle1D7Tf0OxLzRXWXsNsewa5h/88gO2jX1oMuWPSfJTLT0jhb6hKOLTM1t7gZv3HZoBBk20oigVFOHEGr4AwjZ6/FlmSSZj4GvnEq9fi8emamqzTszvaSNsyx0A5YfHhUSFRLWgEXwDoQk3tkq+XQFmwYMHkXfb9jMRBsGknvX4zKeUor4BsM4Gj0STQPQx+n1N3/D4DIz1tmZdp6aQfmbuOcFIILJcrT4Rr4vhZgAIBDgCKAOQdatvPmfnubDoZyPqVM8xFDmaf3JI7MrO6Puw9KfSVf9iByzv/lMCxkMKHJs43ampSYgfWFd0wpZ7AxiKWTJdVFTuszf5ASNwJ5rowN6bKDOKEm6BifCuC6q1zHlKBPptVu34cddw0wwYgpiuZeMNgEMTx9tEcUYQQh82dNTVgWew2zAdpKABloaYqMvDSLt1G6bbWN782gds0Vak9e3WjeC9A73F/9ZuFu43ieQTypJbhH2hq8steM3FnR+dr54whRNHYV4BcdBQgQZUgNM9/bMqAi/aBtqvC3LScJ2DCdSsnkfhQZtaUO+xwLuB4JskMQxK2Q/SNDFqYYOtGL2JmMEy6GiCRM4rf5WoU7kiKzVC6cf9JQKIGWcMsjs+mg/58esF8BuxE+ZDQtNTUnG6syToaTnmUnaWlkxePZEKj2bYlBrCZwDAlSFSUC/YLDBSJwRDobIgjyHwWEW1hwE3h8hA6XjzAtRTKaNpypf8kAksFUhCSjugGVKyfdL7Uf4PUFHYba1SCyFeJww9ZoIwAomIAniei78HCaibenYmmE7OMMQi3bFp0MAvrjx6GDDXp5lY8+Fau9D/u2aBnNu7Rtcdrn1i3u5Wwqs6tMaOJR3OTG/XVMgPk8sUDBwkmdfJhmPzx5k24Q0spH3IYSm6a6mzcVZqatLH4vEUvFK8EBwCa3SrrGeglStxAqJzLXIvJk2ATQe8e4Hbqr5zoRzVZsnztXpWE9ZNQG0Z9CDsPRgwPSfeeieqGKSOgZSR0rRDhwkxKOb/bMK8hx4pITNPHSkLKlhlArmxx75r3JyxxUwvm1SGCMN1dLrd/3DW6LDKKe7ZDBpTavu9gWGk3js5t5ETMuMDTMp2r/JoCGLpM+DUBEkatppzxbgYDv8+qSnhqOKeibpgS+j2Iz+v83ggRRTfMx6qGLH6JQNIX3A7TlhtuCd6RGK43ca+mKoHIpXhfz+jWGhYDyCnkVtz/VrYS17cEF8vIaWlF8y+hu2CeQAxXUt7YbnVM++rs/b1HqfQZ/JELiyZdqmCJp0DWFwg8M+IVEaRUDDSThgkjmK/T0knbYSVwSvWWZsDiqiDMyAkhfmWxZRvOpMVwUF3d5RUG4+pPRne7g70NmwHcrvS8eTIIEoQhECo19NnjDkIim0lNkX4EoaUegZQDUTwOxIvtVEmgGzNqV+2JtsQonWjZ4WFcF81TNxDD1NJKrJg73TAlpJ3PgskDmpqsi0729u/VA7im6jrsX8I3iG2lUxUOdowYh0bMAC4RqkifMnbd2scOhGB+CkQPE9AbN4QpVyjdxexk6wqRlvV88U8gso9VLtNe2c/X5yPovrr0ZtFho4p/iQH5wvCWn2uq4o/Zj2LGmwGqGaBspiPqyaS6wkAycUnhgf0qPFAFdPTIN47+404X40AIcbxlWVWwiTEiDI4aA4zGUVUForLlAfsO9xuadGPNlwBxZZWAQdTxXN5cyMDckLAw2eK3mqrUxe5HzbnbMH9HQD34JfMWkSBt7qwgnJ1ulBYDbOMnE+HkTGoI4dSXuOK3gPRErnoORek1RoOWcfsYUwwgJ633lubDYhlxbANAvPDoc4e48QAyGniS7W4u0bXo75raZaeG6+4xP04CEoS55kkUQgA7Dr8ZYaTmEOWdZEaRKLexZ0C4UEsNZSDNGeZTDEhfwOcrFu/lt414HVmIcC1z1aew0anSbJ6j9fuYYwCbCbyoooSclhoSHHMFs5sZtiApc/iA8XEKxgNKo1FgbUx8WjaVrJ4gEUU3SlnXsFNfperZ4/7PVmQRLhz0UHoeIFtBxMBFWVUJOKgs7l29m7A6pPNIFaqe+SEQ2bqUjf3P7bDg5OmBzORSubVT24uHEaz3EZGMuH4TmDYQWY8zxF+of2BVHIDOZowyJhngsp7i3v2CJJS8Hc/vtbNf3FN8b8IBZwK4Mmi4qbvrmcQ5VqVyeUKQROLYwU+ARjmAJZR8GBqq/LKJKh9ibpOAENKnwSMMDs0hQTjozBCgLOdkG3olgB4E2AbPDrNiOpD5Eq6mIfgGA5exKF8wb9ZB0io6rDImGcA+1gtrZxNbLrLoP9vA75HJGpcUHjjc4gGp4asDWSTmu18YeP5I92vynhR+yhDj/HLbwDI3346jZ5AbGwUnV4OLu6SnOLWSIBkhdIoP39Bi8Pnt5coPz/j8gX4YGHsKATex6sRqsPmXGo/sMoCXpNNtpB4iZJelyfzDmqqUhsMBo8IAzjv+SAameQAi5FPqUQb/nkA3DWeCuULp+8z8ZXthRDdKqXDQSugPFy8LQQf7U8g47utSMROKxtkCsf5D/ZW9/cdtNVlWQvo61j8tGRYJusDqw9X+V4q+cs0e3Cd+JxHFvOPLZ+NOm/vNzZ0d8tQbTiaWjcLio+Kig3rHHhEDOEkepC6/kfDljtc70J/InnXylKfjEn/BynUdu5QrEhK9EVEi4dH9fnlxx/XUe5kEPpiZpYRm89ANU2ICSDSUF8EsQOQDbcRCcGKZFwImFDNZwuSQzagSCW245V8D/YlprdC3egUNs+hG8TSAWkWlejJBlQ+dmTrABYRoOLrj8CGBmfxu5beDePVgJk8be5gYczLpcHBE516XGrpGeDuBeUghD4QZUX78dfhGzN8VCXEpM5/FTFJO2Ln+C8cSy+Jl82cn7ZD1Bok3oujxIAMbBNDVRP0eCTkT1fGwGKChe1dzhnquYvHB82cn61S93mYLFqxqe82+uxksLXSEOsOLfBpmVOUgvXfNlBoGAGG1llIi8wbbCSuI5FfW0A4wNAdeRQkrMujU2cSazYBZTMump0oHFkjouC39W77OUlhkH9AU0ZUCvKyvn/7T1sbyVdAM1PFRYszPpJVaAszuFWsOoIHEt0Kym9vTbzXyuGUG8LphNd/ryBqlzs3lQ8KcSbvzazSC+BqoDi9vAODHXYMRgb6TUbu+3m0Ur3NBoeJECjnQsVJhE8wNXCXfPcS02EvwsBV0X7c2SQOWq9b+qaYqgUQY11zz+OT/tL/4dRnKHvhqCdfYUDEhUPHueAT+cUZN+oE0a9PJFcwUM2rxEp553q6pSmzvp9YZwDDl8b1v6NYyXUeCl1lAh2B+P4MkVGyEhw9drKldNaz8JctLSkVY1xKRP/Dz9o17PHf0a9fvug8T/dElpoweJhIJF9OvFaVK9/I1bxciUQvitLceYr33rm7E3PXC6RB+YFgbiTm0xCh9nQnSq9kHsUt/B1imzPEVOyLqLc28rb3R1N4ONvbvvMOCk/cO6BbC5tcSA3QXil+mcLizZwTEJ8KyezV6jtUCKw0zD0gXaq+PPR6zmFPzPbj33pg8CSnf3//S4W3tk6XFLUkAD1i8cxwP5RGcXHZT3TAl5F2nnMMLj07dP2520CrYtoyCCvWBrE2LCHompTRNzRcl5BLzuzPp5H1x1tkSA+hG6V6Aaz5xzgCbyKL3ZmZ3PRg1oJ4vShAnW73rLUT0M2aWb95aeNUg5s+LgLgik5pa51jhtvMKUCRROSEeYli2hY2Z52fT1cicrVWWGGtPsWC5aNwXaKoSii/caPxB5LAz0QAbmIhmZ1JdjndTdE/+KKlaTeaPaelkRAynbw/iEsr2awAIAAAHw0lEQVROFysoLKVLLCLoja6OoUnctvHRrqMbfVF2soYErQY7KOTM5w0KihdUNYL8iKYmg2iccRcZo16uYK5mriaSRgz/gsiPQvoJMn0P5EENdyoz4eSsx6AU1UcDT+3RZ4DufOlQIpaSb10RzPvHSWluW+oismXIoxSMjB9/r8GJ8tFBs7ALwryZGb8egmenjwwnQXWMvYe+onSQC3AtMQOzqtLyuz1nmKcDuLDhcy5mBlAH2EoCddQVTlgHZmdOC6SSCVtj7CvAZ9as9RU3aZRuFE9yjSa+ifyGOisnZI49IBR1O5IJPDmIJIqY68vHhJ9lU83BJSUmEXH/XpV2Lk8qT3qiWTSQnEeuULqKme0YiKhEElHzteMZQRfCBol0i0yNw/1BV3h6Fh2b9oqC0nFb54zidRwCjdvf17FLHJyD6jpilihsgLhBj5LzPR7AYaOuBGhZK19vnd2e8YTMAmYvisu7Z9IHBXINyWcgBKnEkIka/YqhpxlYBfCysKRVK1dyYn3Z7HOMT3VpbxuR0MYVgrigHssQTzL4yk2b+y95zU4dqpua3tsPAyuyEaCUsp5umDIqWaK1+7//2JjILTFAlK9c7MSRhdJPwOyPtAkz265n5mVo595m6dguue6BqZXKgJQH6qJxBl0tLtDUqTXhzMlcKg1Lgcii8M3jW/oTlTmusahK8LWnAZat+XRyJF/YaOMX582UqCJ+D7nQM28gIb6f4Mn6Gep+dj4Dx8dBIooEfRWYbh4YEKf61btRQrU9nxYEwJYYoIGjxJ2aqtRAFMOI4uDqSMOMn1tvBEPCvBznunrVfQXSy5dx7ev6d77x5Ih3rQ+bTwJJSm+iGoKX81SSblix0cyqc6BniXGC676dK5SKzGwnu24k9yzOF2cK0DkgiZnoFtpIxFe2D7RfHHbV5IzStwevgvOiGMq+4qoYSVIrKo1PoWZiV0vaiDH9v8W+ApxjR+rUA4IPA1dkVeUrYQM7rwcZRxCAR/Fi9y7O33+koLbP2KdEMH/OZnk0W4KvDwOdzBlmrxuMWSM5+AQW/CAsIbOSBPwCYhLpJQjrYILYhS24GAihLt3dxpoTCQnN90wug+jKgbJY2MhI40Q2SYfXVszA/iW8YCFx6Dx1ygMx11Zl81YqR0UIO33cCosWuAkXq881HAMm+UYPACPKZEhZVQmggekrn9yB+/4ts4x+JtTLl+1onkKikrjRTa5cTRxBaxg8NA5DAkxIXXu41jL+wqVZW26+HbxiMY6d59XNV13aZXKLuuuFgKVWgr4TF7hi4crVr+kod0g/h5aZwDZcCRwdZbVstNSWGMA5BUJxguLT0zlgiY7LpLqCqVk8Hck8OiwJzzjOb0N3qhlE1k8zqWk3dueLnxxUIwdw/ULnJR1PK3S2ZFYZv9hhtU1ntrOABLJ417Un3K+lFNs0LQVKIWiOH68Y4OVEdEFcT2j//PSCeRkYoadpBI3vFRUxo1mm8aj9aZ0BqhlEpT5g2IhXMv1KJq2EavqiJprrNT/Nlp2aRgqSdfNmxmMkSF5Pbwaz7XEbWRpkImlgYHG7OxcgqXmcU4O3r905dB0n2r6Z/ew7q+7hIyi2wA1cNISTHNYZ/x1M39LSipNyZ3gDtswAchgbw7ddQrpXQ59aLHXh2y22hcwe1ifKEuxxVojhCGBrI0hECUlNM2vpBTMDdmBdvZMjDMDCPUGTMt0IIc7XZk1Z1+pamtVfki++wyI7Bc5+IOl1TDL30mPEvCquqrfZGMNiALfTusiXZiMBTzPznGw6GcAZat40vIZeWPce8MDJg1+lDNdqJuVv1FSlWR04aGibm86J6WYS4vxG0U5N+xgDFUbEAHL+tmm1LXEeM88OW4/M1sXMV3Ru6V/SzLw5Eno4ihF5MoQGf0ig6qza1QDhdGj0XL50F5MToRSc1G0WxPnz1KmBnIcjmf+r1XbEDOBOXEqxk/om1dvyE9w3HMl0JMSwPXyZZHZOzzvcFhpuyqiK9E9oWvR86aagxw39kxnHx4HEazrAGKowagwwhtYk0UQvJdhPM29Zp6lKNQ9Rk6IbpYeD+YSHEjw2az+eft82GSBvzhnMzPUD/0ZYSExppiiJUnnHgaEbTxvvznWbZAAbu6CSCDqdMn6npZWGb33dMKXSJ+Az2AZ+swxMGY+b3GjO2yQDyAXrBfMvYeAVEtcP5coMf6CHzCeAckViDocxSOzI4vHGINsyA3wKjJo7tW9jZPSv3Ow7AW4H4zAQSQVTeOyAwBHaLKWWq2C8bfJ2eQLYp0CoNN/a9jWzy7fW29irvc2eAJLUVSvbxl/ARi4ZVmnJx35YI7zKjbZpBrCZYNWqtl3+sdtiMDdNLevdCwKW7NHx13kzXqWMJK8UX2zzDOASUu81PwAL0qOnCtIQXYoEcXpGnRpwgH2lNuWVHGe7YQCXqNJDCMxfZNA0OEmjIOHiwWtA9KOxltRpazPDdscAW5ug463/CQYYbzs2yvOdYIBRJuh4626CAcbbjo3yfCcYYJQJOt66m2CA8bZjozzfCQYYZYKOt+4mGGC87dgoz3eCAUaZoOOtuwkGGG87NsrznWCAUSboeOtuggHG246N8nwnGGCUCTreuptggPG2Y6M83wkGGGWCjrfuJhhgvO3YKM/3/wHVrc9xpw5rsQAAAABJRU5ErkJggg==;rotation=-90;" parent="NIIjqhKRe15nDF2A4hRN-168" vertex="1">
          <mxGeometry width="220" height="220" as="geometry" />
        </mxCell>
        <mxCell id="NIIjqhKRe15nDF2A4hRN-80" value="" style="shape=image;verticalLabelPosition=bottom;labelBackgroundColor=default;verticalAlign=top;aspect=fixed;imageAspect=0;image=data:image/png,iVBORw0KGgoAAAANSUhEUgAAAIAAAACACAYAAADDPmHLAAAAAXNSR0IArs4c6QAAIABJREFUeF7tXXtgHFXV/527SVoIoCJ+nwKiCCjaZrYgKB8KUhV8ICoCxXZni6hQBYXubMtDFCv4aKGZLS+xYoFmZ1MsgspDEZWigIr2g+5sC/L6UCiKFFBaWsgmO+fLnZ3ZzM5jdzZJIWlz/0v2Ps89c++55/E7hImyXVOAtuvVTyweEwywnTPBBANMMMB2ToHtfPkTJ8AEA2znFNjOlz9xAkwwwHZOge18+RMnwAQDbJ8UyOUfeBNx/16Vdi5PKk964isnvfO57ZES29UJoOdLM1jwTGIcAeC1vg1/moFVAC/Lqsnfbi/MsF0wwMU9xb0TgpYDOCzexvItqPCXtJOmPRWv/vittc0zQK5gfpgZPwHwmta2iZ4lxgmZdNedrbUbX7W3aQZY3GvuLyz8L4Adh7ktWwAcoqlKaZjtx3yzbZoBcnnzUSbsM8Jd+L+N/TtPWXDy3i+PsJ8x2XybZQA9X/waiL4TSnXCHajQ2drsrtWLVty3e4fVNp0tnALCByLqf0NLKd8ekzs4wkltuwxgmC8A2CVAH6YTtXTXyjC66YY5C0Ah5LeNmqq0KEOMcGdeoebbJAMszpeOFMS3BzcfX9XSyuWNaKsXzAwYur+OxXTUvHTXr1+hfXnFhtkmGaC7YF5AjG/4qLhJU5XgieCrtHTp6h03d3ZsDtmBCzRV+eYrtjOv0EDbKAOUriLmL/poeLumKh+JQ9dcvnQXE7/fW5eApRlV+VKc9uOpzjbHAN35tUki62cA3urbwJsyqvKpOJuj50s3gfgYX91/gROf09JTbovTx3ips80wwMqV6zqe7KucTYSzAOwUsgHrNFWZGmdjdKP0MMD7hdVl4Ip28MIz1OT6OH2N9TrbBAPkjOLxgDiLwQc3IriFxJR56pQHGtVZXDDfLRirG24c4W9ga5GmTvvBWN/gZvMb1wyg966bAmvgbIDS3oUKwjkWY2HIK+B3WlqRhqDIohvmHwD8T6AC8QYwlQHsMfQb30JILMyoU+9pRuix+vu4ZICVK1cmniy/8ywCy+O+ZtVj4OqsqnxBElsvmH8B4yA/4Ynwa5QrMzInH/Af72/6ynW7oly5AbAthaGFga8QeCpAfmFwYbmjc+E5M/aRuodxVUaVAZwn1D7MtDPa8GR2ZteTo02NXK/5abZwttTR1/pmPCjAx85NJx9y/6cXzE+BIYXBsPI8ALnZdwLcDsZhIDouxERc15aA6zOqMiNnmB9j2LKGl1lKFmPRvLQSpkgaERkuuq60j7Aqb2qr0AbvGkfUqdN4xAxwSeH+/SrcNhfAkSGCk9Sf3z14N9+aVZNLRjJh27DDOAuMk739EFnHZVLTbgzrO0Kab2kaDKwQwNsZeLds2IbElDMcOaI7b2qO0PnfbqcErCBBC+fO6jJbGshT+eKeYqcQ4gwCfwLAoYF+GCaIf92fqOhnzzzwH8MdR7YbEQPoRukigOfHmwD/HRCnampXUEPXpAM9X5oPYvnVv96tysyLN+35/LkLpk8fiGq+4JrHJ+/SvvEXAE2PN8dArd9oqnJkrmCeyoylNsGIFmRSXd+qnTT5dfuCKvI0OMVzIm0CeOHGx5SFCxaQ1crYuULpM8x8BYA3xmnnn0+cNnUfUKsNZP2Le4r/lUjQrWF3bNP+iL6rpbrOa1pP3uM9xWOIxFn1Shm+RwhxWitfmG4ULwHojDhjer7kJRlVyci/ly5d3b65s0MKgPKTWaelgs/J8LnSH5itRdl08qY4Y7f2QdX1+IeKxcfOn518Js44I2IAhxh/AnBgq4PVvl7COdmUsiiqvR72VQEWSKS01NTrhjOu3mt+ABbklzWlSfsiQZzul+z1vLkUhFNlWybMyKaU68P6CTutQPghAYsyKeX/osbOGeZZDETSJMaa/9S5uXz4nDkH9ceoW6vS8hWgG8XFAGVbGSS0LvPhWjp5l/+30HuVcOFAhRfNn50M09G3NBXdKB3F4M9RlYHfIvcTwBPMWC0Ers2klN+EdejVD7jCYNTAYfIKg/8hIBZm1K7LAms2iocQ6I8tLSSsMtElWqpLymOxS0sMsCRffIdF9NeI3p9hxvnZtLK0+hqY9H7AOrrB0VvSVEVx+wqVrJlvFpS4cK469S+xV7QVK+YMc7UrDMZRKoW+WIDbmayF2dS0Ve5U9bx5HwgHhH8oyFWYF8rjPVdYN41RmQ6GlLveFFpfWFO1WdPWxSVDSwygG+a1AE4K6fyqzs3luXPmHCRdqOpKrqf0ThYsn1zv9P/GzJ8SbR0mV8pSmeN5W/OzbNH87GxFjjdmSiNhMGqSUToLgLrbyv2LKu3t72HiW0LaP8AV69jsSdMe9v92xcp1O/X1DSwBka3z8BVDU5U6xVgjArbEADnDfJ6B1/k6vEtTlcMbDeJ45Ybdf1LrJo/hIe0a88UvWy8v+tpJ7x1zfvrVV8Wml+y1RgiDUXSI0Fo+RKB/MjigfBIV8Za5J019ohFddcOU18aQPqRa+T+aqvj3KLKb2AygG2YXgMDbVn7FcaRc3SjeANBnGizoVjAvCpMLxswRIF8mMYXBqDnHs1twXlOTs5utWy8UPwumFf56ca4nt00LDFA6CuBf+Qej/srr/GrVsIl3F0pnEPMlgWsAeByMRVJ2aLbgsfC73lM6CIJtmaSZMBh9LTS2XBLzKZl08kfN1iujm5gGAoogBn84bnBLfAaIUK1qqhKrj+58cTaRHZxRV6R0TCSuEIRlc2d1/avZokf6u+0vgMoRAL0LhL0IKDPhCbawFpa1KuzO9Y/pFQa5zXpH9rPBezrOPLsNcxFVVcp1hQhqJtVcpVx3JXl6YNAxWbUrTK4ITCvW5slWer4o9eW/D/QQU+rUC6XvgPlrjQgjvygLvDQu98Yhslsn11P8IAuS6mh5lUUWYrqbGRnpMRxVySsMMvO3sunkgrhzkQLcy+WBMwl07qBOrTOsXVztnv0q4Mr9/j6ExYfMnZ28N86c4jNA1VoWEMxiTzbKR5/QB8Yk72QJ9AgDS4kTvZn0u/4ZZyGN6uTy5jeYcEFL/XC0A6nU1ScEvWj3F1MYvGzFX3cfGCifwWQbspqVBzVVeVezSlEniBD0xrinaWwGsE+BcBPrRgjr0EZvT90wzwHwvagFMaFAjLeF2uEBgwjLoxQ0zYikG6bU25/frF7E79/UVCWUceIKg5f1mvv3W/xVgE6rY3JGH1M949fNgXmulk4GZCa3juP6Jl9Rvqgn+rOmdr037npbYoBIdSVjgyXwsXkpRYZh1ZXugnk2hTln1Fd7sWKxkiC8A4JmgDHDfzwSsNYCL6MKXx83aLM7XzyOiGRc4LALgU/IqMlAH0t6iu+1BEmVeKgwWP0dp/udVQD8DUBPHKYkovmZVNdi/+T1wpr3gBO3Aryb/zcizMmklB/GXXBLDGArIMqVvwPYNWKAW5lxB8CPCtChTJBOmPvHnMwvNVX5uKx76cr73lApt0mz7wxX8+b7OpaBxMpGlkVHQn4k6p4F6FkwrwPR7lH+f86YW4jb9g27irzCIBH2kbp+GZNA4NOI8Gnfuu9jouU7te+4fHP5xQ0Atdd+Z2wA4Q1hdGJgrQDfzET3wuK3g2zL5sciaPqUpip7xqS3Xa0lBpANcoVSmpklB4+krAfx3WD6rK+TczVVqXPlWlxY8xGyRJrIPhWGiFad/P9ajF600fV+5xO9YF7t9x1wxnqJGN/bcUu529VcyvCwtoHEqUQU6vdPwLUZVanzQ6jSYshMDGAlCLuC8WHvmqQHksVWT1adZsj/63nzVhBsRneLxTxXEEkB+b9GQlSpZ9HUrp+20kfLDCA77zaKcwmUa2Wgobr0rCX4MEG0EyrV93QdwSDeH+Zjd/nyB19fTvRLm7sM3/JL8hUGlpNIXK/NmnLbomV/3bl9UnljyPzWU6JyWGbmAfIYDpRcwXwbM+4O07P3EXY9N6X829to6crHXrO5vLnOtcz9ncE/FqDlGVX5pfu/pUtX77a5s2ODb+DNmqrs5CjapH2g5vPQCn0J+EpGVaS1s6UyLAaoMkHpEwSW7k9No21qM2LcD8s6xr3Duw3zzwTUe/IyzM4t5YMamTVlzD8YpzJwQpCBcK/FeJQIKf9vTDg6m1J+0YhCulE6FuCghxHxTC2VtE3RuWvuf63VLj5HEKcA7JHWSXpAXQ0Sy7XUlD/7x9ENUzqH+GjO3ZqanCfrXmoU9xwAyfd7soVd3ETAiV5Ga6Ft61eAt3Pnnr0IsIkdyUwE/Fu+lzfu+fwVXg+eXMH8HDOuqfZJj9TuYsLlWkr5arOFfK9gvm4y4xQGPg/gHY3qE/CPjKp4PHrDaw/Ok3KFkvzS64JBibGILPF9K2F9DoCMOnpzCPP9MuPIMf7fcr1rH2LLentgVE7sp6WnPOo5Jdpf3LHjq0R2aJsfxsbbXJqxe4jbzh3JU3nYJ4B3JtIvcIATkijTCXY8vhQSpUPowwTq7egQK0+fMaX6bvYV3ShuAWgHgNcD1FG7BxtE8Yb1k+stftCycCqBTozY2ls0NemP9gmtqhumVHkf5aP2WgKkgOXZFF4jrx4BcRKDp8n6Fg28dV7qQCko10quUPwyM30/ZDDb5SxsEvIa6+joO5FJXnkkg1Tk2M8NvioeA/gOIlzVyMGk2cfj/j4qDBB3sAgG8DqYSFWxa25+zqK2d89LvauOmM3G6u4pnkFEFyH4xq69Mpr1EcYAvja/lYJwNp20heFmZmLdMOXXahdibGGqvt1ZiOOzs6ZKU/mrVl59Bqi6f8nnmiy/YaK/uYGdzPhZNq0cG4c6uXzpCJYOqj4Ju9aWsUFLK02l7OoVsPaZsDc2A9cLpuWZdNet3jnpP/rDrpi8U1VL6tMM6vniv0HknhoVZmwgkg6f/KymJkOffnHWO1p1XnUGkAvpNoq3DbpEVSN3LRzBApcTUI3jI2haSol8cejL1+wBQfNBdGYzogiyPjo3NS1g0azbzCghsCrkrMioinyFBIpXMwjCp7WU8vPunmKBBHnrS5SRrzuNv62pij+EvdkSRv33McEAS/LFT1pEP7f3m+hK5srPAFHbKObK+7LpA6Tas650G+bpRJgH9kYCUxGikoIl1oZQaz0n6NCogJXuFaU3U4WlESXc3QqASCQOmTtzSsDQoufXHQaq2MYyadR6ofO5U3fZ/Pras5FBDwjgGdf5w6K2t7Z6vY367g9HEbQ1JiH71PPF9SDag4F/91Ve2m9SYnLWsZhJr82/bHr0uUMXLKjGAOjGmqOIxDxmGYwyVATomLmOGbSBA8p6MM/yO550F9ZOJ7akc0UtyKPWM9EqMNdiC6JM4F7NIADpnWsrrhh4WVh8NAuqAlAS3ayluj65tWjZSr+jcgLIOAEhxFEEKIC1DxHtbLF8BdCjLCp3zZs1TSpXGhYvqBMzstm0ousF87dgfLDakLop0XY5VwbmA1xnWEFIrEGUqXRoEvQImG1nCindN0QT48R+TJV5BMxxNjDU+zZXKH2ZmQPSvmSYnGH+gJ32cfQRzeg1Wr+PiAGkHsDCwMVkP1Ua6hSeJuZvvPCYcnVUpEy9d0vVonXRNeve2NZWeQyO1GzrE7w+iUSrSAx8Pkqz1xApLCYFXQ3bZSvu232g0n4nu7gB3L+fln537f0uu7v06vveMNDRVhecwcCSHQgX9DEec+b+pKYqe8UcfqtXGzYDVC1SQoZ5xUbPYtCvqGPTsdqMQ6uOlb7SbZi9BMy0j03H11A3ilcGo3HpZSY+rplWT/YTgRcUj7CEOni4XGFNmlm4dpBnNFUJXBe5gmkx1z6GFzVV2VnvMTMQDvAU83laOvndeBPY+rWGxQCOKfSO4SFw0p87N/dND3Mh13vMD0DIiN3qPcnAv/xYPwRak1G7wn3oI+gl1bsEXhbi0RxF4edB+LyU5P0VcoZ5DQNSGyi5tG4zc0bxKYa0LjqXlhNNXOe922Htqc0YOxjELTPAkt7Sf1sWr4kbvBhG4UbOlLphSs/joNsWY4t7FTDRmdlU16WtfB8y/p/6rG8zsbTqTY5o+zIDV5UJ3/Qbftz6jsFIMqmtCuYE7SVfFXpPsQeiHqiiyshiJqrCpSwrNVWJ0FS2sprRq9syA+iGKa1bH42eAt/DoI6AkcfXIMzzVTfWHAsI6QAhvYOcgwD/YKavWMTPCcbv3P8z+H+yatJ2yGil2CrWyeWZYBzITmgYAU+AeXW5POnHZ39h/03N+svli19koquqhwCvnTzpof/pK9e1k/781XuecD+4GvVDhCOH69nUbE7D/b0lBlhSWPMRi0UEShbfwhXOul61TnjYRwDuBrB3cIL0bH9f+9skwS/uKU4d9LGTFjFf1BE927m5b3fXMqgXSpeA2Y3yveuPHX+dfv2MGZXhLn4k7fR8cQXI8Wdg9A2pnrl/oL9tr7b2iuPLKMPDWQzKNg9lVCWuc8xIptZS25YYQDdMaUoNeKMQ86xMOhkIUHBnohumjKQ93j8zwfgSE+1mq3C9wiThYTBsyxmD0lm1y3amkMVrQmZYF2XVaXGcLFsiSpzKTsibvArq1MuujqBOMyg7tKBps6M1mnHG3Bp1YjOAA/8iNVvSYuctyzVVqQpFEcVxJZPWwTrzpv9ZJ/3+KszfbRf0cGUIqetWTVUkUoZdpC2e2xNDGjbm47Pp5KtiUOk2zAJVHVTsQsTzM6mk7cPn5CmoQcu24qm7NTY6qs/YDLDEWHuwBSvg5MBM78umuwJqWv+AumFKR8UhFI3gjL49qSOxyDUb63nzThe9WwhKegEhFueLXxRDd/DjaBMf2Bp4RM02QjeK/QC1ufUG5YEaMy4xSp+wwDe7v3VU2ncbi3mJYjOA3ls8BhYFkC46N5c7w550fuL5/Oe8P/8GZJ2npabVMVcuX5zJRL12ReZLtHSyLu5dN0q3AHy001FLEbHNNjbO73reXA/yQsZVW7muY3q+tALEXp/HgL9jnHG2dp3YDJDLl44OC2OuWLxTHOAGvVD6ApjD490IfySmHyV2nVw44+P79clFL1jAYpd9S1KrJn3kns6kunYfdNqs2dVlHd0wn3V96Ah0Rhj4gpeAjuXweBZ0BAHvAtuSennQo+gJYlpLgle1D7Tf0OxLzRXWXsNsewa5h/88gO2jX1oMuWPSfJTLT0jhb6hKOLTM1t7gZv3HZoBBk20oigVFOHEGr4AwjZ6/FlmSSZj4GvnEq9fi8emamqzTszvaSNsyx0A5YfHhUSFRLWgEXwDoQk3tkq+XQFmwYMHkXfb9jMRBsGknvX4zKeUor4BsM4Gj0STQPQx+n1N3/D4DIz1tmZdp6aQfmbuOcFIILJcrT4Rr4vhZgAIBDgCKAOQdatvPmfnubDoZyPqVM8xFDmaf3JI7MrO6Puw9KfSVf9iByzv/lMCxkMKHJs43ampSYgfWFd0wpZ7AxiKWTJdVFTuszf5ASNwJ5rowN6bKDOKEm6BifCuC6q1zHlKBPptVu34cddw0wwYgpiuZeMNgEMTx9tEcUYQQh82dNTVgWew2zAdpKABloaYqMvDSLt1G6bbWN782gds0Vak9e3WjeC9A73F/9ZuFu43ieQTypJbhH2hq8steM3FnR+dr54whRNHYV4BcdBQgQZUgNM9/bMqAi/aBtqvC3LScJ2DCdSsnkfhQZtaUO+xwLuB4JskMQxK2Q/SNDFqYYOtGL2JmMEy6GiCRM4rf5WoU7kiKzVC6cf9JQKIGWcMsjs+mg/58esF8BuxE+ZDQtNTUnG6syToaTnmUnaWlkxePZEKj2bYlBrCZwDAlSFSUC/YLDBSJwRDobIgjyHwWEW1hwE3h8hA6XjzAtRTKaNpypf8kAksFUhCSjugGVKyfdL7Uf4PUFHYba1SCyFeJww9ZoIwAomIAniei78HCaibenYmmE7OMMQi3bFp0MAvrjx6GDDXp5lY8+Fau9D/u2aBnNu7Rtcdrn1i3u5Wwqs6tMaOJR3OTG/XVMgPk8sUDBwkmdfJhmPzx5k24Q0spH3IYSm6a6mzcVZqatLH4vEUvFK8EBwCa3SrrGeglStxAqJzLXIvJk2ATQe8e4Hbqr5zoRzVZsnztXpWE9ZNQG0Z9CDsPRgwPSfeeieqGKSOgZSR0rRDhwkxKOb/bMK8hx4pITNPHSkLKlhlArmxx75r3JyxxUwvm1SGCMN1dLrd/3DW6LDKKe7ZDBpTavu9gWGk3js5t5ETMuMDTMp2r/JoCGLpM+DUBEkatppzxbgYDv8+qSnhqOKeibpgS+j2Iz+v83ggRRTfMx6qGLH6JQNIX3A7TlhtuCd6RGK43ca+mKoHIpXhfz+jWGhYDyCnkVtz/VrYS17cEF8vIaWlF8y+hu2CeQAxXUt7YbnVM++rs/b1HqfQZ/JELiyZdqmCJp0DWFwg8M+IVEaRUDDSThgkjmK/T0knbYSVwSvWWZsDiqiDMyAkhfmWxZRvOpMVwUF3d5RUG4+pPRne7g70NmwHcrvS8eTIIEoQhECo19NnjDkIim0lNkX4EoaUegZQDUTwOxIvtVEmgGzNqV+2JtsQonWjZ4WFcF81TNxDD1NJKrJg73TAlpJ3PgskDmpqsi0729u/VA7im6jrsX8I3iG2lUxUOdowYh0bMAC4RqkifMnbd2scOhGB+CkQPE9AbN4QpVyjdxexk6wqRlvV88U8gso9VLtNe2c/X5yPovrr0ZtFho4p/iQH5wvCWn2uq4o/Zj2LGmwGqGaBspiPqyaS6wkAycUnhgf0qPFAFdPTIN47+404X40AIcbxlWVWwiTEiDI4aA4zGUVUForLlAfsO9xuadGPNlwBxZZWAQdTxXN5cyMDckLAw2eK3mqrUxe5HzbnbMH9HQD34JfMWkSBt7qwgnJ1ulBYDbOMnE+HkTGoI4dSXuOK3gPRErnoORek1RoOWcfsYUwwgJ633lubDYhlxbANAvPDoc4e48QAyGniS7W4u0bXo75raZaeG6+4xP04CEoS55kkUQgA7Dr8ZYaTmEOWdZEaRKLexZ0C4UEsNZSDNGeZTDEhfwOcrFu/lt414HVmIcC1z1aew0anSbJ6j9fuYYwCbCbyoooSclhoSHHMFs5sZtiApc/iA8XEKxgNKo1FgbUx8WjaVrJ4gEUU3SlnXsFNfperZ4/7PVmQRLhz0UHoeIFtBxMBFWVUJOKgs7l29m7A6pPNIFaqe+SEQ2bqUjf3P7bDg5OmBzORSubVT24uHEaz3EZGMuH4TmDYQWY8zxF+of2BVHIDOZowyJhngsp7i3v2CJJS8Hc/vtbNf3FN8b8IBZwK4Mmi4qbvrmcQ5VqVyeUKQROLYwU+ARjmAJZR8GBqq/LKJKh9ibpOAENKnwSMMDs0hQTjozBCgLOdkG3olgB4E2AbPDrNiOpD5Eq6mIfgGA5exKF8wb9ZB0io6rDImGcA+1gtrZxNbLrLoP9vA75HJGpcUHjjc4gGp4asDWSTmu18YeP5I92vynhR+yhDj/HLbwDI3346jZ5AbGwUnV4OLu6SnOLWSIBkhdIoP39Bi8Pnt5coPz/j8gX4YGHsKATex6sRqsPmXGo/sMoCXpNNtpB4iZJelyfzDmqqUhsMBo8IAzjv+SAameQAi5FPqUQb/nkA3DWeCuULp+8z8ZXthRDdKqXDQSugPFy8LQQf7U8g47utSMROKxtkCsf5D/ZW9/cdtNVlWQvo61j8tGRYJusDqw9X+V4q+cs0e3Cd+JxHFvOPLZ+NOm/vNzZ0d8tQbTiaWjcLio+Kig3rHHhEDOEkepC6/kfDljtc70J/InnXylKfjEn/BynUdu5QrEhK9EVEi4dH9fnlxx/XUe5kEPpiZpYRm89ANU2ICSDSUF8EsQOQDbcRCcGKZFwImFDNZwuSQzagSCW245V8D/YlprdC3egUNs+hG8TSAWkWlejJBlQ+dmTrABYRoOLrj8CGBmfxu5beDePVgJk8be5gYczLpcHBE516XGrpGeDuBeUghD4QZUX78dfhGzN8VCXEpM5/FTFJO2Ln+C8cSy+Jl82cn7ZD1Bok3oujxIAMbBNDVRP0eCTkT1fGwGKChe1dzhnquYvHB82cn61S93mYLFqxqe82+uxksLXSEOsOLfBpmVOUgvXfNlBoGAGG1llIi8wbbCSuI5FfW0A4wNAdeRQkrMujU2cSazYBZTMump0oHFkjouC39W77OUlhkH9AU0ZUCvKyvn/7T1sbyVdAM1PFRYszPpJVaAszuFWsOoIHEt0Kym9vTbzXyuGUG8LphNd/ryBqlzs3lQ8KcSbvzazSC+BqoDi9vAODHXYMRgb6TUbu+3m0Ur3NBoeJECjnQsVJhE8wNXCXfPcS02EvwsBV0X7c2SQOWq9b+qaYqgUQY11zz+OT/tL/4dRnKHvhqCdfYUDEhUPHueAT+cUZN+oE0a9PJFcwUM2rxEp553q6pSmzvp9YZwDDl8b1v6NYyXUeCl1lAh2B+P4MkVGyEhw9drKldNaz8JctLSkVY1xKRP/Dz9o17PHf0a9fvug8T/dElpoweJhIJF9OvFaVK9/I1bxciUQvitLceYr33rm7E3PXC6RB+YFgbiTm0xCh9nQnSq9kHsUt/B1imzPEVOyLqLc28rb3R1N4ONvbvvMOCk/cO6BbC5tcSA3QXil+mcLizZwTEJ8KyezV6jtUCKw0zD0gXaq+PPR6zmFPzPbj33pg8CSnf3//S4W3tk6XFLUkAD1i8cxwP5RGcXHZT3TAl5F2nnMMLj07dP2520CrYtoyCCvWBrE2LCHompTRNzRcl5BLzuzPp5H1x1tkSA+hG6V6Aaz5xzgCbyKL3ZmZ3PRg1oJ4vShAnW73rLUT0M2aWb95aeNUg5s+LgLgik5pa51jhtvMKUCRROSEeYli2hY2Z52fT1cicrVWWGGtPsWC5aNwXaKoSii/caPxB5LAz0QAbmIhmZ1JdjndTdE/+KKlaTeaPaelkRAynbw/iEsr2awAIAAAHw0lEQVROFysoLKVLLCLoja6OoUnctvHRrqMbfVF2soYErQY7KOTM5w0KihdUNYL8iKYmg2iccRcZo16uYK5mriaSRgz/gsiPQvoJMn0P5EENdyoz4eSsx6AU1UcDT+3RZ4DufOlQIpaSb10RzPvHSWluW+oismXIoxSMjB9/r8GJ8tFBs7ALwryZGb8egmenjwwnQXWMvYe+onSQC3AtMQOzqtLyuz1nmKcDuLDhcy5mBlAH2EoCddQVTlgHZmdOC6SSCVtj7CvAZ9as9RU3aZRuFE9yjSa+ifyGOisnZI49IBR1O5IJPDmIJIqY68vHhJ9lU83BJSUmEXH/XpV2Lk8qT3qiWTSQnEeuULqKme0YiKhEElHzteMZQRfCBol0i0yNw/1BV3h6Fh2b9oqC0nFb54zidRwCjdvf17FLHJyD6jpilihsgLhBj5LzPR7AYaOuBGhZK19vnd2e8YTMAmYvisu7Z9IHBXINyWcgBKnEkIka/YqhpxlYBfCysKRVK1dyYn3Z7HOMT3VpbxuR0MYVgrigHssQTzL4yk2b+y95zU4dqpua3tsPAyuyEaCUsp5umDIqWaK1+7//2JjILTFAlK9c7MSRhdJPwOyPtAkz265n5mVo595m6dguue6BqZXKgJQH6qJxBl0tLtDUqTXhzMlcKg1Lgcii8M3jW/oTlTmusahK8LWnAZat+XRyJF/YaOMX582UqCJ+D7nQM28gIb6f4Mn6Gep+dj4Dx8dBIooEfRWYbh4YEKf61btRQrU9nxYEwJYYoIGjxJ2aqtRAFMOI4uDqSMOMn1tvBEPCvBznunrVfQXSy5dx7ev6d77x5Ih3rQ+bTwJJSm+iGoKX81SSblix0cyqc6BniXGC676dK5SKzGwnu24k9yzOF2cK0DkgiZnoFtpIxFe2D7RfHHbV5IzStwevgvOiGMq+4qoYSVIrKo1PoWZiV0vaiDH9v8W+ApxjR+rUA4IPA1dkVeUrYQM7rwcZRxCAR/Fi9y7O33+koLbP2KdEMH/OZnk0W4KvDwOdzBlmrxuMWSM5+AQW/CAsIbOSBPwCYhLpJQjrYILYhS24GAihLt3dxpoTCQnN90wug+jKgbJY2MhI40Q2SYfXVszA/iW8YCFx6Dx1ygMx11Zl81YqR0UIO33cCosWuAkXq881HAMm+UYPACPKZEhZVQmggekrn9yB+/4ts4x+JtTLl+1onkKikrjRTa5cTRxBaxg8NA5DAkxIXXu41jL+wqVZW26+HbxiMY6d59XNV13aZXKLuuuFgKVWgr4TF7hi4crVr+kod0g/h5aZwDZcCRwdZbVstNSWGMA5BUJxguLT0zlgiY7LpLqCqVk8Hck8OiwJzzjOb0N3qhlE1k8zqWk3dueLnxxUIwdw/ULnJR1PK3S2ZFYZv9hhtU1ntrOABLJ417Un3K+lFNs0LQVKIWiOH68Y4OVEdEFcT2j//PSCeRkYoadpBI3vFRUxo1mm8aj9aZ0BqhlEpT5g2IhXMv1KJq2EavqiJprrNT/Nlp2aRgqSdfNmxmMkSF5Pbwaz7XEbWRpkImlgYHG7OxcgqXmcU4O3r905dB0n2r6Z/ew7q+7hIyi2wA1cNISTHNYZ/x1M39LSipNyZ3gDtswAchgbw7ddQrpXQ59aLHXh2y22hcwe1ifKEuxxVojhCGBrI0hECUlNM2vpBTMDdmBdvZMjDMDCPUGTMt0IIc7XZk1Z1+pamtVfki++wyI7Bc5+IOl1TDL30mPEvCquqrfZGMNiALfTusiXZiMBTzPznGw6GcAZat40vIZeWPce8MDJg1+lDNdqJuVv1FSlWR04aGibm86J6WYS4vxG0U5N+xgDFUbEAHL+tmm1LXEeM88OW4/M1sXMV3Ru6V/SzLw5Eno4ihF5MoQGf0ig6qza1QDhdGj0XL50F5MToRSc1G0WxPnz1KmBnIcjmf+r1XbEDOBOXEqxk/om1dvyE9w3HMl0JMSwPXyZZHZOzzvcFhpuyqiK9E9oWvR86aagxw39kxnHx4HEazrAGKowagwwhtYk0UQvJdhPM29Zp6lKNQ9Rk6IbpYeD+YSHEjw2az+eft82GSBvzhnMzPUD/0ZYSExppiiJUnnHgaEbTxvvznWbZAAbu6CSCDqdMn6npZWGb33dMKXSJ+Az2AZ+swxMGY+b3GjO2yQDyAXrBfMvYeAVEtcP5coMf6CHzCeAckViDocxSOzI4vHGINsyA3wKjJo7tW9jZPSv3Ow7AW4H4zAQSQVTeOyAwBHaLKWWq2C8bfJ2eQLYp0CoNN/a9jWzy7fW29irvc2eAJLUVSvbxl/ARi4ZVmnJx35YI7zKjbZpBrCZYNWqtl3+sdtiMDdNLevdCwKW7NHx13kzXqWMJK8UX2zzDOASUu81PwAL0qOnCtIQXYoEcXpGnRpwgH2lNuWVHGe7YQCXqNJDCMxfZNA0OEmjIOHiwWtA9KOxltRpazPDdscAW5ug463/CQYYbzs2yvOdYIBRJuh4626CAcbbjo3yfCcYYJQJOt66m2CA8bZjozzfCQYYZYKOt+4mGGC87dgoz3eCAUaZoOOtuwkGGG87NsrznWCAUSboeOtuggHG246N8nwnGGCUCTreuptggPG2Y6M83wkGGGWCjrfuJhhgvO3YKM/3/wHVrc9xpw5rsQAAAABJRU5ErkJggg==;rotation=-90;" vertex="1" parent="NIIjqhKRe15nDF2A4hRN-168">
          <mxGeometry x="89" width="220" height="220" as="geometry" />
        </mxCell>
        <mxCell id="NIIjqhKRe15nDF2A4hRN-169" value="" style="group" vertex="1" connectable="0" parent="1">
          <mxGeometry x="1383" y="310" width="351" height="206" as="geometry" />
        </mxCell>
        <mxCell id="0INgmSK9HUNSs3rKqE9F-36" value="" style="shape=image;verticalLabelPosition=bottom;labelBackgroundColor=default;verticalAlign=top;aspect=fixed;imageAspect=0;image=data:image/png,iVBORw0KGgoAAAANSUhEUgAAAIAAAACACAYAAADDPmHLAAAAAXNSR0IArs4c6QAAHixJREFUeF7tXQmYHFW1/k91T5YHAlFRQXiIivJABYUHKg8BWaarA5muHmZQQR8gLizT1SEQwjPCRAQBkenqAYQg7itDujpD0tWJwIsIskhwARRFEURUlgcIgSzTXeflVlf1VFdXr5nuniX3+/J9ma67nvvXvbfOPec/hO1pRkuAZvTotw8e2wEww0GwHQDbATDDJTDDh799BdgOgBkugRk+/O0rwHYAzCwJdEfjuxGZ70cehxDREQDdzWSuJ5N/a6SH/zyzpIGZ9RkoR2JJEA1UmmQCUlJQiq0aGXp6pgBhRmwB3ZGBQySSDACvr2diCXRORk9cW0/eqZ5n2gOgr++sHTfkul5pdKLyJh+2dmXyF42Wm2r5pz0Awor6PQZOaXhiGC+bEu27JpX4R8Nlp1CBaQ2AUCQ2SEQXNzsfDKSyutbbbPmpUG5aA0COxEZBdILfRDDQn9W1kZAS/xCBbwSwv0++Jwxd23sqTGSzfZy2AAhF1FOIcAOAf/MKxwxK+6wZGfqT+3c5qt4LxqHevF352TuNjl7Z8Bmi2Qlpd7lpB4Dj+xa+NZczFxMQqyDMPxi6tq/3mazEbgLo9DKwwDxwjT78m3ZPTLvam1YAkCPxCEt8PjE+XFmA/EdDT767DADR+A1g/mxZOdPc31g5/Lt2TUi725kWADim74Kdu3Kbzwf4fACzagmRgBMyuraqZAtQVLHM7+gtu3HneXPXfXtwU606p+rzKQ+A7p6BYyQpICb/uEYmgZmXAdI6gnkIQJ8B4Z0+5cfyUv59a1dc82gjdU+lvFMWAH19fYFXcrudTyDx1tel4WtyYh7qyuPY0VHtmSbLT+piUxIA4V71UNOEOOhFi9IljIHR5ZH2wwDEv481MQuM8buSO3cMSqGRkaGNTdQzqYtMOQDIEfUcEJ0H8F6OZInwGDP28Up66+8nZ1LaD2VF/b+GVwnGeSBc5apz1NC1nkk9m010bsoAoLt34f6SaS4G8CnXOBmMH4HwibKxM/5qpLUiSMKKejMDfXXI6M95M3DU2pVXPxVS1BgB2ngZ+o6hJ06to44pk2VKACAUiZ9KxOeVaOsYDzCgEeF7ftIm8JkZPXm9+1lYiZ/N4Gsqzw5php6Il3wdRGNfBNOXXCAoyzNlZtuno5MaAOHo2XuZHBAHvbPdfWfghq5ccGkumPslgLf5jOtFQ9d8D4YFRREfSmweCqJDQFhPJq0HSesz+tV/9JtMOaJeBcIi55n4gsimk4NTeeKL2+dkHUS4V+1lE+Kt/6Crs4+ahKuyKe2mkKIaBITsZ4+D8QIIB4u/CVic0bWvTuTYQkrsRgKdUewLczyTTrq2h4lsrX11TboV4Gjl7DfMQvB8EM4tPdXTD/KmdKG1N0fVS4ix1BGToWskK6o4tYuUO/SAebMHBwfNiRaj9xzB4FOzevI7E91OO+ubVAAI9ardyPN5RHSMSwhPg/gKI5UcFr+FlVgPg9LO89lM8zYTi3PA8dZvTJcY6cRFrRDicZ88b4fAhlzKrXRiQk82pY22or121DkpANDXNzhrQ+4loc0T++w818BHOY/F2VHtD+I3sX/nc+bfis/J7DNSw7e43n6MBTfuctvI8n+1SnhWH/LmCtfN4WbA7Db04Z+1qs1W1ttxAMjR+GFga+KV8YHSv0DmZUYqeaV78LISewIg59PuekPXzgxH1W8w49OFfOWn+FYIT3ySBkzzFgacW8VnkDdlY3T4V61or5V1Ng0AOTLwDoJ0IIP2ZInv3vTCvF+tWzeYa6Sz4UhMhUTnMuPfXeXuIKZFmXTi1+66Qop6BwFH2b89Zujau8T/3W9/ICjt0S6LXhu4IwB2s6AHPEqSNH/1iqHHG5FBp/M2BABZHpiNudIQGN0A3u7p/Etg/jkTrszqybuqDaxbGThATDIRfdKVzySiSzKpRNnnVUhRryfgc05eceizJ/9SAP9T+J2/aehJeyVoj1hDvbEwmSRA4Bid3BvMBU+49davPd+eHmx7K3UDQI6qJ4GxHMBOtZpl8NVZPVn8bi5dxuOn23v9fq7ff8kgNasn7vHWHY7GzmAmYbJlpcCYtMeqVQW7fffbz3ns65wVavVvIp+Ho+ontqqhf+Cq03h2140965cvH5vIdlpVV10ACEfiBzJxQ/ubFwT2lnEuE84qGQzTlUY6cYHfAL3tMnE0m0rq1uRH4wNgTtrL70hG1/pbJaRa9cqR+Jkgvs7Jx8CPsrpWrp6uVVEHntcFAFlRxY2an9Fk1S5LJh+2emXyF+FIrJ8lEt/1bpu73zPzQDadvL1SJXJEfRJUOB8Q47pMWitqBN1vv8R88Op0cn0H5FdsMqTElhDoK84P3v52sm/V2q4JADkSj4N4qJkBMOGXEuMuLtjnBYp1MA0b6UQlmz0rm6yo/wvgSLtMiR2fBSiin1jPGGuMtOZoBJvp5oSVCSvqVxhY4qrwMkPXvjBhDbSgotoAqPz2P8KMIYnwDIM/BtDJdfTvKQLO8ppject5DTSdQ5+Tr2TvZzoqm06sq6PttmSRo+p1YJxZXAlaoJaeyIFUBUAoEn8bEf/Fp8FHYJr9bmNJuZJRpV2YGDft0DXvrJGRwS3VBhCOxC9k4sucPN7DnawMHCFMuayXn/CLbEo7bCIFMhF1yRH1B+4raiZ8PpvShIn6pEtVASD3qCdBwo/Les0YMNJaybXq/J7Yh02J7vYZYZ6BjwsnjFqjDyvqsQysLeYj6jNSiVvc5WRFFQaas8Vvfsadtdpo1/Owoq5iYH4RyOCPZ/VkuSzb1aEK7VRfARR1IQFXe8uyxPOzK5KZkomRB3bCHKlcBct42UhrO9ca5/z5Z84zZ80S9vd7Wnl9zglCfyBBshVE9JChJ95Xq95OPS9YKm8Slsf/VegDM5s4PruyVG6d6p/TblUAVHqr/e7DQ4raR8DNPgMaI8IxmZR2Z7XBykp8HcBH2Hl+Z+ha2VdHyVeBiZMzK7UfdlqA1doPRxftxZy7FcB77XwvgGiBkUr4rZQdGUpVABzZd9aOc3NdLwBlxpYCz0WjiPmR2EEm0QM1RnAX2DzVj4VDVtRvAjjNKb/nrhtnLfcoUkIL1HdTALZ5Nj9p6Ek/Q5COCLFao9aqxdKo8zm71aTtcTLzkczKax6aDJ2t+RUQiqp3V/G0eQrAiwAaWYqvxyYzbhjDm4UAwhF1KRMucYRR6Zs+rMTvY/Ahhd1h8h6q/Ca1cHCllQA5W+H6QJCjq0aSf+00CGoDoGCP960mO3qPJEmnsGle7jXIFCwcIH7RrUYlotMyqcS3vW0J0zDm4BPOMmro2hstDcAUSl47BgC3b2Q6cV068VInh1ETAKJzoUjspx4jjbr77HzDd/cuPEYyzcsBHOQqLKx2pMLfla9y5WhsFOy4edP5hp5wm2vX3ZdOZwwpsf8mkAvgdIuhD/Vbes4OpboAIPomK/E/AGxdwTaSHD98p4wciX0WRAIIbsOPjXkp/wE/F6wFC9Q3jwXwzwJGMNaVm/2GqeyuHVbUmLBmHpdh+28x3fNXNwBsEJwO4mvBmFMZBHwpmHYAoWhe7dXkhaPqt5hRZl9PwMgOwbHTR0au2+DU7zHG/JKha00zfjQC3FbmlRVVmKwtc9ogYCija+e2ss1KdTcEAFGJdZcP6QgJ+E8ABzNj960/38Pge8F0T3altsY27CzeiROgZnTNurmTo/EvgtllZw+h1XN0/nY/6VJDTyw9pu+zO3fl5hb3SJNo9+nC2RNW1KsZWFgEAdEyP1uIVoOiYQDU2yE5ElsMoiuc/PlXu3YM7JCLAPz9Yh3MMSOdHJ4fjR1lMgkzbvf5QHxdCHAUTMUYCSOtFQVWbz8mcz7v5y8D52Z1ramLt2bH2TIAFLaMoqk2iPl7TPRRAG+1O3ujoWslhAwVzgf29p97d0a/1tdxo9nBT4ZysqKm3PaQzDgjm9ZualffWgqAcDT+SWb+rs9gfmvo2gGVBikrqjgklhiJiPNBPih9fs3IkFBMTZt05JGDwTnzXlzrsncEfO5AWjXglgKgsAqUqHitcYyN8V63raquBHGvHp7BX2HomvvOvVWyaVu9J5yw6I25YG4NgA8UdjtsIDZ7jfTw+MVYi3rTBgCownNm3KOX+AKvubd3bLYzqKN8ugOA0KCVng+YlxjppLBRnBZJmMyBJAGCd9gDeook9GVWaPe1coAtBYBN1VbqvUtYY6SqW/CUnB0IR4iLJFlRBYgSHv3BelOSlqxZMXRbK4XUrrrtO5UsAKHpFOlhCdS/Wk/8vlV9aBkAhN08M99MsD4TS5JXOeR+GFJiHyPQj+ylMJvVNdn9PBxVL2GXX6B4Zp0PiNTp8IkYisSOJiJBbO2wndzdlc/3j45e8/dWgKApAIR61fdJeT6AJRKXM3vApJ+RxA/uEBh7UChxBCe/xCyuhu27cDwCxk9dyqGKh8Cwor7GwFwLAD52B+L3BQsWv25M2nwjCCc1ej6YCvECwhG1lwluQxhjY3Csf93IdRvCyrnvApsHscQHgXEQM/8MAdzPLP2qmRegIQCEojGFQBf4MWraE/E0iJJgFnf54/u+ae6/RTKfmYWgMC97nf12q1lbOeRMouD5A7Fl9g3gbkPXHAD5gr87Gv+AxCzOAXWdD6ZSvIBQRP00Eb7hDFzEMmCi5325DJ1MzMNGOlnV2NYryLoBICuew1y96xHhY0ZKsyx45WhsMbioHHou/2rX3mvXXvVqEQCKKgBSuOd3lavVlO208vVK54OpGi9AjqiLPDxFtUQhnr9gsimvSQ/fX0/mugAQVmKnMUgYbTSaysyi3ZdKBFye0bULRaVhJRZiWHufmPzfGqnKeoJKnQhF1KXksi2w84kVxeV4Wt8QJku8AK+iqL7eAzsGx17nvlOpVK4mAMSew8hb7tkNJ8J5Rkr7mrucVzlk5sf2WTN63Z/kiHovqOA4si3asL6+vlkbcrsLVzI3mVTDXcckiBdgy17YQFpnokYSAd/P6Jrb99K3eE0ANIvAYmssdRvpoRKFhls5RIRvmyZ9h4iFI4hIE0LRLvcM7AdJEp9UBSPTJlKn4wWElHiawE1T0zHzYDadLN46+omgHgD4cuyJTy82zUFzVvCfNJaPVQ7MQEsNPSG8eIvJa/7NwF1kfzHQBHLvyErs+5UcVqZCvABZUUUUM68XtpDjOhAtFcalVYxxxVr6A0NPVo2WUt0quIKxp5h8rzOmrMRPLrnps6ebCY/C5DJ7eInoRAbe4wYGARsZGGJmx3mkJkCrvdgk0Rng4uVTMWsj8QKYWfj7WfaLLuZQpy43m2glq55mxzCLiKzzkSc9Yuhaidy6+xa+U8qZj5XlJNxnpLQiyVbDK4B9O1fm0cJMp2XTpbZ7VbyImlh8W1qkoXgBLe1JE5VXcjqVFVVYTHtp8F8wdO0NVV+Sag89OnlXVjrF0BNun3hURGETg2xtkQbjBbS2M43XTrTcSCWKZBlOBbKiiggozj2C8/Pzhq7t2jQA5ivx/zDBZcEShE/epsBYt9BMOZVXCdD0a2Ze6bv8EAlmr6ISh4EsmL2XH84y615uawqOgNcz6HQi7ODN7HUpszWXwq+hXG1N+DJMztdscNszlIyPGUFJIj/P4r+bRAe7tX5hRT2eAeGA4k01lWk19yfZrZxxrwHACJgu46780xgLnFzJhbxSEMbjes/ZN2AGvJccZcqhZuRqq1IFj+CBFco/BaaYkU6kba4fYWd4rE/esv22mf40W6YKL8NPQbSscAiMRwkWUYZjaONqrrbBaW0A1PD6rT443gSJP2ysKGfPkiPxK0AsyJ9FEnZ/u4j/MNFXsqmEzfvTmOhEDIFX82/9IjN/cdzcvLE63LkZfG1WT57TfA3bVjKkxK7x0uQ2UiMxfyqTTvpyKTv11ASAvTw2dRNFxLdlUsmyN6vswMh8EchFyMzmOxsN5Cz3DrwfpiQm3q31yxHwm63Lo/uuoF4Z/sPQtbItod7CE5VPVlQhe4uJrLFEVxl6QgTTqJpqAkCU3pYAjA5nv7sXsqIK5YTN5lmgYJcVVRAtfkTkE8qhTEor+grWGoTlcEG0FFwS9mVdHl0nrdWveraKdVHlqpnCRjpRUE13MMmRuAziEk/serrjNcWvVKYuAIjCPvQn1fohTMIdowZIxB9dnUpamr5w31lv4VxXMRyraZofWbNy+OflyiE+vBbdnHzywE54VbrIzeRtA+jLmZQmVgMrhXsWvpfJXOVy0Kz+VtiBJuoRdKvzhCPqtWXEWtUbnfjLIKc9YbHCwOVcyuXr7s7jgiPHlPIPBcyAsAdw3KKfz0v5w4Xnj5sBxKtqlSPqj4t3/DW4f7p7Bg6XJGvJd28xrxC4P6MnhQq4LMmKKgxNhcGpfyJaLm3evGT16q8Lk/SOJy9NPQh/RSmpZmkfW3kd7G7JMl0S+6okHQTT3A0k3SdJdJ/5Wu5+wxh+WeS1qVwECN5kl30oP3tsfmBzl1BYFIgVPcvsfCX2HhNUdJuuZDkUVmJnM0ic8t/i6pdBwbHTMyPXFdzIKqRm4gV0AgleRnQiuo3mzOnnjVt27ZhBSKOC8OqpifAos8Ovy2sNPSkYR0uSHFGHKlkOHbvgnN27AoGL2MUaWijMSw09WXLf0GhfJ1P+cDR+IfM4TxKAu0yi/mYsfmqNq+4zQK2KKj0vBHmCRfXuTpXebkU5+w2bfCyHwsrCEMMUB8cPuep5lpk/UY1rsNl+d6qcHI3HwS5aPsYD+Xy+f+2t1/iRdW1zN1sOANFD73IG4GlD1/aoCJpofDGYbbcyehZkXgMmoTMoRvYkUCpPOKcVb8U2S7XJCkJR9XPEcMc5mrpWwWVLu6I+C2BcL00cc4JA+MlLVlThBlYWCk7kJdCijJ4oI69qUu6Topht9u6OPvIYMfV7WdMnurNtWQEqmpTZAR98ARBVh8HwaOHoSUmiM1ZPEz8AZ9xyNH7iVkNaN43eUyCz30gN3zvRE+6tr10AuJNBh9uNC6oXh+BpI4iOdbNmCXXuhrG3Xgyy1Lnu9HhXPn94q+zjWy3oSvXPj8bnm8ziIseZi+eYqb9d7KctB0AoEv84EVt0bsT4Sy4YOEXK5b9PhL0dQEiSdLQItCDUuWwGLq5kBsWorRzq1EQ2067tBCLiDTnxBl5mCf3ZFZpwEWtLajkAZEUV9oAFZQ3hC0ZKu8wKtMB0M9i+qiXcB4ZwiRZOn+MmUIw/gPifABX4AycRMfS2zo7NwSgm3zHY2GIrsXyvzre1vUrlWwoAy5GESfi/i/T8ljzec7sdhbuWqTkRbmKYgxLTLvUoh1oloFbUazu0iIke/xJqwA9iIvvUMABEEAeQ+UGADmRAEDXvAcI6MO4Fm79yuzS72b2Y+CvZVLLkmtcbCsYZmJcpQ46qIkyNxTlEoN9k9ESle/6JlE1L6ioY2SDtJtzqZPzBhgBg69KFlYrl3uWXHJs1zy3WFrC5n/uKtxDHV9wIsqMqtneJcnv2gv98/nGAC+0SxYxUoky51JIZm8BKjzvhnL2DwaDO4HFyDEn6nLFiqGNu7nUDQI6qt4DRW6c8/kzAg0VySMI1RkobEGWFOjcYCIjAUJ+pVJcfE2jpRQ49G8y9tvetty5/rc7+dDxbuO/8t3Bui/BScofCLZJndaqDdQGg1n5dq/MmzAPX6MO/sdS5ZA6WOZcyXwCi4wAcXdwGfCJyupVDfltKrX506nkkEt9lE3GqhAaG+QIjXRoXsRP9qwmAbXINK7h5fTub1k6z32Chy3c+ecSp/j4iHhTXtzYdrKBXd2zen9sacmZ+NqWJCOFWKtOWNWE51G4hi1B7NCewgsHF2AFbxXKxoWtuqrx2d6vYXk0AbKtrmLAfIHGHTfBG0fpWIMiDbsJkOTrwQQhm7XGV8cMgUzZSw8VwsW7LIQdcHZNeHQ3LSnwE4BNdWSdVHKGqADjooM92vWnPuc+DymMFul3DpFz+dMDi+fNL4g7AfdDbAvAXDD3py/fr+XQU9d1+6AHzjnOigTdjOVTHPLUkSygS+647OGa1eIot6UAdlVYFgG0yXR4F1Mc5obqPWqEnBLrfNM1ltaJmhKLqWcS4tnge8MTha8RyqA4ZtCSLHIndAKIiD+JkDSNXFQBhJX4ug0vcu4W0/O7y5b6BXZGTxNvum2wv4GXZdMKhfa8q+DIuIBdTqNdyqJ28evWgRVbiCYBVJ69QamVS2hn1lG13nuoAKOeqsfrn579vu2M/4j8A/iOZtKzREC8eomgw+MKsnrRs+mQllgDIEvJkUg6VG8/W9tBt96S726u+BRS464TPmTeVhY0LK+rN3qAQPuXulIgHHQvhegYuK6pQmS4ovk3g0zN68ltCOTQWzP2FHCORSaAcCkViFxPRePBrwgojpbkPgPUMua156vkKqOSjLpi/rmfCM1YwCeYS3t+qo2D8RCJaVg//nRW3KN91m0t38BqBe8Wno8fK99lgbmPHlEMe/iOxTa5+XfDvPSMjI+3wK2waNLUB4ImE2WBLr8CUTibJ7GfAh6iANATzlxojw89Vq/f43tg+eZPEraJlR0CEv+TZVIRyaTIoh0KKGiNXEAhhwZvbEIy4CbAalFvbstcGgDwwG3Osw13NsPE+vV5i6Jpl2ydHzzkMHPBxwuRNW3fxwR2Df7+q2tsSjqofYYaw93f4cu7NY3NPALNF3OBxU6o2K4dkRRUqbbcu/64tyEVu168VzCqTPtUEQGHy1JPAPhFEqw2vwv5nf+eLfbIk0ph4q00Rik5Puu3iSlrw9oNAKzN6ItIp5VA4GvskM42zoTMe6DLzPVPJaqkuAIhZCPeqh8LESgbeXAvWZB/UquULK7HPM0isCG7nDlHkHjBdUskvr8xsGrjRUkqVhpz9r1YHZ/Sx43tYkqQeYdlUSz6T6XndABCdFtz2c1//4uVgOhHgvUoGwngZhNsJgSUZ/eq6AjsceeSpc+bO23nxVs3CoLWzu5JgxoSEK/3YsuVo/Apw0bVclPwyCwtiLlDHCqIJL8fwRArdJmRYAWCWXe9jMM2IO5j2RLbXyroaAoC7Iw5nLQi7MeG+Z5987f7165ePNdPZ43rO3TNI+SV+TpBCgwbKad5oIWFF/Z77YCnInEpIlVoUdKG7Z+CYgCSJFcfiMwDwlEkUWZNKPNjM2DtdpmkAtKLjBbp0aYnn8kQ0lReMGMGxwNdvvfVrxWBUsqIKmvjiFTIYGRDCTt+quUgfeergnDkvvfTBTV1bHnBT3VQbl60aF+bbjr/+cwzqyeqJe1ohj3bUOakA4AxYWBMRmRe6TMmdR38j0OWHHLDL18XlUHffwtdLOVMEpXYCTZe4pcPjfHJC76J9c/ncGSCLMKIYqUzcUTD4QTCNVjp72Fz+wtnVMVp9WSKONKLUaseENtrGpARAEQhWkAj+AkClASsZDxBjSKiWu3sX7i+ZpoguVuAjEFbETMWDZTC3cQdhOWS7pQtfgxq0q+WqW1vNLSbfAdoWMEUmA4FEoxPuzT+pAWB3lmQltgiwGLOcfdcZxyoCX5uXAjnJNH/qJwz7bCAmrqhOrkdozvYxv3fh203TFJM/zmZGHM2mkg6tfT3VTdo8UwEAlvCOXqC+uSuARQSU8d6Im0aAnhDcuBMlaRHNM0/0VU/gCzDTJ7LphBXRZDqkKQMAR9jiKpiJFvmHnuWf+5wbtmWeBEfifk4FlaKbb0sDnS475QAwfj6IfxTMIqBC8dRvPxOWwuN2h5UlbDDz/RLRfnXcYoLAZ2b0pNt1u9NzNyHtT1kAOKO3gkwxCSAcXLdEfBjAqjKJES00UgkRsWzapSkPgOKKEI0PwOTz6mAC8+XP9doduGZ62gWqdKN42gBADMqyv5dYHBTPqxLifp2ha0d5X+VKXIjMdFS7XLU7sbxMKwA4AgwrZ7+LObDIbZTpEu4rJtG7vdQysqIKMsaSGIWizHQKWe8HsGkJgHEgqHcwUPa2M/My2sxXFyntKrNxPmfoWonvYife0la2Oa0B4BeF3CVMQXUvKOKFJ1KR1dQj7LsMXXOYTVo5Dx2re1oDwIoSyvyAX/jauiRehcOorvJTINO0BoCQf5VgCtWnx+XRPAXmsekuTnsACMk0wXY+auha0+Hamp6NDhScEQAQcrXjCYjgCc6Nnq+4iaWTMukhcfkzI9KMAYCjJ9hCLLiGBUmDm3JWROf8JRNudLujzwQEzCgAuCe0r2/h3FfG+NBZ5qz1o6NXvjITJnvG6QFm6qQ2Mu4ZuwI0IqTpnHc7AKbz7NYxtu0AqENI0znLdgBM59mtY2zbAVCHkKZzlu0AmM6zW8fYtgOgDiFN5yz/D8E6nTWv61+DAAAAAElFTkSuQmCC;rotation=-90;" parent="NIIjqhKRe15nDF2A4hRN-169" vertex="1">
          <mxGeometry width="204" height="204" as="geometry" />
        </mxCell>
        <mxCell id="NIIjqhKRe15nDF2A4hRN-86" value="" style="shape=image;verticalLabelPosition=bottom;labelBackgroundColor=default;verticalAlign=top;aspect=fixed;imageAspect=0;image=data:image/png,iVBORw0KGgoAAAANSUhEUgAAAIAAAACACAYAAADDPmHLAAAAAXNSR0IArs4c6QAAHixJREFUeF7tXQmYHFW1/k91T5YHAlFRQXiIivJABYUHKg8BWaarA5muHmZQQR8gLizT1SEQwjPCRAQBkenqAYQg7itDujpD0tWJwIsIskhwARRFEURUlgcIgSzTXeflVlf1VFdXr5nuniX3+/J9ma67nvvXvbfOPec/hO1pRkuAZvTotw8e2wEww0GwHQDbATDDJTDDh799BdgOgBkugRk+/O0rwHYAzCwJdEfjuxGZ70cehxDREQDdzWSuJ5N/a6SH/zyzpIGZ9RkoR2JJEA1UmmQCUlJQiq0aGXp6pgBhRmwB3ZGBQySSDACvr2diCXRORk9cW0/eqZ5n2gOgr++sHTfkul5pdKLyJh+2dmXyF42Wm2r5pz0Awor6PQZOaXhiGC+bEu27JpX4R8Nlp1CBaQ2AUCQ2SEQXNzsfDKSyutbbbPmpUG5aA0COxEZBdILfRDDQn9W1kZAS/xCBbwSwv0++Jwxd23sqTGSzfZy2AAhF1FOIcAOAf/MKxwxK+6wZGfqT+3c5qt4LxqHevF352TuNjl7Z8Bmi2Qlpd7lpB4Dj+xa+NZczFxMQqyDMPxi6tq/3mazEbgLo9DKwwDxwjT78m3ZPTLvam1YAkCPxCEt8PjE+XFmA/EdDT767DADR+A1g/mxZOdPc31g5/Lt2TUi725kWADim74Kdu3Kbzwf4fACzagmRgBMyuraqZAtQVLHM7+gtu3HneXPXfXtwU606p+rzKQ+A7p6BYyQpICb/uEYmgZmXAdI6gnkIQJ8B4Z0+5cfyUv59a1dc82gjdU+lvFMWAH19fYFXcrudTyDx1tel4WtyYh7qyuPY0VHtmSbLT+piUxIA4V71UNOEOOhFi9IljIHR5ZH2wwDEv481MQuM8buSO3cMSqGRkaGNTdQzqYtMOQDIEfUcEJ0H8F6OZInwGDP28Up66+8nZ1LaD2VF/b+GVwnGeSBc5apz1NC1nkk9m010bsoAoLt34f6SaS4G8CnXOBmMH4HwibKxM/5qpLUiSMKKejMDfXXI6M95M3DU2pVXPxVS1BgB2ngZ+o6hJ06to44pk2VKACAUiZ9KxOeVaOsYDzCgEeF7ftIm8JkZPXm9+1lYiZ/N4Gsqzw5php6Il3wdRGNfBNOXXCAoyzNlZtuno5MaAOHo2XuZHBAHvbPdfWfghq5ccGkumPslgLf5jOtFQ9d8D4YFRREfSmweCqJDQFhPJq0HSesz+tV/9JtMOaJeBcIi55n4gsimk4NTeeKL2+dkHUS4V+1lE+Kt/6Crs4+ahKuyKe2mkKIaBITsZ4+D8QIIB4u/CVic0bWvTuTYQkrsRgKdUewLczyTTrq2h4lsrX11TboV4Gjl7DfMQvB8EM4tPdXTD/KmdKG1N0fVS4ix1BGToWskK6o4tYuUO/SAebMHBwfNiRaj9xzB4FOzevI7E91OO+ubVAAI9ardyPN5RHSMSwhPg/gKI5UcFr+FlVgPg9LO89lM8zYTi3PA8dZvTJcY6cRFrRDicZ88b4fAhlzKrXRiQk82pY22or121DkpANDXNzhrQ+4loc0T++w818BHOY/F2VHtD+I3sX/nc+bfis/J7DNSw7e43n6MBTfuctvI8n+1SnhWH/LmCtfN4WbA7Db04Z+1qs1W1ttxAMjR+GFga+KV8YHSv0DmZUYqeaV78LISewIg59PuekPXzgxH1W8w49OFfOWn+FYIT3ySBkzzFgacW8VnkDdlY3T4V61or5V1Ng0AOTLwDoJ0IIP2ZInv3vTCvF+tWzeYa6Sz4UhMhUTnMuPfXeXuIKZFmXTi1+66Qop6BwFH2b89Zujau8T/3W9/ICjt0S6LXhu4IwB2s6AHPEqSNH/1iqHHG5FBp/M2BABZHpiNudIQGN0A3u7p/Etg/jkTrszqybuqDaxbGThATDIRfdKVzySiSzKpRNnnVUhRryfgc05eceizJ/9SAP9T+J2/aehJeyVoj1hDvbEwmSRA4Bid3BvMBU+49davPd+eHmx7K3UDQI6qJ4GxHMBOtZpl8NVZPVn8bi5dxuOn23v9fq7ff8kgNasn7vHWHY7GzmAmYbJlpcCYtMeqVQW7fffbz3ns65wVavVvIp+Ho+ontqqhf+Cq03h2140965cvH5vIdlpVV10ACEfiBzJxQ/ubFwT2lnEuE84qGQzTlUY6cYHfAL3tMnE0m0rq1uRH4wNgTtrL70hG1/pbJaRa9cqR+Jkgvs7Jx8CPsrpWrp6uVVEHntcFAFlRxY2an9Fk1S5LJh+2emXyF+FIrJ8lEt/1bpu73zPzQDadvL1SJXJEfRJUOB8Q47pMWitqBN1vv8R88Op0cn0H5FdsMqTElhDoK84P3v52sm/V2q4JADkSj4N4qJkBMOGXEuMuLtjnBYp1MA0b6UQlmz0rm6yo/wvgSLtMiR2fBSiin1jPGGuMtOZoBJvp5oSVCSvqVxhY4qrwMkPXvjBhDbSgotoAqPz2P8KMIYnwDIM/BtDJdfTvKQLO8ppject5DTSdQ5+Tr2TvZzoqm06sq6PttmSRo+p1YJxZXAlaoJaeyIFUBUAoEn8bEf/Fp8FHYJr9bmNJuZJRpV2YGDft0DXvrJGRwS3VBhCOxC9k4sucPN7DnawMHCFMuayXn/CLbEo7bCIFMhF1yRH1B+4raiZ8PpvShIn6pEtVASD3qCdBwo/Les0YMNJaybXq/J7Yh02J7vYZYZ6BjwsnjFqjDyvqsQysLeYj6jNSiVvc5WRFFQaas8Vvfsadtdpo1/Owoq5iYH4RyOCPZ/VkuSzb1aEK7VRfARR1IQFXe8uyxPOzK5KZkomRB3bCHKlcBct42UhrO9ca5/z5Z84zZ80S9vd7Wnl9zglCfyBBshVE9JChJ95Xq95OPS9YKm8Slsf/VegDM5s4PruyVG6d6p/TblUAVHqr/e7DQ4raR8DNPgMaI8IxmZR2Z7XBykp8HcBH2Hl+Z+ha2VdHyVeBiZMzK7UfdlqA1doPRxftxZy7FcB77XwvgGiBkUr4rZQdGUpVABzZd9aOc3NdLwBlxpYCz0WjiPmR2EEm0QM1RnAX2DzVj4VDVtRvAjjNKb/nrhtnLfcoUkIL1HdTALZ5Nj9p6Ek/Q5COCLFao9aqxdKo8zm71aTtcTLzkczKax6aDJ2t+RUQiqp3V/G0eQrAiwAaWYqvxyYzbhjDm4UAwhF1KRMucYRR6Zs+rMTvY/Ahhd1h8h6q/Ca1cHCllQA5W+H6QJCjq0aSf+00CGoDoGCP960mO3qPJEmnsGle7jXIFCwcIH7RrUYlotMyqcS3vW0J0zDm4BPOMmro2hstDcAUSl47BgC3b2Q6cV068VInh1ETAKJzoUjspx4jjbr77HzDd/cuPEYyzcsBHOQqLKx2pMLfla9y5WhsFOy4edP5hp5wm2vX3ZdOZwwpsf8mkAvgdIuhD/Vbes4OpboAIPomK/E/AGxdwTaSHD98p4wciX0WRAIIbsOPjXkp/wE/F6wFC9Q3jwXwzwJGMNaVm/2GqeyuHVbUmLBmHpdh+28x3fNXNwBsEJwO4mvBmFMZBHwpmHYAoWhe7dXkhaPqt5hRZl9PwMgOwbHTR0au2+DU7zHG/JKha00zfjQC3FbmlRVVmKwtc9ogYCija+e2ss1KdTcEAFGJdZcP6QgJ+E8ABzNj960/38Pge8F0T3altsY27CzeiROgZnTNurmTo/EvgtllZw+h1XN0/nY/6VJDTyw9pu+zO3fl5hb3SJNo9+nC2RNW1KsZWFgEAdEyP1uIVoOiYQDU2yE5ElsMoiuc/PlXu3YM7JCLAPz9Yh3MMSOdHJ4fjR1lMgkzbvf5QHxdCHAUTMUYCSOtFQVWbz8mcz7v5y8D52Z1ramLt2bH2TIAFLaMoqk2iPl7TPRRAG+1O3ujoWslhAwVzgf29p97d0a/1tdxo9nBT4ZysqKm3PaQzDgjm9ZualffWgqAcDT+SWb+rs9gfmvo2gGVBikrqjgklhiJiPNBPih9fs3IkFBMTZt05JGDwTnzXlzrsncEfO5AWjXglgKgsAqUqHitcYyN8V63raquBHGvHp7BX2HomvvOvVWyaVu9J5yw6I25YG4NgA8UdjtsIDZ7jfTw+MVYi3rTBgCownNm3KOX+AKvubd3bLYzqKN8ugOA0KCVng+YlxjppLBRnBZJmMyBJAGCd9gDeook9GVWaPe1coAtBYBN1VbqvUtYY6SqW/CUnB0IR4iLJFlRBYgSHv3BelOSlqxZMXRbK4XUrrrtO5UsAKHpFOlhCdS/Wk/8vlV9aBkAhN08M99MsD4TS5JXOeR+GFJiHyPQj+ylMJvVNdn9PBxVL2GXX6B4Zp0PiNTp8IkYisSOJiJBbO2wndzdlc/3j45e8/dWgKApAIR61fdJeT6AJRKXM3vApJ+RxA/uEBh7UChxBCe/xCyuhu27cDwCxk9dyqGKh8Cwor7GwFwLAD52B+L3BQsWv25M2nwjCCc1ej6YCvECwhG1lwluQxhjY3Csf93IdRvCyrnvApsHscQHgXEQM/8MAdzPLP2qmRegIQCEojGFQBf4MWraE/E0iJJgFnf54/u+ae6/RTKfmYWgMC97nf12q1lbOeRMouD5A7Fl9g3gbkPXHAD5gr87Gv+AxCzOAXWdD6ZSvIBQRP00Eb7hDFzEMmCi5325DJ1MzMNGOlnV2NYryLoBICuew1y96xHhY0ZKsyx45WhsMbioHHou/2rX3mvXXvVqEQCKKgBSuOd3lavVlO208vVK54OpGi9AjqiLPDxFtUQhnr9gsimvSQ/fX0/mugAQVmKnMUgYbTSaysyi3ZdKBFye0bULRaVhJRZiWHufmPzfGqnKeoJKnQhF1KXksi2w84kVxeV4Wt8QJku8AK+iqL7eAzsGx17nvlOpVK4mAMSew8hb7tkNJ8J5Rkr7mrucVzlk5sf2WTN63Z/kiHovqOA4si3asL6+vlkbcrsLVzI3mVTDXcckiBdgy17YQFpnokYSAd/P6Jrb99K3eE0ANIvAYmssdRvpoRKFhls5RIRvmyZ9h4iFI4hIE0LRLvcM7AdJEp9UBSPTJlKn4wWElHiawE1T0zHzYDadLN46+omgHgD4cuyJTy82zUFzVvCfNJaPVQ7MQEsNPSG8eIvJa/7NwF1kfzHQBHLvyErs+5UcVqZCvABZUUUUM68XtpDjOhAtFcalVYxxxVr6A0NPVo2WUt0quIKxp5h8rzOmrMRPLrnps6ebCY/C5DJ7eInoRAbe4wYGARsZGGJmx3mkJkCrvdgk0Rng4uVTMWsj8QKYWfj7WfaLLuZQpy43m2glq55mxzCLiKzzkSc9Yuhaidy6+xa+U8qZj5XlJNxnpLQiyVbDK4B9O1fm0cJMp2XTpbZ7VbyImlh8W1qkoXgBLe1JE5VXcjqVFVVYTHtp8F8wdO0NVV+Sag89OnlXVjrF0BNun3hURGETg2xtkQbjBbS2M43XTrTcSCWKZBlOBbKiiggozj2C8/Pzhq7t2jQA5ivx/zDBZcEShE/epsBYt9BMOZVXCdD0a2Ze6bv8EAlmr6ISh4EsmL2XH84y615uawqOgNcz6HQi7ODN7HUpszWXwq+hXG1N+DJMztdscNszlIyPGUFJIj/P4r+bRAe7tX5hRT2eAeGA4k01lWk19yfZrZxxrwHACJgu46780xgLnFzJhbxSEMbjes/ZN2AGvJccZcqhZuRqq1IFj+CBFco/BaaYkU6kba4fYWd4rE/esv22mf40W6YKL8NPQbSscAiMRwkWUYZjaONqrrbBaW0A1PD6rT443gSJP2ysKGfPkiPxK0AsyJ9FEnZ/u4j/MNFXsqmEzfvTmOhEDIFX82/9IjN/cdzcvLE63LkZfG1WT57TfA3bVjKkxK7x0uQ2UiMxfyqTTvpyKTv11ASAvTw2dRNFxLdlUsmyN6vswMh8EchFyMzmOxsN5Cz3DrwfpiQm3q31yxHwm63Lo/uuoF4Z/sPQtbItod7CE5VPVlQhe4uJrLFEVxl6QgTTqJpqAkCU3pYAjA5nv7sXsqIK5YTN5lmgYJcVVRAtfkTkE8qhTEor+grWGoTlcEG0FFwS9mVdHl0nrdWveraKdVHlqpnCRjpRUE13MMmRuAziEk/serrjNcWvVKYuAIjCPvQn1fohTMIdowZIxB9dnUpamr5w31lv4VxXMRyraZofWbNy+OflyiE+vBbdnHzywE54VbrIzeRtA+jLmZQmVgMrhXsWvpfJXOVy0Kz+VtiBJuoRdKvzhCPqtWXEWtUbnfjLIKc9YbHCwOVcyuXr7s7jgiPHlPIPBcyAsAdw3KKfz0v5w4Xnj5sBxKtqlSPqj4t3/DW4f7p7Bg6XJGvJd28xrxC4P6MnhQq4LMmKKgxNhcGpfyJaLm3evGT16q8Lk/SOJy9NPQh/RSmpZmkfW3kd7G7JMl0S+6okHQTT3A0k3SdJdJ/5Wu5+wxh+WeS1qVwECN5kl30oP3tsfmBzl1BYFIgVPcvsfCX2HhNUdJuuZDkUVmJnM0ic8t/i6pdBwbHTMyPXFdzIKqRm4gV0AgleRnQiuo3mzOnnjVt27ZhBSKOC8OqpifAos8Ovy2sNPSkYR0uSHFGHKlkOHbvgnN27AoGL2MUaWijMSw09WXLf0GhfJ1P+cDR+IfM4TxKAu0yi/mYsfmqNq+4zQK2KKj0vBHmCRfXuTpXebkU5+w2bfCyHwsrCEMMUB8cPuep5lpk/UY1rsNl+d6qcHI3HwS5aPsYD+Xy+f+2t1/iRdW1zN1sOANFD73IG4GlD1/aoCJpofDGYbbcyehZkXgMmoTMoRvYkUCpPOKcVb8U2S7XJCkJR9XPEcMc5mrpWwWVLu6I+C2BcL00cc4JA+MlLVlThBlYWCk7kJdCijJ4oI69qUu6Topht9u6OPvIYMfV7WdMnurNtWQEqmpTZAR98ARBVh8HwaOHoSUmiM1ZPEz8AZ9xyNH7iVkNaN43eUyCz30gN3zvRE+6tr10AuJNBh9uNC6oXh+BpI4iOdbNmCXXuhrG3Xgyy1Lnu9HhXPn94q+zjWy3oSvXPj8bnm8ziIseZi+eYqb9d7KctB0AoEv84EVt0bsT4Sy4YOEXK5b9PhL0dQEiSdLQItCDUuWwGLq5kBsWorRzq1EQ2067tBCLiDTnxBl5mCf3ZFZpwEWtLajkAZEUV9oAFZQ3hC0ZKu8wKtMB0M9i+qiXcB4ZwiRZOn+MmUIw/gPifABX4AycRMfS2zo7NwSgm3zHY2GIrsXyvzre1vUrlWwoAy5GESfi/i/T8ljzec7sdhbuWqTkRbmKYgxLTLvUoh1oloFbUazu0iIke/xJqwA9iIvvUMABEEAeQ+UGADmRAEDXvAcI6MO4Fm79yuzS72b2Y+CvZVLLkmtcbCsYZmJcpQ46qIkyNxTlEoN9k9ESle/6JlE1L6ioY2SDtJtzqZPzBhgBg69KFlYrl3uWXHJs1zy3WFrC5n/uKtxDHV9wIsqMqtneJcnv2gv98/nGAC+0SxYxUoky51JIZm8BKjzvhnL2DwaDO4HFyDEn6nLFiqGNu7nUDQI6qt4DRW6c8/kzAg0VySMI1RkobEGWFOjcYCIjAUJ+pVJcfE2jpRQ49G8y9tvetty5/rc7+dDxbuO/8t3Bui/BScofCLZJndaqDdQGg1n5dq/MmzAPX6MO/sdS5ZA6WOZcyXwCi4wAcXdwGfCJyupVDfltKrX506nkkEt9lE3GqhAaG+QIjXRoXsRP9qwmAbXINK7h5fTub1k6z32Chy3c+ecSp/j4iHhTXtzYdrKBXd2zen9sacmZ+NqWJCOFWKtOWNWE51G4hi1B7NCewgsHF2AFbxXKxoWtuqrx2d6vYXk0AbKtrmLAfIHGHTfBG0fpWIMiDbsJkOTrwQQhm7XGV8cMgUzZSw8VwsW7LIQdcHZNeHQ3LSnwE4BNdWSdVHKGqADjooM92vWnPuc+DymMFul3DpFz+dMDi+fNL4g7AfdDbAvAXDD3py/fr+XQU9d1+6AHzjnOigTdjOVTHPLUkSygS+647OGa1eIot6UAdlVYFgG0yXR4F1Mc5obqPWqEnBLrfNM1ltaJmhKLqWcS4tnge8MTha8RyqA4ZtCSLHIndAKIiD+JkDSNXFQBhJX4ug0vcu4W0/O7y5b6BXZGTxNvum2wv4GXZdMKhfa8q+DIuIBdTqNdyqJ28evWgRVbiCYBVJ69QamVS2hn1lG13nuoAKOeqsfrn579vu2M/4j8A/iOZtKzREC8eomgw+MKsnrRs+mQllgDIEvJkUg6VG8/W9tBt96S726u+BRS464TPmTeVhY0LK+rN3qAQPuXulIgHHQvhegYuK6pQmS4ovk3g0zN68ltCOTQWzP2FHCORSaAcCkViFxPRePBrwgojpbkPgPUMua156vkKqOSjLpi/rmfCM1YwCeYS3t+qo2D8RCJaVg//nRW3KN91m0t38BqBe8Wno8fK99lgbmPHlEMe/iOxTa5+XfDvPSMjI+3wK2waNLUB4ImE2WBLr8CUTibJ7GfAh6iANATzlxojw89Vq/f43tg+eZPEraJlR0CEv+TZVIRyaTIoh0KKGiNXEAhhwZvbEIy4CbAalFvbstcGgDwwG3Osw13NsPE+vV5i6Jpl2ydHzzkMHPBxwuRNW3fxwR2Df7+q2tsSjqofYYaw93f4cu7NY3NPALNF3OBxU6o2K4dkRRUqbbcu/64tyEVu168VzCqTPtUEQGHy1JPAPhFEqw2vwv5nf+eLfbIk0ph4q00Rik5Puu3iSlrw9oNAKzN6ItIp5VA4GvskM42zoTMe6DLzPVPJaqkuAIhZCPeqh8LESgbeXAvWZB/UquULK7HPM0isCG7nDlHkHjBdUskvr8xsGrjRUkqVhpz9r1YHZ/Sx43tYkqQeYdlUSz6T6XndABCdFtz2c1//4uVgOhHgvUoGwngZhNsJgSUZ/eq6AjsceeSpc+bO23nxVs3CoLWzu5JgxoSEK/3YsuVo/Apw0bVclPwyCwtiLlDHCqIJL8fwRArdJmRYAWCWXe9jMM2IO5j2RLbXyroaAoC7Iw5nLQi7MeG+Z5987f7165ePNdPZ43rO3TNI+SV+TpBCgwbKad5oIWFF/Z77YCnInEpIlVoUdKG7Z+CYgCSJFcfiMwDwlEkUWZNKPNjM2DtdpmkAtKLjBbp0aYnn8kQ0lReMGMGxwNdvvfVrxWBUsqIKmvjiFTIYGRDCTt+quUgfeergnDkvvfTBTV1bHnBT3VQbl60aF+bbjr/+cwzqyeqJe1ohj3bUOakA4AxYWBMRmRe6TMmdR38j0OWHHLDL18XlUHffwtdLOVMEpXYCTZe4pcPjfHJC76J9c/ncGSCLMKIYqUzcUTD4QTCNVjp72Fz+wtnVMVp9WSKONKLUaseENtrGpARAEQhWkAj+AkClASsZDxBjSKiWu3sX7i+ZpoguVuAjEFbETMWDZTC3cQdhOWS7pQtfgxq0q+WqW1vNLSbfAdoWMEUmA4FEoxPuzT+pAWB3lmQltgiwGLOcfdcZxyoCX5uXAjnJNH/qJwz7bCAmrqhOrkdozvYxv3fh203TFJM/zmZGHM2mkg6tfT3VTdo8UwEAlvCOXqC+uSuARQSU8d6Im0aAnhDcuBMlaRHNM0/0VU/gCzDTJ7LphBXRZDqkKQMAR9jiKpiJFvmHnuWf+5wbtmWeBEfifk4FlaKbb0sDnS475QAwfj6IfxTMIqBC8dRvPxOWwuN2h5UlbDDz/RLRfnXcYoLAZ2b0pNt1u9NzNyHtT1kAOKO3gkwxCSAcXLdEfBjAqjKJES00UgkRsWzapSkPgOKKEI0PwOTz6mAC8+XP9doduGZ62gWqdKN42gBADMqyv5dYHBTPqxLifp2ha0d5X+VKXIjMdFS7XLU7sbxMKwA4AgwrZ7+LObDIbZTpEu4rJtG7vdQysqIKMsaSGIWizHQKWe8HsGkJgHEgqHcwUPa2M/My2sxXFyntKrNxPmfoWonvYife0la2Oa0B4BeF3CVMQXUvKOKFJ1KR1dQj7LsMXXOYTVo5Dx2re1oDwIoSyvyAX/jauiRehcOorvJTINO0BoCQf5VgCtWnx+XRPAXmsekuTnsACMk0wXY+auha0+Hamp6NDhScEQAQcrXjCYjgCc6Nnq+4iaWTMukhcfkzI9KMAYCjJ9hCLLiGBUmDm3JWROf8JRNudLujzwQEzCgAuCe0r2/h3FfG+NBZ5qz1o6NXvjITJnvG6QFm6qQ2Mu4ZuwI0IqTpnHc7AKbz7NYxtu0AqENI0znLdgBM59mtY2zbAVCHkKZzlu0AmM6zW8fYtgOgDiFN5yz/D8E6nTWv61+DAAAAAElFTkSuQmCC;rotation=-90;" vertex="1" parent="NIIjqhKRe15nDF2A4hRN-169">
          <mxGeometry x="147" y="2" width="204" height="204" as="geometry" />
        </mxCell>
        <mxCell id="NIIjqhKRe15nDF2A4hRN-170" value="" style="endArrow=classic;html=1;rounded=0;entryX=1.006;entryY=0.166;entryDx=0;entryDy=0;entryPerimeter=0;dashed=1;" edge="1" parent="1" target="0INgmSK9HUNSs3rKqE9F-15">
          <mxGeometry width="50" height="50" relative="1" as="geometry">
            <mxPoint x="1220" y="400" as="sourcePoint" />
            <mxPoint x="325.76325000000014" y="817.4999999999998" as="targetPoint" />
            <Array as="points">
              <mxPoint x="1220" y="357" />
              <mxPoint x="1332.43" y="357.26" />
              <mxPoint x="1332.43" y="817.26" />
            </Array>
          </mxGeometry>
        </mxCell>
        <mxCell id="NIIjqhKRe15nDF2A4hRN-173" value="" style="endArrow=classic;html=1;rounded=0;dashed=1;" edge="1" parent="1">
          <mxGeometry width="50" height="50" relative="1" as="geometry">
            <mxPoint x="310" y="239" as="sourcePoint" />
            <mxPoint x="460" y="810" as="targetPoint" />
            <Array as="points">
              <mxPoint x="310" y="209" />
              <mxPoint x="460" y="209" />
            </Array>
          </mxGeometry>
        </mxCell>
        <mxCell id="NIIjqhKRe15nDF2A4hRN-174" value="" style="endArrow=classic;html=1;rounded=0;dashed=1;" edge="1" parent="1">
          <mxGeometry width="50" height="50" relative="1" as="geometry">
            <mxPoint x="730" y="239" as="sourcePoint" />
            <mxPoint x="880" y="810" as="targetPoint" />
            <Array as="points">
              <mxPoint x="730" y="209" />
              <mxPoint x="880" y="209" />
            </Array>
          </mxGeometry>
        </mxCell>
        <mxCell id="NIIjqhKRe15nDF2A4hRN-175" value="" style="endArrow=classic;html=1;rounded=0;dashed=1;" edge="1" parent="1">
          <mxGeometry width="50" height="50" relative="1" as="geometry">
            <mxPoint x="1072.38" y="310" as="sourcePoint" />
            <mxPoint x="1120" y="810" as="targetPoint" />
            <Array as="points">
              <mxPoint x="1092.88" y="310" />
              <mxPoint x="1120" y="310" />
            </Array>
          </mxGeometry>
        </mxCell>
        <mxCell id="NIIjqhKRe15nDF2A4hRN-176" value="k += 1" style="text;html=1;strokeColor=none;fillColor=none;align=center;verticalAlign=middle;whiteSpace=wrap;rounded=0;fontSize=14;fontStyle=1;fontFamily=Futura;" vertex="1" parent="1">
          <mxGeometry x="480" y="780" width="56.5" height="25" as="geometry" />
        </mxCell>
        <mxCell id="NIIjqhKRe15nDF2A4hRN-177" value="k += 1" style="text;html=1;strokeColor=none;fillColor=none;align=center;verticalAlign=middle;whiteSpace=wrap;rounded=0;fontSize=14;fontStyle=1;fontFamily=Futura;" vertex="1" parent="1">
          <mxGeometry x="891.75" y="780" width="56.5" height="25" as="geometry" />
        </mxCell>
        <mxCell id="NIIjqhKRe15nDF2A4hRN-178" value="k += 1" style="text;html=1;strokeColor=none;fillColor=none;align=center;verticalAlign=middle;whiteSpace=wrap;rounded=0;fontSize=14;fontStyle=1;fontFamily=Futura;" vertex="1" parent="1">
          <mxGeometry x="1140" y="780" width="56.5" height="25" as="geometry" />
        </mxCell>
        <mxCell id="NIIjqhKRe15nDF2A4hRN-179" value="" style="endArrow=classic;html=1;rounded=0;entryX=0.367;entryY=0.967;entryDx=0;entryDy=0;entryPerimeter=0;dashed=1;" edge="1" parent="1" target="0INgmSK9HUNSs3rKqE9F-14">
          <mxGeometry width="50" height="50" relative="1" as="geometry">
            <mxPoint x="461" y="730" as="sourcePoint" />
            <mxPoint x="510" y="730" as="targetPoint" />
          </mxGeometry>
        </mxCell>
        <mxCell id="NIIjqhKRe15nDF2A4hRN-180" value="" style="endArrow=classic;html=1;rounded=0;dashed=1;" edge="1" parent="1">
          <mxGeometry width="50" height="50" relative="1" as="geometry">
            <mxPoint x="879.5799999999999" y="730" as="sourcePoint" />
            <mxPoint x="980" y="730" as="targetPoint" />
          </mxGeometry>
        </mxCell>
        <mxCell id="NIIjqhKRe15nDF2A4hRN-181" value="" style="endArrow=classic;html=1;rounded=0;dashed=1;entryX=0.661;entryY=0.967;entryDx=0;entryDy=0;entryPerimeter=0;" edge="1" parent="1" target="0INgmSK9HUNSs3rKqE9F-14">
          <mxGeometry width="50" height="50" relative="1" as="geometry">
            <mxPoint x="1120" y="730" as="sourcePoint" />
            <mxPoint x="1200" y="730" as="targetPoint" />
          </mxGeometry>
        </mxCell>
        <mxCell id="NIIjqhKRe15nDF2A4hRN-182" value="" style="endArrow=classic;html=1;rounded=0;dashed=1;" edge="1" parent="1">
          <mxGeometry width="50" height="50" relative="1" as="geometry">
            <mxPoint x="1336" y="730" as="sourcePoint" />
            <mxPoint x="1550" y="730" as="targetPoint" />
          </mxGeometry>
        </mxCell>
      </root>
    </mxGraphModel>
  </diagram>
</mxfile>
